<svg xmlns="http://www.w3.org/2000/svg" width="1070.158" height="767.614" viewBox="0 0 1070.158 767.614"><defs><style>.a{fill:#dbe0dc;}.b{fill:#a0616a;}.c{fill:#a6c733;}.d{fill:#2f2e41;}.e{fill:#cfcce0;}.f{fill:#e6e6e6;}.g{fill:#3f3d56;}.h{fill:#ffb8b8;}.i{fill:#ffb9b9;}</style></defs><g transform="translate(-397.421 -408.249)"><path class="a" d="M6391.234,538.319s77.276-118.234,311.252-94.621,68.691,135.234,225.39,173.872,229.682-122.354,311.251-98.742,105.183-6.44,107.328,135.233-4.293,306.959-70.837,317.691-255.44-62.25-407.847-27.905-135.233,103.035-291.933,94.449S6341.864,915.941,6328.984,810.76,6391.234,538.319,6391.234,538.319Z" transform="translate(-5904.644 52.251)"/><g transform="translate(397.421 408.249)"><g transform="translate(678.386)"><path class="b" d="M743.234,621.6a19.623,19.623,0,0,1-5.821-29.522L712.042,415.161l42.659,1.175,11.526,173.538a19.73,19.73,0,0,1-22.992,31.73Z" transform="translate(-549.291 -194.645)"/><path class="c" d="M710.908,466.829a8.79,8.79,0,0,1-3.16-6.61l-.716-44.156a24.436,24.436,0,1,1,48.2-8.1l13.541,42.185a8.8,8.8,0,0,1-6.946,11.37l-43.846,7.235a8.789,8.789,0,0,1-7.07-1.926Z" transform="translate(-553.715 -217.45)"/><path class="b" d="M538.31,543.932H515.917l-10.655-86.38h33.054Z" transform="translate(-462.37 189.515)"/><path class="d" d="M700.325,720.979l-72.21,0v-.913a28.106,28.106,0,0,1,28.107-28.106h0l44.1,0Z" transform="translate(-618.672 34.178)"/><path class="b" d="M607.31,543.932H584.917l-10.655-86.38h33.054Z" transform="translate(-405.329 189.515)"/><path class="d" d="M769.325,720.979l-72.21,0v-.913a28.105,28.105,0,0,1,28.107-28.106h0l44.1,0Z" transform="translate(-561.63 34.178)"/><path class="d" d="M776.606,806.709,737.437,600.293a2.657,2.657,0,0,0-2.678-2.212h-.011a2.656,2.656,0,0,0-2.683,2.191L691.347,806.277a8.225,8.225,0,0,1-8.708,6.543l-31.832-2.546a8.221,8.221,0,0,1-7.527-8.971l26.78-289.389,136.853,3.569.848.023L821.222,804.73a8.221,8.221,0,0,1-8.211,8.611H784.672A8.237,8.237,0,0,1,776.606,806.709Z" transform="translate(-606.166 -114.66)"/><circle class="b" cx="44.865" cy="44.865" r="44.865" transform="translate(81.726 53.167)"/><path class="c" d="M659.23,636.681a8.207,8.207,0,0,1-4.411-8.47c5.8-41.445,2.106-114.729-2.015-168.909-2.824-37.131,22.133-70.374,58.052-77.325.559-.107,1.118-.212,1.676-.312h0a72.333,72.333,0,0,1,62.038,17.964,73.1,73.1,0,0,1,23.666,60.837c-5.324,60.395,4.13,150.806,6.079,168.317a8.314,8.314,0,0,1-2.684,7.032c-18.208,16.619-40.172,22.24-61.556,22.24C705.493,658.053,672.428,643.35,659.23,636.681Z" transform="translate(-598.441 -223.313)"/><path class="b" d="M650.378,621.361a19.624,19.624,0,0,0,8.965-28.724l44.275-173.161-42.537-3.425L630.937,587.339a19.73,19.73,0,0,0,19.442,34.021Z" transform="translate(-622.946 -193.909)"/><path class="c" d="M686.762,471.826l-42.812-11.914a8.8,8.8,0,0,1-5.681-12.052l18-40.481a24.436,24.436,0,1,1,47.045,13.24l-5.466,43.822a8.8,8.8,0,0,1-11.089,7.385Z" transform="translate(-610.906 -215.812)"/><path class="d" d="M734.081,418.944A32.149,32.149,0,0,0,746.5,416.7c1.738-.67,3.542-1.22,5.276-1.89,15.32-5.919,25.411-22.234,25.773-38.654S769.4,343.8,756.779,333.3,727.8,317.4,711.422,316.154c-17.64-1.343-37.5,3.13-47.359,17.82-2.623,3.91-4.459,8.654-2.9,13.376a8.559,8.559,0,0,0,2.412,3.7c4.4,3.916,8.79.972,13.278.711,6.168-.358,11.708,4.635,13.7,10.484s1.115,12.287-.493,18.253a45.59,45.59,0,0,0-2.3,11.1,11.158,11.158,0,0,0,4.623,9.825c3.854,2.33,8.916.981,12.772-1.345s7.189-5.56,11.354-7.271,9.762-1.332,12.187,2.463a13.485,13.485,0,0,1,1.541,4.448c2.173,9.9,1.674,9.32,3.848,19.222Z" transform="translate(-591.827 -276.679)"/><path class="c" d="M77.261,0h0A61.932,61.932,0,0,0,15.5,60.157l-11.639.007A3.872,3.872,0,0,0,0,64.045V79.572a3.872,3.872,0,0,0,3.863,3.882H135.207a3.872,3.872,0,0,0,3.863-3.881V62.1A61.957,61.957,0,0,0,77.261,0Z" transform="matrix(0.985, 0.174, -0.174, 0.985, 65.358, 0)"/></g><g transform="translate(326.873 265.122)"><path class="e" d="M314.3,505.694l-1.439-1.92,10.445-7.828a8.826,8.826,0,0,0,3.459-8.128l-5.175-41.786a17.393,17.393,0,0,1,6.816-16.02l11.385-8.532a10.183,10.183,0,0,1,14.24,2.04l2.637,3.519-1.92,1.439-2.637-3.519a7.781,7.781,0,0,0-10.88-1.559l-11.385,8.532a14.988,14.988,0,0,0-5.873,13.8l5.174,41.786a11.23,11.23,0,0,1-4.4,10.343Z" transform="translate(-255.156 -417.001)"/><path class="e" d="M154.925,380.526l8.516-11.216-2.879-3.84-12.768,5.54-55.74,38.516,9.867,13.167Z" transform="translate(-92.055 -288.292)"/><rect class="f" width="26.738" height="96.498" rx="7.272" transform="translate(86.942 16.034) rotate(-36.846)"/><path class="c" d="M418.17,485.738c-.142.172-.42.4-.544.321l.247-.443c-.018-.021-.034-.044-.05-.066l.047-.061-3.551-4.739.093.006-.163-.1-.45-.6c.057-.012.131.005.237.111-.183-.558-.4-.313-.522-.821-.005-.062.023-.054.065-.024l-.417-.367c.128.037.161-.233.317.067-.409-.912-1.171-1.087-1.161-1.554l.068.051c-.683-.752-.514-.345-.749-.349l-.379-.506.1-.658-.3.061c-.076-.118-.224-.351-.1-.377-.464-.3-.044.144-.369.011-.2-.69-1.206-1.411-.941-1.8-.314-.066.254.612-.294.127.26-.451-.563-.614-.755-1.237.311,0,.555.547.362-.077-.556-.046-.643-1.011-1.018-1.378-.281.18-.786-.818-1.4-1.446a19.254,19.254,0,0,0-1.223-2.136l.059-.014c-.363.076-.812-.629-1.231-1.073.175-.1.3-.062.573.148l-.343-.456a1.235,1.235,0,0,1-.572-.425l.287-.036a10.919,10.919,0,0,1-1.606-1.929c-.15.065-.128.5-.327.547l-.31-.414a.234.234,0,0,1,.269.065c-.066-.061-.274-.19-.337-.365l.418.2c-.192-.412-.282-.079-.479-.376.149-.1-.055-.288.09-.333.068.062.126.293.265.359a2.385,2.385,0,0,1-.406-1c-.061.09-.195.146-.39-.075-.466-.6.018-.338-.173-.748-.211-.072-.4-.538-.621-.386-.132-.179-.056-.287-.049-.4-.331-.243-1.128-1.449-1.092-.922l.045.092-.048-.044c-.987-.87-1.482-2.233-2.342-3.187l.074-.053a14.709,14.709,0,0,0-1.549-1.642c-.135-.181-.187-.525-.044-.512a3.352,3.352,0,0,1-.911-1.181c.478.375-.01-.245.453.412-.392-.653-.379-.877-1.065-1.38.351.083-.109-.631-.38-.878l.186.524a7.786,7.786,0,0,1-.666-.9l.36-.027c-.634-1.463-2.181-1.861-2.393-3.177-.416-.2.385.764-.034.62a10.191,10.191,0,0,1-.625-1.632c-.451-.883-.9-.463-1.424-1.35-.008.169-.166.442-.706-.108-.4-.6-.162-.975.178-.667.11.131.132.218.1.235.17.161.389.375.313.078l-.142-.009c-.124-.35-.722-1.129-.441-1.051-.406-.37-.281-.078-.086.276-.423-.827-.854-1.148-1.335-1.965.042.156.023.343-.066.223-.721-1.187-.53-.364-1.13-1.085-.187-.525.43-.084-.246-.756-.256-.528.157-.27.365-.14a5.282,5.282,0,0,1-1.116-1.783l.341.31a3.509,3.509,0,0,1-.47-.545l-.019.337c-.129-.235-.263-.416-.188-.466-.278-.134-.163.384-.645.066-.124-.349-.742-.792-.584-1.063.59.95.158-.272.76.455a2.078,2.078,0,0,1-.4-.539c0-.051.07-.006.127.043-.433-1.007-.554-.2-1.212-1.085.214.015.093-.39-.043-.513.264.358-.089.333-.433.081-.324-.643-.537-.56-.748-.865l.206.374c-.216-.017-.411-.314-.748-.678.076-.11.339.307.277.132-.557-.268-.507-1.169-1.119-1.665-.124-.349.224-.21.1-.5-.682-.559-.378-.876-1.058-1.492-.019.338.051.343-.5-.037l1.011,1.093-.824-.57c.266.359.675.672.806.909-.414-.256-.343-.251-.359.029-.1-.686-.879-.856-1.126-1.554l.445-.307c-.444-.995-1.354-1.345-2.073-2.53l.191.411c-.283-.019-.535-.664-.872-.969.169-.075.055-.338.03-.558-.093.1-.6-.815-.959-.7l-.179-.636c-.549-.895-1.286-.859-2-1.917.151.037.147-.1.174-.19s.095-.109.47.275c-.34-.457-.647-.921-.674-.749a.8.8,0,0,0-.092-.16l-.064-.082c-.023-.024-.053.045-.081.067l-.386.475a2.532,2.532,0,0,1-.724.727c-.127.235-.086.459-.458.8-.064.011-.055-.071-.055-.071.017.112-.4.55-.01.456-1.18.352-2.207,2.138-3.248,2.412-.536.564-1.2,1.226-1.728,1.692,0-.071-.057-.07.056-.142-.845.506-.114.789-1.088,1.354-.621.137.351-.5.009-.357-.5-.359-.972.919-1.775,1.108l.118-.14c-.564.2-.941,1.039-1.706,1.569,0,0,0-.069-.05-.075a8.777,8.777,0,0,1-1.908,2.014c.092-.35.26-.335-.016-.429-.307.259.318.24-.3.758-.286.048-.821.29-1.029.122l.609-.442c-.5-.041-.792.564-1.153.74l-.038-.146c-.923.687-.747.985-1.8,1.64l.166.022c-.384.667-.589.131-1.026.713l-.362-.2a17.528,17.528,0,0,1-1.836,1.556,11.317,11.317,0,0,1,1.424-1.476,5.064,5.064,0,0,0-1.393,1.049c.138-.119.287-.309.467-.349a4.314,4.314,0,0,1-1.681,1.416c-.065-.359-.834-.011-1.765.444l-.352.172-.179.088c-.058.03-.152.051-.075.112.143.2.281.408.4.6a2.811,2.811,0,0,1,.452,1.009l.586.666c.13.148.253.3.373.459.239.315.462.646.684.988.444.684.886,1.41,1.453,2.132.046-.847.334.419.713-.006.281.316.372.451.368.505l-.034-.084.035.09h0l.509,1.235c.054.343-.342-.251-.419-.145.527.774.046.456.3,1.041.084-.221.424.089.683.561l-.244-.756c1.022.868.3,1.186,1.328,2.064l-.391-.228c.489.479,1.493,2,2.25,2.26.02.134-.007.353-.218.139.915,1.334,2.54,2.593,3.072,3.764l-.183-.016c.212.218.52.266.637.651-.057.018-.182-.015-.1.1a3.079,3.079,0,0,1,.848.865l-.328-.181c.8,1.369,1.751,1.712,2.619,2.713-.324.239.315,1.31.634,1.845l-.059.017a35.478,35.478,0,0,0,3.283,3.561c.283,1.107,2,2.97,2.818,4.475-.1-.251.276-.154.489.063.173.367.883.713.55.884l-.079-.118c-.11.457.458,1.054.833,1.571l.45-.205c.44,1.758,2.831,3.348,2.875,4.455.338.25.637.651.973.9l-.22.138a23.687,23.687,0,0,0,1.8,2.467l-.317-.114c.454.633,1.187.339,1.63.905l-.18.4a16.139,16.139,0,0,0,2.458,3.252c-.058.016-.172.051-.316-.115.376.518,1.274,2.137,1.559,1.633-.267.22.814,1.142,1.376,1.638l-.272.061a2.828,2.828,0,0,1,1.306.9c.1.184-.056.266-.167.009.3.627.512.281.9,1.025l-.315-.149a1.365,1.365,0,0,0,.826.673c.347.292.748,1.105.626,1.326a1.02,1.02,0,0,1,.745.558c-.036.1-.17.009-.236-.036.566,1.044,1.285,1.22,1.569,2.017a.2.2,0,0,0-.04.2c-.555-.751-.994-1.361-.937-1.315-.188.141.231.769-.388.484a6.408,6.408,0,0,1,1.785,1.63.338.338,0,0,1-.007.127l-.067-.045a1.129,1.129,0,0,0,.309.349,3.732,3.732,0,0,0,.308.53c-.1.186.435.755.653,1.061.187-.179.449.24.343-.257.021.059-.067-.038-.226-.232a.828.828,0,0,0-.117-.112l.033.007-.574-.738a1.291,1.291,0,0,1,.692.76c.248.055.511.124.647.171.022.627.461,1.536.367,1.779.4.416.826.943,1.253,1.4a8.224,8.224,0,0,0,.653.634,2.394,2.394,0,0,0,.749.543.83.83,0,0,1,.236.407c.036.134.094.121.161.158a.879.879,0,0,1-.207.092l-.136-.149a.907.907,0,0,0-.234-.207c.181.12.3.564.656.284l.909-.37a3.049,3.049,0,0,0,.6-.3c.131-.091.215-.182.222-.275.828-.165-.326.464.72-.012l-.107.154c2.337-.351,3.019-2.2,5.5-2.805-.173.046-.258.071-.317.039,2.665-1.122,4.773-3.372,7.205-4.813.679-.439.589-.674.841-1.118l.314.088.4-.793c.674-.979,1.941-.947,2.644-2.348l-.269.013c.4-.362,1.044-1.335,1.149-1.124a.334.334,0,0,1,.182-.351l.12.082c.227-.384.435-.78.651-1.167.723-.724.356.5,1.3-.66C418.042,486.66,418.375,485.631,418.17,485.738Zm-4.914-6.472a.237.237,0,0,1,.008.078l-.182-.243c.057.053.113.1.174.165Zm-22.181,18.443.043,0a.318.318,0,0,1-.163,0c-.179-.178-.189-.276-.167-.335.075.092.164.2.287.332Z" transform="translate(-258.231 -417.32)"/></g><g transform="translate(0 29.649)"><path class="g" d="M348.121,656.793H1417.543V667.36H347.385Z" transform="translate(-347.385 70.606)"/><path class="h" d="M992.564,536.259l3.936,19.187a15.882,15.882,0,0,1-20.844,18.168h0a15.882,15.882,0,0,1-9.941-19.488l5.294-17.867-47.9-140.111h40.716Z" transform="translate(-817.126 -168.56)"/><circle class="h" cx="37.123" cy="37.123" r="37.123" transform="translate(180.819 14.429)"/><path class="h" d="M932.306,323.37l-49.1-5.988c11.264-14.123,15.523-28.868,11.975-44.309l44.308,4.79Z" transform="translate(-707.769 -205.954)"/><path class="c" d="M1013.489,523.008l-116.16-26.346c-24.829-19.31-40.958-57.612-53.418-103.928-9.08-33.753,7.234-69.688,39.3-83.605q1.15-.5,2.323-.961l26.168-10.3,43.111,3.593,15.381,4.195a17.445,17.445,0,0,1,12.66,14.228C1003.53,395.764,1017.161,466.14,1013.489,523.008Z" transform="translate(-727.878 -198.419)"/><path class="c" d="M856.25,316.527H804.756l16.766-100.592,34.728,3.592Z" transform="translate(-703.564 -66.186)"/><path class="d" d="M999.818,884.63H968.683L903.417,655.3,878.232,884.63H841.745l-14.37-367.641c5.484-28.207,5.367-61.823,2.4-98.2-25.68-17.978-16.276-60.655-19.118-103.532a1.635,1.635,0,0,1,.372-1.15l16.548-8.6a1.618,1.618,0,0,1,2.837,1.185c.421,29.98-7.661,65.634,5.349,89.345,14.135-48.318,32.557-88.888,68.42-97.945a3.973,3.973,0,0,1,2.06.041l6.678,1.908a3.967,3.967,0,0,1,.954,7.206c-32.809,20.27-54.015,54.208-55.359,111.544,25.528,36.128,50.388,57.513,95.14,83.814a16.686,16.686,0,0,1,8.122,12.683Z" transform="translate(-673.491 -198.388)"/><path class="d" d="M907.656,306.872l-26.324-4.985-15.661-26.754a35.569,35.569,0,0,1,4.164-41.658h0A35.569,35.569,0,0,1,901.4,221.953l34.117,4.874a22.529,22.529,0,0,1,19.094,25.644l-22.98,3.91Z" transform="translate(-693.918 -221.595)"/><path class="d" d="M846.334,789.431H791.492a18.042,18.042,0,0,1-17.853-20.645l3.443-23.606,24.891-1.844,49.464,23.136a12.047,12.047,0,0,1,6.888,12.054h0a12.047,12.047,0,0,1-11.992,10.9Z" transform="translate(-484.534 -63.072)"/><path class="d" d="M941.854,789.431H887.012a18.042,18.042,0,0,1-17.853-20.645l3.443-23.606,24.891-1.844,49.464,23.136a12.047,12.047,0,0,1,6.888,12.054h0a12.047,12.047,0,0,1-11.993,10.9Z" transform="translate(-703.616 -63.072)"/><path class="i" d="M869.757,516.251l23.725,8.247a16.778,16.778,0,0,1,4.857,29.04h0a16.777,16.777,0,0,1-19.446.916l-21.625-13.918L783.43,465.481l-11.443-88.219a67.176,67.176,0,0,1,23.694-60.315h0L819.76,451.331Z" transform="translate(-528.151 -192.624)"/><path class="c" d="M889.974,429.123h-52.69l1.2-125.74h0a60.731,60.731,0,0,1,45.883,55.129Z" transform="translate(-599.161 -196.745)"/><ellipse class="h" cx="6.519" cy="7.823" rx="6.519" ry="7.823" transform="translate(222.866 48.77)"/></g><path class="c" d="M47.858,0h0C73.7,0,94.872,19.011,95.678,42.939l9.011,0a2.887,2.887,0,0,1,2.991,2.77V56.8a2.887,2.887,0,0,1-2.991,2.771H2.991A2.887,2.887,0,0,1,0,56.8V44.329C0,19.846,21.427,0,47.858,0Z" transform="translate(154.473 29.681) rotate(-16)"/></g></g></svg>