<svg xmlns="http://www.w3.org/2000/svg" width="403.349" height="328.858" viewBox="0 0 403.349 328.858"><defs><style>.a{fill:#3f3d56;}.b{opacity:0.1;}.c{fill:#f2f2f2;}.d{fill:#2f2e41;}.e{fill:#16214b;}.f{fill:#ffb8b8;}.g{fill:#a6c733;}</style></defs><path class="a" d="M624.356,639.681c7.054,25.113-60.845,82.489-180.307,50.459-96.183-25.788-180.307-36.711-180.307-50.459s80.726.673,180.307.673S620.638,626.445,624.356,639.681Z" transform="translate(-242.426 -370.759)"/><path class="b" d="M624.356,639.681c7.054,25.113-60.845,82.489-180.307,50.459-96.183-25.788-180.307-36.711-180.307-50.459s80.726.673,180.307.673S620.638,626.445,624.356,639.681Z" transform="translate(-242.426 -370.759)"/><path class="a" d="M624.356,623.3c7.054,25.113-60.845,56.923-180.307,24.893C347.866,622.4,263.743,637.047,263.743,623.3s80.726-24.893,180.307-24.893S620.638,610.063,624.356,623.3Z" transform="translate(-242.426 -354.377)"/><ellipse class="b" cx="14" cy="5" rx="14" ry="5" transform="translate(246 277)"/><ellipse class="b" cx="13.5" cy="5" rx="13.5" ry="5" transform="translate(303 277)"/><ellipse class="b" cx="45.5" cy="12.5" rx="45.5" ry="12.5" transform="translate(156 248)"/><path class="a" d="M627.349,366.569V143.44H224V366.569H410.12V396.4c-9.3,1.113-15.555,3.191-15.555,5.573,0,3.555,13.928,6.436,31.109,6.436s31.109-2.882,31.109-6.436c0-2.382-6.259-4.46-15.555-5.573V366.569Z" transform="translate(-224 -143.44)"/><rect class="c" width="361.512" height="199.985" transform="translate(20.918 7.817)"/><path class="b" d="M624.512,158.44s-150.183,15.555-177.538,75.628S263,357.969,263,357.969H624.512Z" transform="translate(-242.082 -150.394)"/><path class="d" d="M761.873,336.44V351.27h-55.51V337.346h-1.609v177.7h1.609V483.237h55.51v31.813h1.609V336.44Zm0,16.439v24.462h-55.51V352.879Zm-55.51,76.605V405.022h55.51v24.462Zm55.51,1.609v24.462h-55.51V431.093Zm-55.51-27.68V378.95h55.51v24.463Zm0,78.215V457.165h55.51v24.463Z" transform="translate(-446.893 -232.921)"/><path class="e" d="M672.651,343.023v2.223s-1.588.635-1.588,3.175-1.27,12.067-1.27,12.067,2.223,1.905,4.128,1.27a7.757,7.757,0,0,0,2.858-1.588l.318-9.844-1.27-2.54V343.34Z" transform="translate(-430.684 -235.973)"/><path class="e" d="M779.786,178.44s-5.522.635-5.522,3.175-4.418,12.067-4.418,12.067,7.732,1.905,14.359,1.27a61.12,61.12,0,0,0,9.94-1.588l1.1-9.844-4.418-2.54Z" transform="translate(-477.071 -159.667)"/><path class="f" d="M786.461,203.138V197.1s-6.668-13.337-1.27-13.337,6.033,12.067,6.033,12.067v8.574Z" transform="translate(-483.208 -162.137)"/><path class="f" d="M678.139,336.963s-3.493-1.905-4.128,0-2.54,6.033,0,6.351,5.081-1.905,5.081-1.905Z" transform="translate(-432.044 -232.771)"/><path class="d" d="M714.314,359.382s-1.912,2.525.862,27.162,1.176,42.575,6.442,42.329c0,0-1.375,5.342,3.1,5.539s6.52.508,6.868-.727.894-6.944-.322-6.887c0,0,.076,1.62.583-4.9s-.93-37.308.907-41.454l7.182,14.687s.322,6.887,1.688,10.071,4.262,21.725,4.262,21.725l-.273,2.855s9.8,1.167,10.128-.473a9.738,9.738,0,0,0-.227-4.861c-.443-.791-.443-.791.292-2.45a4.911,4.911,0,0,0,.216-4.07c-.462-1.2-1.691-27.529-1.691-27.529s-2.3-31.966-7.242-33.36S714.314,359.382,714.314,359.382Z" transform="translate(-451.027 -242.328)"/><path class="d" d="M724.84,495.659l-2.976,5.823s-5.149-1.587-3.919,3.025a81.049,81.049,0,0,0,14.777-.893s2.063.716,2.412-.519-1.268-5.422-2.483-5.365S724.84,495.659,724.84,495.659Z" transform="translate(-452.921 -306.74)"/><path class="d" d="M772.925,489.064s-2.9,7.443-1.666,7.792,12.248,1.458,13.077,1.825,4.9.583,5.191-1.866a2.983,2.983,0,0,0-2.177-3.146s-4.494-.6-5.9-4.6S772.925,489.064,772.925,489.064Z" transform="translate(-477.585 -302.862)"/><circle class="f" cx="8.482" cy="8.482" r="8.482" transform="translate(259.357 39.697)"/><path class="f" d="M715.033,238.8s2.232,11.607,1.339,13.84,12.5-.893,12.5-.893-2.679-11.607-2.232-14.286S715.033,238.8,715.033,238.8Z" transform="translate(-451.659 -186.605)"/><path class="d" d="M714.522,213.665a4.794,4.794,0,0,0-2.122.094,5.533,5.533,0,0,0-1.508.989,17.65,17.65,0,0,1-2.578,1.708,6.017,6.017,0,0,0-2.006,1.406,4.268,4.268,0,0,0-.566,1.072,12.842,12.842,0,0,0-.675,6.99,3.212,3.212,0,0,0,.3.96c.464.855,1.489,1.192,2.352,1.64a20.1,20.1,0,0,1,4.226,3.55,8.26,8.26,0,0,0,1.67,1.287c1.918,1.046,4.262.7,6.415.335a1.156,1.156,0,0,0,1.154-1.167l1.7-7.643a12.466,12.466,0,0,0,.436-3.476,9.892,9.892,0,0,0-2.485-5.744C719.244,214.129,716.6,213.885,714.522,213.665Z" transform="translate(-446.941 -175.963)"/><path class="g" d="M703.275,262.6s.635-4.446,4.446-4.763a31.413,31.413,0,0,0,6.351-1.27c.318,0,4.446.318,6.351,2.223,0,0,1.27,1.905,1.905.635s.635-1.905,1.905-1.27,1.27-1.905,3.493-1.588,7.939,14.607,7.939,14.607l-1.905,2.223s-2.54,17.147,1.905,24.451,6.351,15.242,1.905,16.83S702,330.551,703.275,321.66s.318-22.863-.953-23.181-8.256-25.4-8.256-25.4a9.863,9.863,0,0,1,5.716-7.3C704.863,263.55,703.275,262.6,703.275,262.6Z" transform="translate(-441.938 -195.875)"/><path class="g" d="M753.86,239.192l1.588-1.27s2.858,0,3.175-.635,1.905-.635,3.175-1.27-.318-1.588,1.27-2.223,1.588,0,1.588-1.588,4.128-3.175,4.446-5.081,3.493-10.8,3.493-10.8l6.033,1.905-1.588,11.432s0,5.716-2.858,9.526-9.209,13.337-12.384,13.654S753.86,239.192,753.86,239.192Z" transform="translate(-469.66 -177.234)"/><path class="g" d="M690.207,284.412,688.3,286s-.635,6.986-.635,7.3.635,4.128,0,4.446-1.905,6.668-1.588,6.986h0v.953l-4.446,6.986v6.668l10.479-6.668s6.033-.635,5.081-6.033S690.207,284.412,690.207,284.412Z" transform="translate(-436.173 -208.799)"/></svg>