<svg xmlns="http://www.w3.org/2000/svg" width="192.038" height="351.379" viewBox="0 0 192.038 351.379"><defs><style>.a{fill:#e6e6e6;}.b{fill:#a0616a;}.c{fill:#2f2e41;}.d{fill:#a6c733;}.e{fill:#cfcce0;}.f{fill:#7f77ff;}</style></defs><g transform="translate(0)"><ellipse class="a" cx="52.699" cy="6.312" rx="52.699" ry="6.312" transform="translate(0.026 338.755)"/><path class="b" d="M210.609,322.964s-9.558,19.115-24.329,23.46,35.624,0,35.624,0-2.607-13.9.869-15.64S210.609,322.964,210.609,322.964Z" transform="translate(-165.427 -281.119)"/><path class="c" d="M199.553,272.306c-.52-4.529,1.957-8.533,5.533-8.944.04,0,.08,0,.121-.006a5.221,5.221,0,0,0-1.349-.022c-3.576.41-6.053,4.414-5.533,8.944.514,4.478,3.765,7.785,7.294,7.463C202.592,279.3,200.006,276.257,199.553,272.306Z" transform="translate(-169.813 -263.3)"/><path class="c" d="M201.883,281.093c-4.318-1.462-6.883-5.411-5.728-8.82.013-.039.032-.074.046-.112a5.22,5.22,0,0,0-.6,1.211c-1.154,3.409,1.41,7.358,5.728,8.82,4.269,1.445,8.648-.084,9.862-3.413C209.507,281.328,205.651,282.369,201.883,281.093Z" transform="translate(-168.939 -265.947)"/><path class="b" d="M162.076,401.09l1.277,36.8,19.984,46.919s-5.213,24.329,5.213,23.46.869-24.328.869-24.328l-9.558-49.526-1.738-40.837Z" transform="translate(-159.009 -302.207)"/><circle class="b" cx="19.115" cy="19.115" r="19.115" transform="translate(39.968 16.648)"/><path class="d" d="M234.635,358.163,215.8,350.638s-3.753.575-14.179,1.444-15.056.049-15.056.049-22.306,7.771-21.437,12.115,10.426,72.985,14.771,69.51,6.951-4.344,6.951-4.344l47.788-4.344Z" transform="translate(-159.912 -289.383)"/><path class="d" d="M166.391,367.562h-2.828s-3.255,1.738-3.255,6.951-2.607,20.853-2.607,20.853h13.9Z" transform="translate(-157.703 -294.438)"/><path class="c" d="M196.489,370.832,185.994,353.88a2.372,2.372,0,0,0-2.311-1.105l-2.737.342a2.372,2.372,0,0,0-2,2.97l5.374,19.959s8.5,35.259.338,54.122l-.338,8.437s-7.82,26.066-6.082,46.05,2.607,37.362,2.607,37.362-4.344,13.033-2.607,17.378a10.162,10.162,0,0,1,.016,5.294,175.431,175.431,0,0,0-2.736,38.273l.114,4.221s-6.082,5.213-.869,6.082,21.722,2.607,21.722,2.607,3.476-6.082,1.738-6.951l5.213-28.673s8.689-12.164,7.82-19.984c0,0,2.607-13.033,0-19.115l.869-38.23,3.475,46.05-5.213,57.346s-6.951,5.213-2.607,6.951,31.279,10.427,31.279,6.082-1.738-6.082-1.738-6.082l11.3-117.3-6.082-48.657s-40.837-3.475-37.362-49.526c0,0,9.991-20.75,19.854-24.666a.567.567,0,0,0-.041-1.077l-4-1.144a.55.55,0,0,0-.333.006C218.915,351.491,203.851,356.926,196.489,370.832Z" transform="translate(-162.168 -289.454)"/><path class="c" d="M230.608,695.238l-.139,1.249a57.51,57.51,0,0,1-7.6,22.537c-1.945,3.344-3.435,7.121-2.69,10.1,1.738,6.951.869,9.558.869,9.558h13.9v-2.607l7.762,2.117a8.6,8.6,0,0,0,5.272-.162,4.737,4.737,0,0,0,3.475-4.562c0-2.172-1.659-4.193-3.6-5.813a25.807,25.807,0,0,1-8.472-12.946l-.1-.357,5.213-19.115Z" transform="translate(-176.303 -392.296)"/><path class="c" d="M179.2,695.858l-.139,1.249a57.51,57.51,0,0,1-7.6,22.537c-1.945,3.344-3.435,7.121-2.69,10.1,1.738,6.951.869,9.558.869,9.558h13.9V736.7l7.762,2.117a8.6,8.6,0,0,0,5.271-.162,4.737,4.737,0,0,0,3.476-4.562c0-2.172-1.659-4.194-3.6-5.813a25.807,25.807,0,0,1-8.472-12.946l-.1-.357,5.214-19.115Z" transform="translate(-160.949 -392.481)"/><path class="c" d="M231.632,305.505s13.693-7.911,19-8.39a8.726,8.726,0,0,0-.121-6.82s-.808-10.73-14.2-10.313c0,0-15.82-8.57-21.13-5.071s-17.136,20.287-12.141,30.321c0,0-5.774,2.905-6.049,1.341s-4.564,2.637,1.1,6.255c0,0-7.927,8.025-.221,13.047,0,0-.353-7.117,4.117-9.269s.558.108.558.108-7.652,9.589,3.777,13.321c0,0-4.265-4.857.025-9.058,0,0-1.329,9.811,6.574,10.844,0,0-4.076-5.827-1.932-7.928,0,0,.91,7.226,5.372,8.093l3.346.651,1.132-5.822s-3.182,7.437,4.257,7.876c0,0-3.6-11.272,1.165-17.9S231.632,305.505,231.632,305.505Z" transform="translate(-168.69 -266.517)"/><ellipse class="c" cx="8.254" cy="6.517" rx="8.254" ry="6.517" transform="matrix(0.604, -0.797, 0.797, 0.604, 26.315, 13.211)"/><path class="d" d="M217.2,277.771a9.649,9.649,0,0,0-4.334,3.278,9.828,9.828,0,0,0-1.9,4.351,9.649,9.649,0,0,0,4.334-3.278A9.828,9.828,0,0,0,217.2,277.771Z" transform="translate(-173.608 -267.622)"/><path class="e" d="M313.966,485.6l-1.1-1.473,8.011-6a6.769,6.769,0,0,0,2.653-6.234l-3.969-32.048a13.34,13.34,0,0,1,5.227-12.287l8.732-6.543a7.81,7.81,0,0,1,10.921,1.565l2.022,2.7-1.473,1.1-2.022-2.7a5.968,5.968,0,0,0-8.345-1.2l-8.732,6.543a11.5,11.5,0,0,0-4.5,10.588l3.968,32.049a8.613,8.613,0,0,1-3.375,7.933Z" transform="translate(-204.04 -309.934)"/><path class="e" d="M140.275,377.018l6.532-8.6-2.208-2.945-9.793,4.249-42.75,29.54,7.568,10.1Z" transform="translate(-27.492 -198.639)"/><rect class="a" width="20.507" height="74.011" rx="7.272" transform="translate(131.245 119.935) rotate(-36.846)"/><path class="f" d="M353.782,449.666c-.133-.471.627.46.371-.208C354.13,449.555,353.532,449.142,353.782,449.666Z" transform="translate(-216.242 -318.876)"/><path class="f" d="M368.854,428.5a.756.756,0,0,0,.082-.02l.089-.093Z" transform="translate(-220.762 -312.602)"/><path class="d" d="M402.005,471.162c-.109.132-.322.3-.418.246l.189-.34c-.014-.016-.026-.034-.039-.051l.036-.047-2.724-3.635.071,0-.125-.077-.345-.461c.044-.01.1,0,.182.085-.14-.428-.309-.24-.4-.63,0-.047.018-.041.05-.018l-.319-.281c.1.029.123-.179.243.051-.314-.7-.9-.834-.89-1.192l.052.039c-.524-.577-.394-.265-.574-.267l-.291-.388.074-.5-.232.047c-.058-.09-.172-.269-.08-.289-.356-.231-.034.11-.283.008-.153-.529-.925-1.082-.722-1.38-.241-.05.2.47-.225.1.2-.346-.432-.471-.579-.949.238,0,.425.419.278-.059-.426-.035-.494-.776-.781-1.057-.215.138-.6-.627-1.07-1.109a14.761,14.761,0,0,0-.938-1.639l.045-.011c-.278.058-.623-.482-.944-.823.134-.078.233-.047.44.113l-.263-.349a.947.947,0,0,1-.438-.326l.22-.027a8.373,8.373,0,0,1-1.231-1.48c-.115.05-.1.382-.251.42l-.238-.317a.179.179,0,0,1,.206.049c-.051-.047-.21-.146-.259-.28l.32.155c-.147-.316-.216-.061-.368-.288.114-.079-.042-.221.069-.255.052.048.1.225.2.276a1.829,1.829,0,0,1-.312-.769c-.047.069-.149.112-.3-.058-.357-.46.014-.259-.133-.574-.162-.055-.3-.412-.476-.3-.1-.137-.043-.22-.038-.306-.254-.187-.865-1.111-.838-.707l.035.071-.037-.034a26.2,26.2,0,0,1-1.8-2.444l.056-.04a11.28,11.28,0,0,0-1.188-1.259c-.1-.139-.144-.4-.033-.393a2.571,2.571,0,0,1-.7-.906c.366.288-.007-.188.347.316-.3-.5-.291-.673-.817-1.059.269.064-.084-.484-.292-.674l.143.4a5.975,5.975,0,0,1-.511-.69l.276-.021c-.486-1.122-1.673-1.427-1.836-2.437-.319-.154.3.586-.026.475a7.821,7.821,0,0,1-.479-1.251c-.346-.677-.692-.355-1.092-1.036-.006.13-.127.339-.542-.083-.3-.457-.124-.748.136-.511.084.1.1.167.075.18.13.123.3.288.24.06l-.109-.007c-.095-.268-.554-.866-.339-.806-.312-.284-.215-.06-.066.211-.325-.634-.655-.88-1.024-1.507.032.119.017.263-.05.171-.553-.91-.406-.279-.866-.832-.143-.4.33-.065-.189-.58-.2-.4.121-.207.28-.107a4.051,4.051,0,0,1-.856-1.367l.262.237a2.689,2.689,0,0,1-.361-.418l-.014.258c-.1-.18-.2-.319-.144-.357-.213-.1-.125.295-.494.051-.1-.268-.569-.608-.448-.815.452.729.121-.209.583.349a1.594,1.594,0,0,1-.305-.414c0-.039.054,0,.1.033-.332-.773-.425-.151-.929-.832.164.011.071-.3-.033-.393.2.275-.068.255-.332.062-.248-.493-.412-.429-.573-.664l.158.287c-.166-.013-.315-.241-.574-.52.058-.084.26.235.213.1-.427-.205-.389-.9-.858-1.277-.1-.268.171-.161.074-.386-.523-.429-.29-.672-.811-1.145-.015.26.039.263-.383-.028l.775.838-.632-.437c.2.276.518.516.618.7-.317-.2-.263-.192-.276.022-.08-.526-.675-.656-.864-1.192l.341-.235c-.341-.763-1.038-1.031-1.59-1.94l.146.315c-.217-.015-.41-.509-.669-.743.13-.058.042-.259.023-.428-.071.076-.457-.625-.736-.536l-.137-.487c-.421-.686-.987-.659-1.536-1.47.116.029.113-.079.134-.146s.073-.084.36.211c-.261-.35-.5-.707-.517-.575a.613.613,0,0,0-.07-.123l-.049-.063c-.018-.018-.041.034-.062.051l-.3.365a1.942,1.942,0,0,1-.555.558c-.1.18-.066.352-.351.615-.049.009-.042-.054-.042-.054.013.086-.307.422-.008.35-.9.27-1.693,1.64-2.491,1.85-.411.432-.92.94-1.326,1.3,0-.054-.044-.053.043-.109-.648.388-.087.6-.834,1.039-.477.105.269-.381.007-.273-.381-.275-.745.7-1.361.85l.091-.107c-.433.153-.722.8-1.308,1.2,0,0,0-.053-.038-.057a6.732,6.732,0,0,1-1.463,1.545c.071-.269.2-.257-.013-.329-.236.2.244.184-.229.581-.219.036-.63.223-.789.094l.467-.339c-.382-.031-.608.433-.885.567l-.029-.112c-.708.527-.573.755-1.383,1.258l.127.017c-.294.512-.452.1-.787.547l-.278-.154a13.446,13.446,0,0,1-1.408,1.194,8.682,8.682,0,0,1,1.092-1.132,3.884,3.884,0,0,0-1.069.8c.106-.091.22-.237.358-.268a3.308,3.308,0,0,1-1.29,1.086c-.05-.275-.64-.009-1.354.34l-.27.132-.138.067c-.044.023-.117.039-.058.086.11.157.216.313.309.461a2.155,2.155,0,0,1,.347.774l.449.511c.1.114.194.232.286.352.183.242.354.5.524.758.341.525.679,1.081,1.114,1.635.035-.65.256.322.547,0,.215.242.285.346.283.388l-.026-.064.027.069h0l.39.947c.041.263-.263-.193-.322-.111.4.594.035.35.229.8.064-.17.325.068.524.43l-.187-.58c.784.666.232.91,1.019,1.583l-.3-.175c.375.367,1.145,1.533,1.726,1.733.015.1-.006.271-.167.106.7,1.023,1.948,1.988,2.356,2.887l-.14-.012c.163.167.4.2.488.5-.044.014-.14-.012-.08.078a2.362,2.362,0,0,1,.65.663l-.251-.139c.615,1.05,1.343,1.313,2.008,2.081-.249.183.242,1,.486,1.415l-.045.013a27.214,27.214,0,0,0,2.518,2.731c.217.849,1.532,2.278,2.161,3.432-.074-.193.212-.118.375.048.133.282.677.547.422.678l-.061-.09c-.084.351.351.808.639,1.2l.345-.157c.337,1.348,2.172,2.568,2.2,3.417.26.192.488.5.746.689l-.169.106a18.164,18.164,0,0,0,1.383,1.892l-.243-.088c.348.486.911.26,1.25.694l-.138.31a12.378,12.378,0,0,0,1.885,2.494c-.045.013-.132.039-.243-.088.288.4.977,1.639,1.2,1.252-.2.169.624.876,1.055,1.256l-.209.047a2.168,2.168,0,0,1,1,.691c.074.141-.043.2-.128.007.232.481.393.216.69.786l-.242-.115a1.047,1.047,0,0,0,.633.516c.266.224.574.848.48,1.017a.783.783,0,0,1,.572.428c-.028.074-.13.007-.181-.028.434.8.985.936,1.2,1.547a.15.15,0,0,0-.031.154c-.425-.576-.763-1.044-.719-1.009-.144.108.177.59-.3.371a4.915,4.915,0,0,1,1.369,1.25.258.258,0,0,1-.005.1l-.051-.035a.866.866,0,0,0,.237.268,2.859,2.859,0,0,0,.237.406c-.079.143.333.579.5.814.143-.137.344.184.263-.2.016.045-.052-.029-.173-.178a.636.636,0,0,0-.09-.086l.026.005-.44-.566a.99.99,0,0,1,.531.583c.19.042.392.095.5.131.017.481.354,1.178.282,1.365.308.319.634.723.961,1.075a6.314,6.314,0,0,0,.5.486,1.836,1.836,0,0,0,.574.417.636.636,0,0,1,.181.312c.028.1.072.092.123.121a.675.675,0,0,1-.159.07l-.1-.114a.7.7,0,0,0-.179-.158c.139.092.233.432.5.218l.7-.284a2.342,2.342,0,0,0,.462-.234c.1-.07.165-.14.17-.211.635-.127-.25.356.552-.009l-.082.118c1.792-.269,2.316-1.69,4.22-2.151-.133.036-.2.054-.243.03,2.044-.861,3.661-2.586,5.526-3.691.521-.336.452-.517.645-.857l.24.067.3-.609c.517-.751,1.489-.726,2.028-1.8l-.206.01c.3-.278.8-1.024.881-.862a.256.256,0,0,1,.139-.269l.092.063c.174-.294.334-.6.5-.9.554-.555.273.382,1-.506C401.907,471.869,402.162,471.08,402.005,471.162Zm-3.768-4.964a.182.182,0,0,1,.006.06l-.139-.186c.044.041.086.079.133.126Zm-17.012,14.145.033,0a.244.244,0,0,1-.125,0c-.137-.137-.145-.211-.128-.257.057.071.126.151.22.254Z" transform="translate(-214.774 -311.05)"/><path class="f" d="M369.449,427.617l.217.1C369.793,427.547,369.657,427.335,369.449,427.617Z" transform="translate(-220.939 -312.331)"/><path class="f" d="M355.226,438.716a4.225,4.225,0,0,0,.613-.3A.744.744,0,0,0,355.226,438.716Z" transform="translate(-216.692 -315.598)"/><path class="b" d="M247.556,397.373l1.277,36.8,19.984,46.919s-5.213,24.328,5.213,23.46.869-24.328.869-24.328L265.342,430.7,263.6,389.862Z" transform="translate(-184.537 -301.097)"/><path class="d" d="M96.647,226.748l.478-3.282,3.867,1.545,12.164,19.115-25.2,13.033Z" transform="translate(-26.268 -156.23)"/></g></svg>