<svg xmlns="http://www.w3.org/2000/svg" width="655.097" height="510.747" viewBox="0 0 655.097 510.747"><defs><style>.a{fill:#e6e6e6;}.b{fill:#ccc;}.c{fill:#a6c733;}.d{fill:#ffb8b8;}.e{fill:#2f2e41;}.f{fill:#3f3d56;}.g{fill:#fff;}.h{fill:#a0616a;}.i{fill:#f2f2f2;}</style></defs><g transform="translate(-89.602 -1893.295)"><path class="a" d="M748.166,380.991H730.845a2.231,2.231,0,0,1-2.225-2.028l-3.467-35.707h28.7l-3.466,35.707A2.231,2.231,0,0,1,748.166,380.991Z" transform="translate(-226.129 1675.072)"/><path class="b" d="M754.215,348.761H725.6a2.243,2.243,0,0,1-2.235-2.246v-5.391a2.243,2.243,0,0,1,2.235-2.246h28.613a2.243,2.243,0,0,1,2.235,2.246v5.391A2.243,2.243,0,0,1,754.215,348.761Z" transform="translate(-226.531 1674.059)"/><path class="c" d="M591.167,348.7H522.549v-20.93c21.683-15.162,40.895-13.844,66.167,1.231Z" transform="translate(-186.212 1668.947)"/><path class="d" d="M284.608,413.89H269.586l-2.246-58.22h17.271Z" transform="translate(35.839 1975.52)"/><path class="e" d="M521.614,660.264l-48.437,0v-.616A18.9,18.9,0,0,1,492.03,640.7h29.585Z" transform="translate(-197.336 1743.777)"/><path class="d" d="M350.487,413.89h15.022l2.246-58.22H350.484Z" transform="translate(54.573 1975.52)"/><path class="e" d="M575.507,640.7h29.585a18.9,18.9,0,0,1,18.853,18.944v.615l-48.438,0Z" transform="translate(-174.279 1743.777)"/><path class="e" d="M598.743,678.788a5.545,5.545,0,0,1-5.384-4.337L556.125,511.27a1.788,1.788,0,0,0-1.794-1.445h-.009a1.789,1.789,0,0,0-1.789,1.463L518.341,673.369a5.547,5.547,0,0,1-5.394,4.391H496.659a5.529,5.529,0,0,1-5.5-5.867l12.132-205.43,4.882-1.451h.092l95.891.843,20.423,205.2a5.53,5.53,0,0,1-5.044,6.06l-20.345,1.651Q598.962,678.788,598.743,678.788Z" transform="translate(-193.288 1703.16)"/><ellipse class="d" cx="30.095" cy="30.239" rx="30.095" ry="30.239" transform="translate(335.76 1919.654)"/><path class="f" d="M538.416,522.522a51.712,51.712,0,0,1-15.6-2.205,34.471,34.471,0,0,1-20.877-17.7,5.571,5.571,0,0,1-.41-4.13c3.319-11.382,19.359-70.548,9.125-117.582A50.041,50.041,0,0,1,517.71,342.6a48.976,48.976,0,0,1,31.769-21.47h0c1.7-.333,3.4-.606,5.072-.813a48.665,48.665,0,0,1,39.526,13.067,50.383,50.383,0,0,1,15.7,39.842l-7.865,126.817a5.493,5.493,0,0,1-2.938,4.559C589.919,509.37,562.708,522.522,538.416,522.522Z" transform="translate(-190.997 1669.623)"/><path class="e" d="M586.984,274.037a36.922,36.922,0,0,0-40.5-22.88l9.489,7.7c-11.789.4-24.2-.449-32.617,7.854,2.68-.075,6.192,5.685,8.872,5.61-5.01.1-9.554,3.637-11.767,8.154A23.33,23.33,0,0,0,519.1,295.25c.99,4.936,8.538,16.5,10.57,21.1-.349-12.029,23.219-40.721,34.728-37.726a31.6,31.6,0,0,0-14.582,11.124,42.59,42.59,0,0,1,25.365-4.17,17.865,17.865,0,0,0,6.047.34,7.428,7.428,0,0,0,4.377-11.855Z" transform="translate(-187.13 1653.598)"/><path class="c" d="M541.418,514.154a5.5,5.5,0,0,1-2.208-.468l-57.1-25.043a5.511,5.511,0,0,1-3.129-6.5l37.8-143.481a20.655,20.655,0,0,1,25.659-14.655l15.115,4.334-10.64,180.592a5.56,5.56,0,0,1-2.63,4.4A5.453,5.453,0,0,1,541.418,514.154Z" transform="translate(-196.072 1670.377)"/><path class="c" d="M630.6,482.145l-2.512-9.517-3.639-13.839-1.752-6.636-3.639-13.8L592.8,338.662a20.632,20.632,0,0,0-25.658-14.651l-15.108,4.334,7.487,127.022.772,13.26.49,8.36V477l.784,13.186,1.1,18.751a5.5,5.5,0,0,0,7.707,4.752l57.1-25.042a5.506,5.506,0,0,0,3.125-6.5Z" transform="translate(-179.569 1670.376)"/><path class="b" d="M393.167,188.782l-62.4,16.473L329.99,192l59.54-17.015Z" transform="translate(49.956 1933.748)"/><path class="b" d="M398.327,205.419,331.8,222.975l-.783-13.186v-.012l63.668-18.2Z" transform="translate(50.188 1937.585)"/><path class="b" d="M319.578,194.673l-.773,13.014-61.2-18.32,3.589-13.617Z" transform="translate(33.645 1933.926)"/><path class="b" d="M319.285,212.453,256.83,192.2l-3.59,13.654,65.285,19.539Z" transform="translate(32.662 1937.729)"/><path class="d" d="M488.271,483.11a13.241,13.241,0,0,0,8.631-18.333l29.361-92.617-20.82-4.381-26.919,90.8a13.295,13.295,0,0,0,9.747,24.527Z" transform="translate(-197.689 1680.681)"/><path class="f" d="M522.479,334.364h0c5.978.613,9.341,7.367,7.855,15.777L523.2,390.5c-.535,3.025-3.013,5.42-5.072,4.9L494,389.34c-1.857-.466-2.54-3.117-1.488-5.768L507,347.063C510.143,339.134,516.684,333.77,522.479,334.364Z" transform="translate(-193.091 1672.945)"/><path class="c" d="M553.759,241.75h0a39.288,39.288,0,0,1,39.179,38.162l7.383,0a2.457,2.457,0,0,1,2.451,2.462v9.85a2.457,2.457,0,0,1-2.451,2.462H517a2.457,2.457,0,0,1-2.451-2.462V281.148a39.3,39.3,0,0,1,39.211-39.4Z" transform="translate(-188.014 1651.545)"/><path class="a" d="M554.6,446.641h-17.32a2.231,2.231,0,0,1-2.225-2.028l-3.467-35.707h28.7l-3.467,35.706a2.231,2.231,0,0,1-2.225,2.028Z" transform="translate(-184.174 1690.189)"/><path class="b" d="M560.653,414.411H532.04a2.243,2.243,0,0,1-2.235-2.246v-5.391a2.243,2.243,0,0,1,2.235-2.246h28.613a2.243,2.243,0,0,1,2.235,2.246v5.391a2.244,2.244,0,0,1-2.236,2.246Z" transform="translate(-184.577 1689.177)"/><path class="d" d="M546.229,435.438a12.846,12.846,0,0,1,1.993.393l46.129-39.748-2.7-14.584,21.373-6.966,7.27,25.351a9.872,9.872,0,0,1-4.178,11.05L557.7,448.081a12.852,12.852,0,1,1-11.471-12.643Z" transform="translate(-184.087 1682.242)"/><path class="f" d="M584.877,337.133h0c6.386-1.8,12.767,3.088,14.9,11.408l10.26,39.928c.769,2.993-.725,6.174-3.058,6.511l-27.333,3.95c-2.1.3-3.956-1.863-4.033-4.717l-1.061-39.291C574.327,346.389,578.687,338.875,584.877,337.133Z" transform="translate(-174.495 1673.51)"/><path class="b" d="M888.288,560.276a206.555,206.555,0,0,1-29.5-55.319,5.308,5.308,0,0,1,2.49-6.377L904.342,475.4a5.181,5.181,0,0,1,4.565-.186,5.31,5.31,0,0,1,3.016,3.551,126.177,126.177,0,0,0,27.5,51.575,5.334,5.334,0,0,1,1.272,4.49,5.226,5.226,0,0,1-2.683,3.716l-43.064,23.185A5.256,5.256,0,0,1,888.288,560.276Z" transform="translate(-196.082 1705.475)"/><path class="g" d="M890.55,557.364a1.586,1.586,0,0,0,1.988.412L935.6,534.591a1.533,1.533,0,0,0,.8-1.1,1.628,1.628,0,0,0-.4-1.389A129.889,129.889,0,0,1,907.691,479a1.622,1.622,0,0,0-.929-1.1,1.522,1.522,0,0,0-1.361.057l-43.064,23.185a1.6,1.6,0,0,0-.759,1.892,202.861,202.861,0,0,0,28.972,54.329Z" transform="translate(-195.406 1706.169)"/><path class="b" d="M903.589,503.728l-23.455,10.4a3.673,3.673,0,0,1-4.847-1.887l-.58-1.32a3.7,3.7,0,0,1,1.879-4.871l23.454-10.4a3.673,3.673,0,0,1,4.847,1.887l.58,1.32a3.7,3.7,0,0,1-1.878,4.871Z" transform="translate(-192.501 1710.23)"/><path class="b" d="M910.589,516.728l-23.455,10.4a3.673,3.673,0,0,1-4.847-1.887l-.58-1.32a3.7,3.7,0,0,1,1.878-4.871l23.455-10.4a3.673,3.673,0,0,1,4.847,1.887l.58,1.32a3.7,3.7,0,0,1-1.878,4.871Z" transform="translate(-190.924 1713.235)"/><path class="h" d="M862.611,534.583a13.265,13.265,0,0,1-2.527-20.121l-9.891-141.042,28.492,2.776.783,138.123a13.346,13.346,0,0,1,.53,17.656,13.191,13.191,0,0,1-17.386,2.609Z" transform="translate(-197.955 1682.045)"/><path class="f" d="M856.263,422.861a5.525,5.525,0,0,1-2.278-4.187L851.9,380.659a15.187,15.187,0,0,1,29.832-4.835l9.171,33.987a5.549,5.549,0,0,1-3.879,6.8l-26.087,7.107a5.472,5.472,0,0,1-4.671-.855Z" transform="translate(-197.576 1679.995)"/><path class="h" d="M591.753,414.34H576.73l-7.146-58.22h22.171Z" transform="translate(18.373 1975.685)"/><path class="e" d="M570.013,399.9h28.971v18.329H551.772A18.285,18.285,0,0,1,570.013,399.9Z" transform="translate(14.36 1985.807)"/><path class="h" d="M637.753,414.34H622.73l-7.146-58.22h22.171Z" transform="translate(28.738 1975.685)"/><path class="e" d="M616.013,399.9h28.972v18.329H597.772A18.285,18.285,0,0,1,616.013,399.9Z" transform="translate(24.725 1985.807)"/><path class="e" d="M820.356,655.133l-16.537-.792a5.528,5.528,0,0,1-5.252-5.495c-4.36-67.616-10.4-140.118-1.154-168.127A5.553,5.553,0,0,1,799.3,476.5a5.5,5.5,0,0,1,4.415-1.307l66.16,9.65a5.5,5.5,0,0,1,4.722,5.442c8.447,33.164,8.829,93.3,8.509,155.787a5.528,5.528,0,0,1-5.514,5.582H859.767a5.5,5.5,0,0,1-5.447-4.68l-11-70.26a4.286,4.286,0,0,0-8.495.158l-8.732,73.382a5.544,5.544,0,0,1-5.476,4.883Q820.487,655.141,820.356,655.133Z" transform="translate(-210.939 1705.561)"/><path class="f" d="M831.44,519.547c-14.581-8.14-25.973-10.279-31.466-10.829a5.407,5.407,0,0,1-3.742-2.06,5.532,5.532,0,0,1-1.141-4.188l15.853-118.256a40.878,40.878,0,0,1,23.727-31.958,39.424,39.424,0,0,1,38.47,3.03q.815.545,1.6,1.112a40.95,40.95,0,0,1,15.484,42.566c-9.721,39.958-13.06,105.466-13.631,118.193a5.5,5.5,0,0,1-3.576,4.931,55.008,55.008,0,0,1-18.657,3.338,46.538,46.538,0,0,1-22.92-5.878Z" transform="translate(-210.382 1676.312)"/><ellipse class="h" cx="30.095" cy="30.239" rx="30.095" ry="30.239" transform="translate(604.222 1952.031)"/><path class="e" d="M863.239,346.084c-5.614,6.009-16.041,2.783-16.773-5.426a9.971,9.971,0,0,1,.013-1.915c.378-3.636,2.468-6.938,1.968-10.777a5.666,5.666,0,0,0-1.029-2.646c-4.474-6.02-14.976,2.692-19.2-2.757-2.589-3.341.454-8.6-1.533-12.337-2.622-4.929-10.389-2.5-15.26-5.2-5.419-3-5.1-11.358-1.528-16.44,4.351-6.2,11.978-9.5,19.511-9.981s15.014,1.569,22.046,4.323c7.99,3.129,15.914,7.453,20.831,14.513,5.98,8.585,6.555,20.127,3.565,30.166C874.033,333.717,867.824,341.178,863.239,346.084Z" transform="translate(-207.624 1660.11)"/><path class="c" d="M892.541,359.888c-.527-2.487-5.048-5.885-11.518-8.655a70.939,70.939,0,0,0-64.329,5.54,3.043,3.043,0,0,0-2.806,2.4l-21.762,96.71-2.831,12.6-1.875,8.335-2.831,12.558-1.507,6.71a3.085,3.085,0,0,0,2.72,3.755l93.97,8.151c.086,0,.184.012.269.012a3.07,3.07,0,0,0,3.039-2.881l.895-13.678.956-14.627.416-6.341.943-14.59,6.261-95.836v-.086Z" transform="translate(-213.093 1675.705)"/><path class="h" d="M751.231,364.1a13.023,13.023,0,0,1,.293,2.019l52.637,30.511,12.794-7.4,13.639,17.941-27.37,19.6-60.05-47.6a12.82,12.82,0,0,1-14.165-3.636A12.888,12.888,0,1,1,751.231,364.1Z" transform="translate(-225.971 1677.584)"/><path class="f" d="M791.3,393.279a5.534,5.534,0,0,1,1.585-4.5l26.79-26.924a15.139,15.139,0,0,1,20.3-1.072,15.315,15.315,0,0,1,3.185,20.175L824.084,410.5a5.5,5.5,0,0,1-7.627,1.632l-22.674-14.785A5.523,5.523,0,0,1,791.3,393.279Z" transform="translate(-211.231 1678.338)"/><path class="b" d="M656.986,193.5l-.943,14.59L559.99,206.1l2.831-12.6Z" transform="translate(16.211 1938.089)"/><path class="b" d="M656.493,210.5l-.957,14.626-99.386-2.068,2.832-12.558Z" transform="translate(15.346 1942.019)"/><path class="c" d="M845.062,266.25h0a39.288,39.288,0,0,0-39.179,38.163l-7.383,0a2.457,2.457,0,0,0-2.451,2.462v9.85a2.457,2.457,0,0,0,2.451,2.462h83.322a2.457,2.457,0,0,0,2.451-2.462V305.648a39.3,39.3,0,0,0-39.21-39.4Z" transform="translate(-210.154 1657.269)"/><path class="a" d="M351.678,608.608a47.685,47.685,0,0,1-46.22-8.181c-16.189-13.653-21.265-36.146-25.395-56.973l-12.216-61.6,25.574,17.694c18.392,12.724,37.2,25.857,49.932,44.287s18.293,43.59,8.061,63.533" transform="translate(-129.601 1705.01)"/><path class="i" d="M341.214,668.5c2.589-18.945,5.25-38.133,3.434-57.281-1.613-17.005-6.776-33.615-17.288-47.233A78.33,78.33,0,0,0,307.3,545.714c-2.006-1.272-3.853,1.922-1.855,3.189a74.617,74.617,0,0,1,29.406,35.651c6.4,16.362,7.43,34.2,6.327,51.579-.667,10.511-2.081,20.953-3.506,31.382a1.915,1.915,0,0,0,1.284,2.272,1.848,1.848,0,0,0,2.261-1.29Z" transform="translate(-121.324 1719.706)"/><path class="a" d="M333.5,625.354a35.185,35.185,0,0,1-30.7,15.921c-15.541-.741-28.5-11.64-40.16-21.987l-34.5-30.6,22.831-1.1c16.419-.789,33.261-1.526,48.9,3.561s30.061,17.331,32.92,33.6" transform="translate(-138.546 1729.325)"/><path class="i" d="M354.5,664.964c-12.459-22.15-26.91-46.768-52.731-54.636a58.571,58.571,0,0,0-22.18-2.3c-2.355.2-1.767,3.851.584,3.647a54.469,54.469,0,0,1,35.4,9.409c9.98,6.826,17.751,16.315,24.328,26.379,4.029,6.164,7.637,12.59,11.246,19.006,1.153,2.051,4.525.571,3.358-1.5Z" transform="translate(-127.293 1734.128)"/><path class="b" d="M875.685,658.712H258.719c-.479,0-.867-.551-.867-1.231s.388-1.231.867-1.231H875.685c.479,0,.867.551.867,1.231S876.164,658.712,875.685,658.712Z" transform="translate(-131.853 1745.329)"/></g></svg>