<svg xmlns="http://www.w3.org/2000/svg" xmlns:xlink="http://www.w3.org/1999/xlink" width="528.618" height="376.417" viewBox="0 0 528.618 376.417"><defs><style>.a{fill:none;stroke:#ff9800;stroke-miterlimit:10;stroke-width:4px;stroke-dasharray:12;opacity:0.3;}.b{fill:url(#a);}.c{fill:#009688;}.d{fill:#795548;}.e{fill:url(#b);}.f{fill:url(#c);}.g{fill:#00897b;}.h{fill:url(#e);}.i{fill:url(#f);}.j{fill:url(#g);}.k{fill:#fff;}.l{fill:#dbe0dc;}.m{fill:#a6c733;}.n{fill:#f2f2f2;}.o{fill:lime;}.p{fill:#6c63ff;opacity:0.2;}.q{fill:url(#l);}.r{fill:url(#p);}.s{fill:url(#q);}.t{fill:url(#r);}</style><linearGradient id="a" x1="0.5" y1="1" x2="0.5" gradientUnits="objectBoundingBox"><stop offset="0" stop-color="gray" stop-opacity="0.251"/><stop offset="0.54" stop-color="gray" stop-opacity="0.122"/><stop offset="1" stop-color="gray" stop-opacity="0.102"/></linearGradient><linearGradient id="b" x1="0.5" y1="1" x2="0.5" y2="0" xlink:href="#a"/><linearGradient id="c" x1="0.5" y1="1" x2="0.5" y2="0" xlink:href="#a"/><linearGradient id="e" x1="0.5" y1="1" x2="0.5" y2="0" xlink:href="#a"/><linearGradient id="f" x1="0.501" y1="1" x2="0.501" y2="0" xlink:href="#a"/><linearGradient id="g" x1="0.5" y1="1" x2="0.5" y2="0" xlink:href="#a"/><linearGradient id="l" x1="0.5" y1="1" x2="0.5" y2="0" xlink:href="#a"/><linearGradient id="p" x1="0.5" y1="1" x2="0.5" y2="0" xlink:href="#a"/><linearGradient id="q" x1="0.501" y1="1" x2="0.501" y2="0" xlink:href="#a"/><linearGradient id="r" x1="0.5" y1="1" x2="0.5" gradientUnits="objectBoundingBox"><stop offset="0" stop-color="#b3b3b3" stop-opacity="0.251"/><stop offset="0.54" stop-color="#b3b3b3" stop-opacity="0.102"/><stop offset="1" stop-color="#b3b3b3" stop-opacity="0.051"/></linearGradient></defs><g transform="translate(0.01 0.013)"><ellipse class="a" cx="123.029" cy="146.726" rx="123.029" ry="146.726" transform="translate(22.777 35.512)"/><circle class="a" cx="123.029" cy="123.029" r="123.029" transform="translate(224.036 11.177)"/><g transform="translate(380.743 133.498)"><path class="b" d="M905.7,481.982a30.419,30.419,0,0,1-8.26-20.814A30.9,30.9,0,0,1,912.6,434.757a17.934,17.934,0,0,1-3.164-10.14c0-10.2,8.558-18.468,19.117-18.468a19.029,19.029,0,0,1,18.34,13.3,28.682,28.682,0,0,1,24.389-13.3c15.73,0,28.486,12.323,28.486,27.519a26.628,26.628,0,0,1-1.744,9.5c.575-.041,1.156-.088,1.744-.088,12.627,0,22.862,9.89,22.862,22.091a21.56,21.56,0,0,1-.115,2.231,27.434,27.434,0,0,1,17.17,25.2c0,15.149-12.708,27.431-28.391,27.431a29.51,29.51,0,0,1-4.914-.419c.081.912.135,1.839.135,2.771,0,17-14.263,30.784-31.859,30.784a32.447,32.447,0,0,1-18.144-5.482,24.186,24.186,0,0,1-15.406,5.482c-13.148,0-23.8-10.3-23.8-22.984,0-.548.047-1.088.088-1.629H917.3c-14.074,0-25.485-11.025-25.485-24.626A24.538,24.538,0,0,1,905.7,481.982Z" transform="translate(-891.82 -406.149)"/></g><path class="c" d="M909.8,483.377a29.135,29.135,0,0,1-7.9-19.921A29.574,29.574,0,0,1,916.4,438.174a17.163,17.163,0,0,1-3.028-9.727c0-9.761,8.193-17.677,18.3-17.677a18.251,18.251,0,0,1,17.575,12.722,27.459,27.459,0,0,1,23.3-12.715c15.061,0,27.263,11.8,27.263,26.363a25.5,25.5,0,0,1-1.67,9.092c.554-.041,1.109-.081,1.67-.081,12.087,0,21.882,9.464,21.882,21.145a20.69,20.69,0,0,1-.115,2.136,26.29,26.29,0,0,1,16.433,24.119c0,14.5-12.168,26.255-27.175,26.255a28.247,28.247,0,0,1-4.734-.4c.083.872.131,1.758.131,2.65,0,16.271-13.655,29.459-30.494,29.459a31.1,31.1,0,0,1-17.366-5.246,23.153,23.153,0,0,1-14.689,5.259c-12.58,0-22.781-9.856-22.781-22.01,0-.527.041-1.041.081-1.561h-.081c-13.472,0-24.4-10.552-24.4-23.572a23.49,23.49,0,0,1,13.29-21.01Z" transform="translate(-512.596 -274.278)"/><line class="d" y2="163.751" transform="translate(448.889 198.222)"/><rect class="e" width="8.916" height="163.744" transform="translate(444.279 198.222)"/><rect class="d" width="4.935" height="163.744" transform="translate(446.422 198.222)"/><line class="d" x1="29.243" y1="29.824" transform="translate(420.146 196.984)"/><rect class="d" width="4.935" height="41.769" transform="matrix(0.714, -0.7, 0.7, 0.714, 418.393, 198.75)"/><line class="d" y1="21.267" x2="30.311" transform="translate(449.39 235.692)"/><rect class="d" width="37.03" height="4.935" transform="translate(447.97 255.027) rotate(-35.06)"/><g transform="translate(324.136 135.488)"><path class="f" d="M937.443,485.419a32.271,32.271,0,0,0-6.658-48.265,19.083,19.083,0,0,0,3.056-10.39,18.407,18.407,0,0,0-36.165-5.286A27.371,27.371,0,0,0,874.13,407.89c-15.189,0-27.506,12.594-27.506,28.128a28.639,28.639,0,0,0,1.683,9.707c-.554-.04-1.115-.088-1.683-.088-12.168,0-22.078,10.14-22.078,22.578,0,.771.041,1.528.115,2.278a28.06,28.06,0,0,0-16.582,25.755c0,15.487,12.276,28.04,27.411,28.04a26.942,26.942,0,0,0,4.732-.426c-.081.933-.128,1.879-.128,2.832,0,17.373,13.77,31.46,30.764,31.46a30.141,30.141,0,0,0,17.515-5.6,22.577,22.577,0,0,0,14.872,5.6,23.248,23.248,0,0,0,22.984-23.5c0-.561-.047-1.115-.081-1.67h.081c13.594,0,24.606-11.269,24.606-25.167A25.228,25.228,0,0,0,937.443,485.419Z" transform="translate(-808.079 -407.89)"/></g><path class="g" d="M936.006,487.48a30.291,30.291,0,0,0-6.253-45.291,17.913,17.913,0,0,0,2.866-9.754,17.264,17.264,0,0,0-33.921-4.969,25.688,25.688,0,0,0-22.1-12.756c-14.256,0-25.816,11.823-25.816,26.4a26.885,26.885,0,0,0,1.582,9.112c-.521-.04-1.048-.081-1.582-.081a20.943,20.943,0,0,0-20.719,21.192,20.239,20.239,0,0,0,.108,2.136,26.363,26.363,0,0,0-15.548,24.18c0,14.534,11.492,26.316,25.735,26.316a25.293,25.293,0,0,0,4.455-.4c-.074.879-.122,1.764-.122,2.657,0,16.311,12.925,29.527,28.871,29.527A28.29,28.29,0,0,0,890,550.5a21.192,21.192,0,0,0,13.959,5.259,21.822,21.822,0,0,0,21.571-22.064c0-.527-.041-1.048-.074-1.568h.074c12.756,0,23.1-10.579,23.1-23.626A23.659,23.659,0,0,0,936.006,487.48Z" transform="translate(-486.063 -274.842)"/><rect class="f" width="6.706" height="166.82" transform="translate(421.414 198.161)"/><rect class="d" width="3.373" height="164.474" transform="translate(405.486 200.506)"/><rect class="d" width="40.748" height="3.373" transform="translate(404.164 228.958) rotate(-47.2)"/><rect class="d" width="3.373" height="35.753" transform="matrix(0.596, -0.803, 0.803, 0.596, 396.031, 240.451)"/><g transform="translate(340.101 229.086)"><path class="h" d="M803.774,569.956a20.746,20.746,0,0,1-5.624-14.2,21.057,21.057,0,0,1,10.329-17.995,12.222,12.222,0,0,1-2.156-6.929,12.815,12.815,0,0,1,13.026-12.587,12.972,12.972,0,0,1,12.5,9.058,19.55,19.55,0,0,1,16.622-9.058c10.721,0,19.414,8.4,19.414,18.752a18.151,18.151,0,0,1-1.19,6.476c.392,0,.784-.061,1.19-.061a15.308,15.308,0,0,1,15.548,15.054,14.723,14.723,0,0,1-.081,1.521,18.691,18.691,0,0,1,11.7,17.177c0,10.322-8.659,18.691-19.347,18.691a20.116,20.116,0,0,1-3.38-.284c.061.622.095,1.251.095,1.886,0,11.586-9.721,20.956-21.713,20.956a22.132,22.132,0,0,1-12.31-3.671,16.48,16.48,0,0,1-10.5,3.7c-8.957,0-16.224-7.017-16.224-15.669a6.685,6.685,0,0,1,.061-1.109h-.061c-9.592,0-17.366-7.51-17.366-16.778a16.724,16.724,0,0,1,9.464-14.939Z" transform="translate(-794.31 -518.249)"/></g><path class="c" d="M806.545,570.925a19.854,19.854,0,0,1-5.408-13.574,20.151,20.151,0,0,1,9.89-17.224,11.693,11.693,0,0,1-2.062-6.631A12.263,12.263,0,0,1,821.43,521.45a12.411,12.411,0,0,1,11.965,8.673A18.712,18.712,0,0,1,849.3,521.45c10.261,0,18.583,8.037,18.583,17.954a17.372,17.372,0,0,1-1.136,6.2c.379,0,.75-.054,1.136-.054A14.666,14.666,0,0,1,882.8,559.954a14.029,14.029,0,0,1-.074,1.453,17.893,17.893,0,0,1,11.2,16.44c0,9.883-8.294,17.893-18.522,17.893a19.245,19.245,0,0,1-3.2-.27c.054.595.088,1.2.088,1.8,0,11.086-9.3,20.077-20.78,20.077a21.185,21.185,0,0,1-11.83-3.576,15.778,15.778,0,0,1-10.045,3.576c-8.572,0-15.548-6.713-15.548-15a6.938,6.938,0,0,1,.054-1.061h-.054c-9.18,0-16.623-7.192-16.623-16.061a16.007,16.007,0,0,1,9.085-14.3Z" transform="translate(-454.947 -290.2)"/><line class="d" y2="111.585" transform="translate(392.9 259.723)"/><rect class="i" width="6.077" height="111.585" transform="translate(389.495 259.723)"/><rect class="d" width="3.36" height="111.585" transform="translate(391.062 259.723)"/><line class="d" x1="19.921" y1="20.327" transform="translate(374.248 260.034)"/><rect class="d" width="3.36" height="28.459" transform="matrix(0.714, -0.7, 0.7, 0.714, 372.935, 261.291)"/><line class="d" y1="14.493" x2="20.658" transform="translate(390.175 286.204)"/><rect class="d" width="25.235" height="3.36" transform="translate(389.11 299.426) rotate(-35.06)"/><g transform="translate(325.239 232.068)"><path class="j" d="M851.257,574.7a21.632,21.632,0,0,0-4.468-32.393,12.844,12.844,0,0,0,2.028-6.976,12.357,12.357,0,0,0-24.275-3.549,18.373,18.373,0,0,0-15.791-9.119,18.674,18.674,0,0,0-18.461,18.88,19.226,19.226,0,0,0,1.129,6.516c-.372,0-.75-.061-1.129-.061a14.987,14.987,0,0,0-14.818,15.156,10.433,10.433,0,0,0,.074,1.528,18.833,18.833,0,0,0-11.127,17.292,18.617,18.617,0,0,0,18.4,18.819,18.089,18.089,0,0,0,3.184-.284c-.054.629-.088,1.257-.088,1.9a20.89,20.89,0,0,0,20.645,21.118,20.231,20.231,0,0,0,11.755-3.758,15.155,15.155,0,0,0,9.984,3.758,15.6,15.6,0,0,0,15.426-15.777,7.734,7.734,0,0,0-.054-1.122h.054a16.711,16.711,0,0,0,16.521-16.9A16.933,16.933,0,0,0,851.257,574.7Z" transform="translate(-764.419 -522.66)"/></g><path class="g" d="M850.283,576.084a20.334,20.334,0,0,0-4.2-30.419,12.026,12.026,0,0,0,1.927-6.544,11.6,11.6,0,0,0-22.788-3.333,17.244,17.244,0,0,0-14.838-8.558,17.526,17.526,0,0,0-17.326,17.724,18.041,18.041,0,0,0,1.061,6.118c-.352,0-.676-.054-1.061-.054a14.067,14.067,0,0,0-13.905,14.2,10.044,10.044,0,0,0,.068,1.433A17.677,17.677,0,0,0,768.78,582.87a17.472,17.472,0,0,0,17.271,17.664,16.993,16.993,0,0,0,2.988-.27q-.081.882-.081,1.785a19.607,19.607,0,0,0,19.38,19.82,18.989,18.989,0,0,0,11.039-3.529,14.2,14.2,0,0,0,9.369,3.529,14.649,14.649,0,0,0,14.48-14.8,6.938,6.938,0,0,0-.054-1.048h.054a15.683,15.683,0,0,0,15.507-15.859A15.893,15.893,0,0,0,850.283,576.084Z" transform="translate(-440.272 -292.073)"/><rect class="f" width="4.502" height="111.97" transform="translate(378.285 261.386)"/><rect class="d" width="2.265" height="110.395" transform="translate(379.626 262.961)"/><rect class="d" width="27.35" height="2.265" transform="translate(376.92 283.221) rotate(-47.2)"/><rect class="d" width="2.265" height="23.997" transform="matrix(0.596, -0.803, 0.803, 0.596, 361.495, 290.732)"/><rect class="f" width="190.628" height="169.672" transform="translate(200.757 206.469)"/><rect class="k" width="310.953" height="164.264" transform="translate(95.068 206.469)"/><path class="f" d="M702.115,470.556H396.57V390.79H690.962a11.154,11.154,0,0,1,11.154,11.154Z" transform="translate(-287.593 -277.09)"/><path class="l" d="M204.961,146H535.839a11.154,11.154,0,0,1,11.154,11.154l-4.1,100.04H407.568L204.961,220.554Z" transform="translate(-134.645 -28.928)"/><path class="f" d="M198.714,13.32,93.26,98.591V380.454H304.167V98.591Z" transform="translate(-30.221 -4.32)"/><path class="l" d="M302.352,86.333,202.306,13.32,102.26,86.333v61.508H302.352Z" transform="translate(-33.137 -4.32)"/><rect class="k" width="200.092" height="179.812" transform="translate(69.123 190.921)"/><path class="m" d="M306.213,116.278,194.358,34.869,82.509,116.278,77.73,90.787,194.358,5.91,310.992,90.787Z" transform="translate(-23.888 -1.04)"/><rect class="n" width="113.566" height="140.605" transform="translate(115.32 230.128)"/><rect class="m" width="113.566" height="24.335" transform="translate(115.32 211.161)"/><rect class="m" width="113.566" height="24.335" transform="translate(115.32 346.398)"/><path class="o" d="M677.414,652.028a1.014,1.014,0,1,0-1.014-1.014A1.014,1.014,0,0,0,677.414,652.028Z" transform="translate(-386.012 -331.852)"/><rect class="n" width="55.431" height="102.75" transform="translate(318.401 266.783)"/><rect class="n" width="52.051" height="37.855" transform="translate(318.645 231.345)"/><rect class="p" width="52.051" height="16.9" transform="translate(318.645 229.171)"/><g transform="translate(33.113 257.856)"><path class="q" d="M203.206,603.9a17.292,17.292,0,0,1-4.732-11.823,17.576,17.576,0,0,1,8.612-15,10.187,10.187,0,0,1-1.8-5.773,10.68,10.68,0,0,1,10.856-10.491,10.816,10.816,0,0,1,10.437,7.564,16.3,16.3,0,0,1,13.858-7.551c8.937,0,16.183,7,16.183,15.635a15.134,15.134,0,0,1-.994,5.408c.331,0,.676-.047.994-.047a12.772,12.772,0,0,1,12.986,12.546,12.266,12.266,0,0,1-.068,1.264,15.582,15.582,0,0,1,9.754,14.317c0,8.605-7.22,15.581-16.129,15.581a16.762,16.762,0,0,1-2.792-.237c.047.521.074,1.041.074,1.575,0,9.66-8.112,17.488-18.1,17.488a18.448,18.448,0,0,1-10.309-3.116,13.742,13.742,0,0,1-8.754,3.116,13.317,13.317,0,0,1-13.52-13.067,6.029,6.029,0,0,1,.047-.926h-.047a14.242,14.242,0,0,1-14.48-13.986,13.939,13.939,0,0,1,7.916-12.479Z" transform="translate(-195.29 -560.808)"/></g><path class="c" d="M205.514,604.7a16.555,16.555,0,0,1-4.489-11.316,16.8,16.8,0,0,1,8.24-14.358,9.748,9.748,0,0,1-1.717-5.529,10.221,10.221,0,0,1,10.4-10.045,10.349,10.349,0,0,1,9.971,7.226,15.6,15.6,0,0,1,13.263-7.226,15.233,15.233,0,0,1,15.487,14.966,14.488,14.488,0,0,1-.946,5.165c.311,0,.629-.047.946-.047A12.245,12.245,0,0,1,269.1,595.545a11.746,11.746,0,0,1-.061,1.21,14.919,14.919,0,0,1,9.329,13.709,15.183,15.183,0,0,1-15.44,14.919,16.034,16.034,0,0,1-2.7-.229c.046.493.073,1,.073,1.507,0,9.241-7.754,16.737-17.326,16.737a17.657,17.657,0,0,1-9.83-2.988,13.148,13.148,0,0,1-8.375,2.982,12.727,12.727,0,0,1-12.938-12.506,5.517,5.517,0,0,1,.047-.886h-.047a13.632,13.632,0,0,1-13.858-13.391A13.344,13.344,0,0,1,205.514,604.7Z" transform="translate(-163.045 -303.808)"/><line class="d" y2="93.022" transform="translate(71.834 283.382)"/><rect class="f" width="5.07" height="93.022" transform="translate(69.211 283.382)"/><rect class="d" width="2.799" height="93.022" transform="translate(70.428 283.382)"/><line class="d" x1="16.616" y1="16.947" transform="translate(55.502 284.396)"/><rect class="d" width="2.799" height="23.727" transform="matrix(0.714, -0.7, 0.7, 0.714, 54.503, 285.465)"/><line class="d" y1="12.08" x2="17.217" transform="translate(72.118 313.72)"/><rect class="d" width="21.037" height="2.799" transform="translate(71.311 324.646) rotate(-35.06)"/><g transform="translate(-0.01 257.856)"><path class="q" d="M154.206,603.9a17.292,17.292,0,0,1-4.732-11.823,17.576,17.576,0,0,1,8.612-15,10.187,10.187,0,0,1-1.8-5.773,10.68,10.68,0,0,1,10.856-10.491,10.816,10.816,0,0,1,10.437,7.564,16.3,16.3,0,0,1,13.858-7.551c8.937,0,16.183,7,16.183,15.635a15.136,15.136,0,0,1-.994,5.408c.331,0,.676-.047.994-.047a12.772,12.772,0,0,1,12.986,12.546,12.279,12.279,0,0,1-.068,1.264,15.582,15.582,0,0,1,9.754,14.317c0,8.605-7.22,15.581-16.129,15.581a16.762,16.762,0,0,1-2.792-.237c.047.521.074,1.041.074,1.575,0,9.66-8.112,17.488-18.1,17.488a18.448,18.448,0,0,1-10.309-3.116,13.742,13.742,0,0,1-8.754,3.116,13.317,13.317,0,0,1-13.52-13.067,6.031,6.031,0,0,1,.047-.926h-.047a14.242,14.242,0,0,1-14.48-13.986A13.939,13.939,0,0,1,154.206,603.9Z" transform="translate(-146.29 -560.808)"/></g><path class="c" d="M156.514,604.7a16.555,16.555,0,0,1-4.489-11.316,16.8,16.8,0,0,1,8.24-14.358,9.748,9.748,0,0,1-1.717-5.529,10.221,10.221,0,0,1,10.4-10.045,10.349,10.349,0,0,1,9.971,7.226,15.6,15.6,0,0,1,13.263-7.226,15.233,15.233,0,0,1,15.487,14.966,14.486,14.486,0,0,1-.946,5.165c.311,0,.629-.047.946-.047A12.245,12.245,0,0,1,220.1,595.545a11.738,11.738,0,0,1-.061,1.21,14.919,14.919,0,0,1,9.329,13.709,15.183,15.183,0,0,1-15.44,14.919,16.034,16.034,0,0,1-2.7-.229c.046.493.073,1,.073,1.507,0,9.241-7.754,16.737-17.326,16.737a17.657,17.657,0,0,1-9.83-2.988,13.148,13.148,0,0,1-8.374,2.982,12.727,12.727,0,0,1-12.938-12.506,5.514,5.514,0,0,1,.047-.886h-.047a13.632,13.632,0,0,1-13.858-13.391A13.344,13.344,0,0,1,156.514,604.7Z" transform="translate(-147.168 -303.808)"/><line class="d" y2="93.022" transform="translate(38.71 283.382)"/><rect class="f" width="5.07" height="93.022" transform="translate(36.088 283.382)"/><rect class="d" width="2.799" height="93.022" transform="translate(37.304 283.382)"/><line class="d" x1="16.616" y1="16.947" transform="translate(22.379 284.396)"/><rect class="d" width="2.799" height="23.727" transform="matrix(0.714, -0.7, 0.7, 0.714, 21.386, 285.467)"/><line class="d" y1="12.08" x2="17.217" transform="translate(38.994 313.72)"/><rect class="d" width="21.037" height="2.799" transform="translate(38.188 324.65) rotate(-35.06)"/><g transform="translate(10.859 258.263)"><path class="r" d="M234.768,604.829a18.056,18.056,0,0,0-3.725-27.039,10.681,10.681,0,0,0,1.71-5.813,10.3,10.3,0,0,0-20.239-2.961,15.318,15.318,0,0,0-13.175-7.6,15.548,15.548,0,0,0-15.392,15.737,16.029,16.029,0,0,0,.94,5.409c-.311,0-.622-.048-.94-.048a12.492,12.492,0,0,0-12.364,12.7,8.9,8.9,0,0,0,.061,1.278,15.75,15.75,0,0,0,6.064,30.1,15.081,15.081,0,0,0,2.657-.237c-.047.521-.074,1.048-.074,1.582A17.388,17.388,0,0,0,197.5,645.5a16.9,16.9,0,0,0,9.8-3.137,12.634,12.634,0,0,0,8.321,3.137,13.006,13.006,0,0,0,12.844-13.148,6.117,6.117,0,0,0-.047-.933h.047a13.932,13.932,0,0,0,13.77-14.081,14.114,14.114,0,0,0-7.47-12.513Z" transform="translate(-162.369 -561.41)"/></g><path class="g" d="M233.976,606a16.947,16.947,0,0,0-3.5-25.35,10.024,10.024,0,0,0,1.6-5.455,9.667,9.667,0,0,0-19-2.778,14.378,14.378,0,0,0-12.371-7.138A14.615,14.615,0,0,0,186.3,580.053a15.041,15.041,0,0,0,.886,5.1c-.291,0-.588-.047-.886-.047a11.728,11.728,0,0,0-11.593,11.857,7.8,7.8,0,0,0,.061,1.2,14.736,14.736,0,0,0-8.707,13.52,14.567,14.567,0,0,0,14.4,14.723,14.137,14.137,0,0,0,2.494-.223c-.041.493-.068.987-.068,1.487a16.34,16.34,0,0,0,16.156,16.521,15.831,15.831,0,0,0,9.2-2.941,11.856,11.856,0,0,0,7.8,2.934,12.208,12.208,0,0,0,12.073-12.344,6.331,6.331,0,0,0-.041-.879h.041a13.074,13.074,0,0,0,12.925-13.222A13.249,13.249,0,0,0,233.976,606Z" transform="translate(-152.705 -304.398)"/><rect class="s" width="3.752" height="93.347" transform="translate(52.027 282.74)"/><rect class="d" width="1.886" height="92.035" transform="translate(53.095 284.051)"/><rect class="d" width="22.801" height="1.886" transform="translate(52.933 301.402) rotate(-47.2)"/><rect class="d" width="1.886" height="20.009" transform="matrix(0.596, -0.803, 0.803, 0.596, 36.993, 315.027)"/><path class="t" d="M774.385,287.02A103.426,103.426,0,0,0,626.344,285.9c-39.146,39.464-39.809,103.716-1.521,143.985a103.426,103.426,0,0,0,132.642,14.662l74.764,77.738a5.029,5.029,0,0,0,7.118.142l18.623-17.907a5.029,5.029,0,0,0,.142-7.118l-74.764-77.738a103.426,103.426,0,0,0-8.964-132.649Zm-23.288,125a73.973,73.973,0,1,1,2.028-104.6,73.973,73.973,0,0,1-2.028,104.6Z" transform="translate(-407.913 -251.346)"/><path class="m" d="M786.385,281.2a103.426,103.426,0,0,0-148.041-1.115C599.2,319.549,598.536,383.8,636.823,424.07a103.426,103.426,0,0,0,132.642,14.662l74.764,77.738a5.03,5.03,0,0,0,7.118.142l18.63-17.914a5.029,5.029,0,0,0,.142-7.118l-74.764-77.738A103.426,103.426,0,0,0,786.385,281.2ZM763.1,406.2a73.973,73.973,0,1,1,2.028-104.6A73.973,73.973,0,0,1,763.1,406.2Z" transform="translate(-419.29 -249.46)"/></g></svg>