<svg xmlns="http://www.w3.org/2000/svg" width="554.67" height="338.125" viewBox="0 0 554.67 338.125"><defs><style>.a{fill:#3f3d56;}.b{fill:#3c5f5b;}.c{fill:#6c63ff;}.d{fill:#a6c733;}.e{fill:#ccc;}.f{fill:#16214b;}.g{fill:#f2f2f2;}.h{fill:#707070;}</style></defs><g transform="translate(0 0)"><path class="a" d="M167.9,619.035l-.952-.214a216.66,216.66,0,0,1,422.517-.576l-.951.216c-22.465-98.645-108.92-167.54-210.241-167.54C278.277,450.921,189.8,521.623,167.9,619.035Z" transform="translate(-100.871 -280.91)"/><circle class="b" cx="26.497" cy="26.497" r="26.497" transform="translate(176.996 7.36)"/><path class="a" d="M214.369,777.8a9.818,9.818,0,0,0,3.657,4.947,8.453,8.453,0,0,0-2.993-11.062A9.818,9.818,0,0,0,214.369,777.8Z" transform="translate(-125.031 -445.691)"/><path class="c" d="M211.17,780.359a9.819,9.819,0,0,1,2.545,5.6,8.453,8.453,0,0,1-8.212-7.994A9.819,9.819,0,0,1,211.17,780.359Z" transform="translate(-120.618 -448.91)"/><path class="a" d="M343.369,777.8a9.818,9.818,0,0,0,3.657,4.947,8.454,8.454,0,0,0-2.993-11.062A9.818,9.818,0,0,0,343.369,777.8Z" transform="translate(-191.1 -445.691)"/><path class="c" d="M340.17,780.359a9.818,9.818,0,0,1,2.545,5.6,8.453,8.453,0,0,1-8.212-7.994A9.819,9.819,0,0,1,340.17,780.359Z" transform="translate(-186.687 -448.91)"/><path class="d" d="M327.25,121.318l-9.964-7.971,55.8-49.817H514.564v43.839L422.9,169.142Z" transform="translate(-162.502 -32.537)"/><path class="e" d="M651.333,91.474V64.524H632.549v6.6l-7.011-7.6-45.832,49.817L561.772,125.3,533.964,328.468,575.9,370.405h97.462V115.339Z" transform="translate(-273.477 -32.537)"/><path class="f" d="M0,0H151.445V257.058H0Z" transform="translate(154.784 80.809)"/><rect class="e" width="27.898" height="62.77" transform="translate(213.568 275.097)"/><path class="a" d="M363.963,590.217v-9.964H352.007v9.964h11.956Z" transform="translate(-180.285 -297.185)"/><path class="a" d="M362.967,617.016h-10.96v9.964h11.956v-9.964Z" transform="translate(-180.285 -316.013)"/><rect class="a" width="11.956" height="9.964" transform="translate(191.649 283.068)"/><rect class="a" width="11.956" height="9.964" transform="translate(191.649 301.003)"/><path class="a" d="M531.439,590.217v-9.964H519.483v9.964h11.956Z" transform="translate(-266.06 -297.185)"/><path class="a" d="M530.443,617.016h-10.96v9.964h11.956v-9.964Z" transform="translate(-266.06 -316.013)"/><rect class="a" width="11.956" height="9.964" transform="translate(273.349 283.068)"/><rect class="a" width="11.956" height="9.964" transform="translate(273.349 301.003)"/><path class="a" d="M703,181.739v-9.963H691.043v9.963H703Z" transform="translate(-353.927 -87.978)"/><path class="a" d="M702,208.539h-10.96V218.5H703v-9.963Z" transform="translate(-353.927 -106.806)"/><rect class="a" width="11.956" height="9.964" transform="translate(357.043 83.798)"/><rect class="a" width="11.956" height="9.964" transform="translate(357.043 101.733)"/><path class="a" d="M703,296.113v-9.964H691.043v9.964H703Z" transform="translate(-353.927 -146.555)"/><path class="a" d="M702,322.912h-10.96v9.964H703v-9.964Z" transform="translate(-353.927 -165.384)"/><rect class="a" width="11.956" height="9.964" transform="translate(357.043 139.594)"/><rect class="a" width="11.956" height="9.964" transform="translate(357.043 157.528)"/><path class="a" d="M703,410.487v-9.964H691.043v9.964H703Z" transform="translate(-353.927 -205.134)"/><path class="a" d="M702,437.286h-10.96v9.964H703v-9.964Z" transform="translate(-353.927 -223.962)"/><rect class="a" width="11.956" height="9.964" transform="translate(357.043 195.389)"/><rect class="a" width="11.956" height="9.964" transform="translate(357.043 213.324)"/><path class="a" d="M703,524.861V514.9H691.043v9.964H703Z" transform="translate(-353.927 -263.712)"/><path class="a" d="M702,551.66h-10.96v9.964H703V551.66Z" transform="translate(-353.927 -282.54)"/><rect class="a" width="11.956" height="9.964" transform="translate(357.043 251.185)"/><rect class="a" width="11.956" height="9.964" transform="translate(357.043 269.12)"/><rect class="d" width="115.577" height="23.912" transform="translate(171.722 93.761)"/><rect class="d" width="115.577" height="23.912" transform="translate(171.722 141.586)"/><rect class="d" width="115.577" height="23.912" transform="translate(171.722 189.411)"/><rect class="d" width="115.577" height="23.912" transform="translate(171.722 237.237)"/><rect class="a" width="554.67" height="0.976" transform="translate(0 336.865)"/><rect class="a" width="2.866" height="113.204" transform="translate(55.629 224.217)"/><path class="d" d="M146.836,517.518c.182,39.585-27.667,71.8-27.667,71.8s-28.146-31.961-28.328-71.545,27.667-71.8,27.667-71.8S146.654,477.934,146.836,517.518Z" transform="translate(-61.892 -278.875)"/><path class="g" d="M934.062,247.6c-22.576.1-40.951.438-40.951.438s21.842-28.932,40.869-18.213,40.884,17.836,40.884,17.836S956.636,247.5,934.062,247.6Z" transform="translate(-472.786 -166.952)"/><path class="g" d="M163.062,361.6c-22.575.1-40.951.438-40.951.438s21.842-28.932,40.869-18.213,40.884,17.836,40.884,17.836S185.637,361.5,163.062,361.6Z" transform="translate(-77.908 -225.339)"/><path class="g" d="M331.062,123.6c-22.575.1-40.951.438-40.951.438s21.842-28.932,40.869-18.213,40.884,17.836,40.884,17.836S353.637,123.5,331.062,123.6Z" transform="translate(-163.951 -103.444)"/><rect class="a" width="2.866" height="113.204" transform="translate(504.925 224.217)"/><path class="d" d="M1067.841,517.518c.182,39.585-27.667,71.8-27.667,71.8s-28.146-31.961-28.328-71.545,27.667-71.8,27.667-71.8S1067.656,477.934,1067.841,517.518Z" transform="translate(-533.597 -278.875)"/><path class="h" d="M808.96,540.3h28.923v-6.981h15.958V540.3h29.92v30.918h-29.92v38.9H837.884v-38.9H808.96L794,554.262Z" transform="translate(-406.658 -273.146)"/></g></svg>