<svg xmlns="http://www.w3.org/2000/svg" width="556.206" height="283.108" viewBox="0 0 556.206 283.108"><defs><style>.a{fill:#e6e6e6;}.b{fill:#3f3d56;}.c{fill:#16214b;}.d{fill:#a6c733;}.e{fill:#fff;}</style></defs><ellipse class="a" cx="19.257" cy="39.291" rx="19.257" ry="39.291" transform="translate(100.437 178.205)"/><path class="b" d="M361.548,614.545c-7.713-46.274-.078-92.38,0-92.84l1.5.254c-.078.458-7.669,46.322,0,92.336Z" transform="translate(-240.077 -332.735)"/><rect class="b" width="19.748" height="1.522" transform="translate(119.232 218.36) rotate(-28.142)"/><rect class="b" width="1.522" height="19.748" transform="translate(100.855 215.053) rotate(-61.842)"/><rect class="b" width="31.562" height="109.253" transform="translate(476.504 2.622)"/><path class="c" d="M633.479,91.322,556.715,0,402.628,1.409,309.156,92.452l1.889,1.214h-.674V283.037h322.9V93.666Z" transform="translate(-104.57)"/><path class="d" d="M634.354.294l-95.9,112.432V283.137H710.831V91.338Z" transform="translate(-182.129 -0.099)"/><rect class="b" width="35.204" height="31.116" transform="translate(425.519 188.798)"/><rect class="b" width="35.204" height="30.622" transform="translate(425.519 134.939)"/><rect class="e" width="35.204" height="31.116" transform="translate(425.519 188.798)"/><rect class="e" width="35.204" height="30.622" transform="translate(425.519 134.939)"/><path class="a" d="M682.079,648.243s.755-15.813,16.226-13.975" transform="translate(-349.66 -370.758)"/><circle class="d" cx="7.743" cy="7.743" r="7.743" transform="translate(320.305 246.95)"/><rect class="a" width="2.186" height="15.3" transform="translate(326.789 267.732)"/><ellipse class="d" cx="37.664" cy="76.849" rx="37.664" ry="76.849" transform="translate(35.761 80.051)"/><path class="b" d="M293.605,570.458c-15.065-90.386-.152-180.443,0-181.342l1.5.254c-.152.9-15.021,90.712,0,180.839Z" transform="translate(-215.985 -287.888)"/><rect class="b" width="38.625" height="1.522" transform="translate(72.867 159.233) rotate(-28.142)"/><rect class="b" width="1.522" height="38.625" transform="translate(36.924 151.486) rotate(-61.842)"/><ellipse class="d" cx="51.54" cy="105.162" rx="51.54" ry="105.162" transform="translate(111.089 5.484)"/><path class="b" d="M429.892,536.357c-20.607-123.641-.208-246.83,0-248.06l1.5.254c-.208,1.228-20.563,124.175,0,247.556Z" transform="translate(-261.245 -253.786)"/><rect class="b" width="52.855" height="1.522" transform="translate(161.998 114.086) rotate(-28.142)"/><rect class="b" width="1.522" height="52.855" transform="matrix(0.472, -0.882, 0.882, 0.472, 112.811, 102.987)"/><rect class="b" width="556.206" height="1.324" transform="translate(0 281.784)"/><rect class="b" width="35.204" height="31.116" transform="translate(269.072 180.541)"/><rect class="b" width="35.204" height="30.622" transform="translate(269.072 126.683)"/><rect class="e" width="35.204" height="31.116" transform="translate(269.072 180.541)"/><rect class="e" width="35.204" height="30.622" transform="translate(269.072 126.683)"/></svg>