<svg xmlns="http://www.w3.org/2000/svg" width="217.258" height="246.977" viewBox="0 0 217.258 246.977"><defs><style>.a{opacity:0.28;}.b{fill:#131c39;}</style></defs><g class="a"><path class="b" d="M1975.038,624.894c23.328-7.914,23.494-23.959,51.146-32.685,23.575-7.44,30.244,2.079,47.868-7.106,17.795-9.273,30.735-29.262,34.754-50.449,4.814-25.384-2.638-55.335-22.951-71.766-3.994-3.231-17.882-13.54-36.064-12.079-7.011.563-17.087,3.07-36.721,19.9-37.3,31.963-36.533,53.423-59.015,59.687-19.569,5.451-27.59-8.734-41.311-.711-18.139,10.607-26.7,48.6-13.115,73.187C1914.65,630.067,1952.206,632.641,1975.038,624.894Z" transform="translate(-1892.961 -381.72)"/><path class="b" d="M1941.676,436.811c14.8,14.725,55.889,8.724,76.277-16.343,18.723-23.019,21.638-64.145-3.531-85.267-26.809-22.5-71.381-10.467-79.808,7.816-5.74,12.452,8.174,21.541,2.825,46.9-2.232,10.583-6.465,17.572-4.237,29.133C1933.523,420.719,1935.57,430.736,1941.676,436.811Z" transform="translate(-1911.186 -322.956)"/></g></svg>