<svg xmlns="http://www.w3.org/2000/svg" width="298.23" height="262.805" viewBox="0 0 298.23 262.805"><defs><style>.a{fill:#131c39;opacity:0.28;}</style></defs><path class="a" d="M681.071-364.713c15.03-2.431,37.182-5.734,63.013,3.762,12.85,4.724,34.616,12.726,43.885,33.861,4.688,10.69,1.672,14.465,6.751,27.59,7.1,18.348,18.3,24.694,29.256,36.369,14.167,15.1,31.081,42.494,31.506,68.976.548,34.178-26.427,63.358-48.385,76.5-46.332,27.73-110.182,7.914-127.151-25.082-3.206-6.233-5.4-14.223-12.941-18.184-15.018-7.89-28.759,12.017-48.385,12.541-24.284.648-48.867-28.611-57.387-55.18-16.981-52.95,23.606-114.644,62.451-140.459C646.377-359.1,669.943-362.914,681.071-364.713Z" transform="translate(-557.261 367.306)"/></svg>