<svg xmlns="http://www.w3.org/2000/svg" width="277.806" height="245.098" viewBox="0 0 277.806 245.098"><defs><style>.a{fill:#131c39;opacity:0.28;}</style></defs><path class="a" d="M1353.97-295.559c-5.861-12.652-14.725-31.143-35.812-45.264-10.49-7.024-28.26-18.923-50.1-14.106-11.049,2.436-12.521,6.807-25.735,10.307-18.472,4.893-29.411.01-44.514-1.713-19.534-2.229-50.4.33-71.948,14.774-27.815,18.642-37.284,55.185-36.446,79.016,1.768,50.283,50.946,87.226,86.352,81.585,6.688-1.066,14.266-3.87,21.379-.412,14.169,6.889,5.282,28.316,15.07,43.359,12.111,18.613,48.468,20.777,74.3,12.369C1338-132.4,1366.572-197.3,1367.157-240.89,1367.5-266.355,1358.309-286.192,1353.97-295.559Z" transform="translate(-1089.361 356.046)"/></svg>