<svg xmlns="http://www.w3.org/2000/svg" width="231.249" height="226.194" viewBox="0 0 231.249 226.194"><defs><style>.a{opacity:0.28;}.b{fill:#131c39;}</style></defs><g class="a"><g transform="translate(0 0)"><path class="b" d="M1584.4-768.527c7.638-22.842-4.138-31.591,5.4-58.317,8.132-22.785,19.033-22.987,22.432-41.966,3.433-19.163-3.874-40.211-17.226-54.793-16-17.47-42.47-27.616-66.379-20.252-4.7,1.448-20.363,6.98-29.8,22.256-3.638,5.889-7.613,15.266-6.52,39.951,2.075,46.893,18.4,57.808,10.026,79.09-7.286,18.524-22.422,17.3-24.423,32.542-2.645,20.153,20.516,47.375,46.568,49.759C1553.3-717.622,1576.927-746.171,1584.4-768.527Z" transform="translate(-1381.83 946.282)"/><path class="b" d="M1359.25-752.61c18.844-3.043,36.471-36.669,28.873-65.218-6.977-26.217-35.843-50.461-64.989-43.181-31.045,7.754-46.081,47.2-37.079,63.251,6.132,10.935,20.33,5.52,36.218,23.1,6.631,7.336,9.53,14.222,19.281,18.782C1342.965-755.219,1351.476-751.355,1359.25-752.61Z" transform="translate(-1283.471 903.765)"/></g></g></svg>