<svg xmlns="http://www.w3.org/2000/svg" width="254.775" height="240.598" viewBox="0 0 254.775 240.598"><defs><style>.a{fill:#131c39;opacity:0.28;}</style></defs><path class="a" d="M879.486,324.8c-12.84-2.225-31.764-5.25-53.832,3.444-10.977,4.325-29.572,11.651-37.49,31-4,9.786-1.428,13.243-5.768,25.259-6.065,16.8-15.636,22.607-24.993,33.3-12.1,13.825-26.552,38.9-26.916,63.147-.469,31.29,22.577,58,41.335,70.036,39.581,25.387,94.127,7.246,108.624-22.962,2.739-5.706,4.614-13.022,11.055-16.648,12.83-7.224,24.568,11,41.335,11.481,13.837.4,27.788-11.39,37.865-26.745a93.048,93.048,0,0,0,11.16-23.772c14.507-48.476-20.167-104.956-53.351-128.59C909.124,329.94,888.993,326.451,879.486,324.8Z" transform="translate(-730.481 -322.429)"/></svg>