<svg xmlns="http://www.w3.org/2000/svg" width="254.77" height="240.598" viewBox="0 0 254.77 240.598"><defs><style>.a{fill:#131c39;opacity:0.28;}</style></defs><path class="a" d="M1348.813,570.369c12.84,2.226,31.764,5.25,53.831-3.444,10.977-4.325,29.572-11.651,37.489-31,4-9.786,1.429-13.243,5.768-25.259,6.065-16.8,15.636-22.607,24.992-33.3,12.1-13.825,26.553-38.9,26.916-63.147.469-31.29-22.576-58-41.334-70.036-39.58-25.387-94.125-7.245-108.622,22.963-2.738,5.706-4.613,13.021-11.054,16.648-12.83,7.224-24.568-11-41.334-11.482-20.745-.594-41.746,26.194-49.024,50.518-14.506,48.476,20.166,104.956,53.349,128.59C1319.176,565.232,1339.307,568.722,1348.813,570.369Z" transform="translate(-1243.046 -332.145)"/></svg>