<svg xmlns="http://www.w3.org/2000/svg" width="265.92" height="280.663" viewBox="0 0 265.92 280.663">
    <defs>
        <style>.a{fill:#131c39;opacity:0.28;}</style>
    </defs>
    <path class="a" d="M181.7-398.4c-28.553,8.994-28.755,27.226-62.6,37.144-28.855,8.454-37.017-2.363-58.59,8.074-21.781,10.538-37.619,33.254-42.537,57.33C12.074-267,21.2-232.966,46.058-214.294c4.888,3.672,21.887,15.386,44.143,13.727,8.58-.64,20.913-3.488,44.945-22.609C180.8-259.5,179.862-283.886,207.38-291c23.951-6.2,33.769,9.925,50.564.807,22.2-12.053,32.674-55.223,16.052-83.169C255.609-404.274,209.642-407.2,181.7-398.4Z" transform="translate(-16.238 402.717)" />
    <path class="a" d="M328.077-161.807c-16.818-16.733-63.511-9.914-86.68,18.572-21.277,26.159-24.589,72.894,4.013,96.9,30.465,25.566,81.116,11.895,90.693-8.882,6.523-14.151-9.29-24.479-3.21-53.293,2.537-12.026,7.347-19.969,4.815-33.106C337.342-143.522,335.016-154.9,328.077-161.807Z" transform="translate(-96.806 313.087)" />
</svg>