<svg xmlns="http://www.w3.org/2000/svg" width="214.838" height="238.97" viewBox="0 0 214.838 238.97"><defs><style>.a{fill:#fff;}</style></defs><path class="a" d="M301.461-330.509h-4a13,13,0,0,0-12.115-8.317h-4.574a48.3,48.3,0,0,0-2.523-6.95,17.386,17.386,0,0,0-15.813-10.2H125.5a17.385,17.385,0,0,0-15.813,10.2,48.372,48.372,0,0,0,0,39.871,17.336,17.336,0,0,0,5.105,6.5V-243.5a16.821,16.821,0,0,0,16.8,16.8,16.821,16.821,0,0,0,16.8-16.8V-267.11a6.828,6.828,0,0,1,6.821-6.821,6.827,6.827,0,0,1,6.819,6.821v4.552A14.877,14.877,0,0,0,176.9-247.7a14.876,14.876,0,0,0,14.859-14.861V-275.3a3.833,3.833,0,0,1,3.829-3.829h17.172a15,15,0,0,0,14.985-14.985V-295.7H262.43a17.386,17.386,0,0,0,15.813-10.2,48.334,48.334,0,0,0,2.525-6.952h4.573a13.006,13.006,0,0,0,12.117-8.317h4a9.444,9.444,0,0,1,9.433,9.433v20.719a10.236,10.236,0,0,1-8.695,10.069L223-269.291a28.135,28.135,0,0,0-17.191,9.444,28.137,28.137,0,0,0-6.839,18.383v22.073a4.672,4.672,0,0,0,.111,1.012,8.972,8.972,0,0,0-8.952,8.961v11.165a6.631,6.631,0,0,0-5.732,6.561v55.675A19.029,19.029,0,0,0,203.4-117.009,19.029,19.029,0,0,0,222.4-136.016V-191.69a6.635,6.635,0,0,0-5.732-6.563v-11.165a8.972,8.972,0,0,0-8.485-8.948,4.629,4.629,0,0,0,.113-1.025v-22.072a18.9,18.9,0,0,1,16.055-18.593l79.2-11.663a19.625,19.625,0,0,0,16.67-19.3v-20.719A18.789,18.789,0,0,0,301.461-330.509Zm-83.05,36.4a5.658,5.658,0,0,1-5.65,5.65H195.587A13.178,13.178,0,0,0,182.424-275.3v12.742a5.531,5.531,0,0,1-5.525,5.526,5.531,5.531,0,0,1-5.524-5.526v-4.552a16.174,16.174,0,0,0-16.155-16.156,16.172,16.172,0,0,0-16.154,16.156V-243.5a7.478,7.478,0,0,1-7.468,7.468,7.476,7.476,0,0,1-7.468-7.468v-52.263c.109.009.22.017.334.024h.016l.142.009.037,0,.126.006.045,0,.117,0,.053,0,.112,0c.02,0,.038,0,.058,0,.036,0,.073,0,.109,0h.058l.164,0h92.909Zm44.021-10.926H125.5c-.046,0-.091,0-.137,0h-.052l-.083,0c-.02,0-.042,0-.062,0l-.071,0-.071,0-.055,0-.084-.006-.034,0c-.153-.012-.3-.029-.456-.049l-.018,0c-.033,0-.067-.009-.1-.015l-.028-.006-.1-.014-.033-.006c-.031-.007-.062-.013-.1-.018a.225.225,0,0,1-.033-.007c-.031-.006-.062-.011-.093-.018s-.082-.016-.124-.025l-.023-.006-.114-.026-.02-.006c-.042-.009-.082-.02-.124-.031h0a8.042,8.042,0,0,1-5.3-4.458,39.006,39.006,0,0,1-3.466-15.663H161.7a4.669,4.669,0,0,0,4.668-4.668,4.668,4.668,0,0,0-4.668-4.667H115.756a38.957,38.957,0,0,1,2.439-7.178,8.033,8.033,0,0,1,7.308-4.715h136.93a8.036,8.036,0,0,1,7.307,4.715,39.039,39.039,0,0,1,0,32.176A8.036,8.036,0,0,1,262.432-305.039Zm22.91-17.153h-2.934a47.836,47.836,0,0,0,0-7.3h2.934a3.651,3.651,0,0,1,3.648,3.649A3.653,3.653,0,0,1,285.342-322.192Zm-78.005,123.88H199.46v-10.733h7.877Zm5.732,62.3a9.682,9.682,0,0,1-9.67,9.67,9.682,9.682,0,0,1-9.672-9.67v-52.962h19.342Z" transform="translate(-105.391 355.979)"/></svg>