<svg xmlns="http://www.w3.org/2000/svg" width="281.212" height="281.212" viewBox="0 0 281.212 281.212"><defs><style>.a{fill:#15214B;}</style></defs><g transform="translate(58.586 58.586)"><path class="a" d="M1279.387-112.9h-35.151c-8.2,0-17.576-7.03-17.576-21.091V-158.6c0-11.717-5.859-22.263-15.233-30.464-21.091-16.4-31.636-39.838-31.636-65.616,1.172-44.525,37.495-79.676,80.848-80.848,22.262,0,43.354,8.2,58.586,23.434a83.414,83.414,0,0,1,24.606,58.586c0,24.606-10.546,48.04-30.464,63.273-10.546,8.2-16.4,21.091-16.4,32.808v26.949a18.02,18.02,0,0,1-17.576,17.576ZM1261.811-323.81c-37.5,0-69.131,31.636-70.3,69.131,0,22.262,9.374,43.354,26.95,56.243,12.889,10.546,19.919,24.606,19.919,39.838v24.606c0,2.343,0,9.374,5.859,9.374h35.151a5.535,5.535,0,0,0,5.859-5.859v-26.949c0-15.233,8.2-31.636,21.091-42.182a68.324,68.324,0,0,0,25.778-53.9,70.042,70.042,0,0,0-21.091-50.384,69.068,69.068,0,0,0-49.212-19.919Z" transform="translate(-1179.791 335.527)"/></g><g transform="translate(134.747)"><path class="a" d="M1306.728-393.513a5.535,5.535,0,0,1-5.859-5.859v-23.434a5.535,5.535,0,0,1,5.859-5.858,5.535,5.535,0,0,1,5.859,5.858v23.434A5.535,5.535,0,0,1,1306.728-393.513Z" transform="translate(-1300.869 428.664)"/></g><g transform="translate(212.666 40.424)"><path class="a" d="M1431.186-336.864c-1.172,0-3.515,0-4.687-1.172a5.663,5.663,0,0,1,0-8.2l16.4-16.4a5.664,5.664,0,0,1,8.2,0,5.664,5.664,0,0,1,0,8.2l-16.4,16.4a11.8,11.8,0,0,1-3.515,1.172Z" transform="translate(-1424.742 364.4)"/></g><g transform="translate(246.06 134.747)"><path class="a" d="M1507.123-202.731h-23.434a5.535,5.535,0,0,1-5.859-5.859,5.535,5.535,0,0,1,5.859-5.859h23.434a5.535,5.535,0,0,1,5.858,5.859A5.535,5.535,0,0,1,1507.123-202.731Z" transform="translate(-1477.83 214.449)"/></g><g transform="translate(212.666 213.838)"><path class="a" d="M1447.59-61.178c-1.171,0-3.515,0-4.687-1.172l-16.4-16.4a5.663,5.663,0,0,1,0-8.2,5.664,5.664,0,0,1,8.2,0l16.4,16.4a5.664,5.664,0,0,1,0,8.2c0,1.172-1.172,1.172-3.516,1.172Z" transform="translate(-1424.742 88.714)"/></g><g transform="translate(39.252 213.838)"><path class="a" d="M1155.5-61.178c-1.172,0-3.515,0-4.687-1.172a5.663,5.663,0,0,1,0-8.2l16.4-16.4a5.664,5.664,0,0,1,8.2,0,5.663,5.663,0,0,1,0,8.2l-16.4,16.4A4.3,4.3,0,0,1,1155.5-61.178Z" transform="translate(-1149.055 88.714)"/></g><g transform="translate(0 134.747)"><path class="a" d="M1115.947-202.731h-23.435a5.535,5.535,0,0,1-5.858-5.859,5.535,5.535,0,0,1,5.858-5.859h23.435a5.535,5.535,0,0,1,5.859,5.859A5.535,5.535,0,0,1,1115.947-202.731Z" transform="translate(-1086.654 214.449)"/></g><g transform="translate(39.252 39.252)"><path class="a" d="M1171.9-337.555c-1.172,0-3.515,0-4.687-1.172l-16.4-17.576a5.663,5.663,0,0,1,0-8.2,5.663,5.663,0,0,1,8.2,0l16.4,16.4a5.663,5.663,0,0,1,0,8.2c-1.171,1.172-2.343,2.344-3.515,2.344Z" transform="translate(-1149.055 366.262)"/></g><g transform="translate(134.747 87.878)"><path class="a" d="M1353.6-230.373a5.535,5.535,0,0,1-5.859-5.859c0-22.263-18.748-41.01-41.01-41.01a5.535,5.535,0,0,1-5.859-5.859,5.535,5.535,0,0,1,5.859-5.859,52.508,52.508,0,0,1,52.727,52.728A5.535,5.535,0,0,1,1353.6-230.373Z" transform="translate(-1300.869 288.959)"/></g></svg>