<svg xmlns="http://www.w3.org/2000/svg" width="236.938" height="236.935" viewBox="0 0 236.938 236.935"><defs><style>.a{fill:#15214B;}</style></defs><path class="a" d="M1519.208-926.3v-4.245a43.438,43.438,0,0,0-43.438-43.438,43.438,43.438,0,0,0-43.438,43.438v15.8h-15.8a3.949,3.949,0,0,0-3.949,3.949V-895a3.949,3.949,0,0,0,3.949,3.949h.4l3.74,35.54h-15.981v-169.8a11.847,11.847,0,0,0-11.847-11.847A11.847,11.847,0,0,0,1381-1025.314v169.8h-39.489a7.907,7.907,0,0,0-7.9,7.9v11.36l-7.78,31.12a3.949,3.949,0,0,0,2.873,4.788,3.939,3.939,0,0,0,.958.118h185.6a3.949,3.949,0,0,0,3.949-3.949v-15.588l5.574-52.951a12.084,12.084,0,0,0,6.273-10.662v-28.406A14.833,14.833,0,0,0,1519.208-926.3Zm-78.978-4.245a35.54,35.54,0,0,1,35.54-35.54,35.54,35.54,0,0,1,35.54,35.54v3.949h-36.528a14.833,14.833,0,0,0-14.512,11.847h-20.041Zm-19.744,23.693h39.489v7.9h-39.489Zm4.386,15.8h35.1v7.681a12.235,12.235,0,0,0,3.641,8.657,11.649,11.649,0,0,0,8.388,3.406,11.9,11.9,0,0,0,7.716-3.024,11.826,11.826,0,0,0,15.8,0,11.826,11.826,0,0,0,15.792,0,11.73,11.73,0,0,0,5.414,2.751L1511.7-823.92h-56.545l-3.083-12.333v-11.36a7.907,7.907,0,0,0-7.9-7.9h-15.568Zm-35.978-134.263a3.949,3.949,0,0,1,3.949-3.949,3.949,3.949,0,0,1,3.949,3.949v169.8h-7.9Zm-47.387,177.7h102.672v7.9H1341.507Zm9.007,39.489,5.923-23.694h7.655l-5.923,23.694Zm-9.872-23.694h7.655l-5.924,23.694h-7.655Zm31.591,0h8.24l-2.962,23.694h-11.2Zm13.237,23.694,2.962-23.694h8.824l2.962,23.694Zm22.706,0-2.961-23.694h8.239l5.924,23.694Zm19.342,0-5.923-23.694h7.655l5.923,23.694Zm15.8,0-5.924-23.694h7.655l5.923,23.694Zm68,0h-52.2l-1.974-7.9h54.176ZM1523.157-895v11.624a4.11,4.11,0,0,1-3.752,4.167,3.949,3.949,0,0,1-4.141-3.747c0-.066,0-.132,0-.2v-15.8h-7.9v15.8a3.949,3.949,0,0,1-3.949,3.949,3.949,3.949,0,0,1-3.949-3.949v-15.8h-7.9v15.8a3.949,3.949,0,0,1-3.949,3.949,3.949,3.949,0,0,1-3.949-3.949v-15.8h-7.9v15.8a3.945,3.945,0,0,1-3.887,3.949h-.054a3.8,3.8,0,0,1-2.672-1.135,4.29,4.29,0,0,1-1.283-3.03v-28.413a6.918,6.918,0,0,1,6.911-6.911h41.464a6.917,6.917,0,0,1,6.91,6.911Z" transform="translate(-1309.914 1037.161)"/><path class="a" d="M1357.709-816.373a3.949,3.949,0,0,0,5,2.5,3.95,3.95,0,0,0,2.5-2.5,21.127,21.127,0,0,1,13.3-13.3,3.949,3.949,0,0,0,2.5-4.994,3.95,3.95,0,0,0-2.5-2.5,21.127,21.127,0,0,1-13.3-13.3,3.949,3.949,0,0,0-5-2.5,3.95,3.95,0,0,0-2.5,2.5,21.126,21.126,0,0,1-13.3,13.3,3.948,3.948,0,0,0-2.5,4.994,3.949,3.949,0,0,0,2.5,2.5A21.126,21.126,0,0,1,1357.709-816.373Zm3.746-24.169a29.222,29.222,0,0,0,7.124,7.124,29.226,29.226,0,0,0-7.124,7.124,29.231,29.231,0,0,0-7.124-7.124A29.226,29.226,0,0,0,1361.455-840.541Z" transform="translate(-1318.015 943.986)"/><path class="a" d="M1730.5-933.164a21.127,21.127,0,0,1-13.3-13.3,3.949,3.949,0,0,0-5-2.5,3.95,3.95,0,0,0-2.5,2.5,21.125,21.125,0,0,1-13.3,13.3,3.949,3.949,0,0,0-2.5,4.995,3.95,3.95,0,0,0,2.5,2.5,21.126,21.126,0,0,1,13.3,13.3,3.949,3.949,0,0,0,5,2.5,3.949,3.949,0,0,0,2.5-2.5,21.127,21.127,0,0,1,13.3-13.3,3.949,3.949,0,0,0,2.5-4.994A3.95,3.95,0,0,0,1730.5-933.164Zm-17.044,10.871a29.222,29.222,0,0,0-7.124-7.124,29.22,29.22,0,0,0,7.124-7.124,29.225,29.225,0,0,0,7.124,7.124A29.226,29.226,0,0,0,1713.454-922.293Z" transform="translate(-1496.263 992.599)"/><path class="a" d="M1313.455-717.672a3.948,3.948,0,0,0,3.746-2.7,21.128,21.128,0,0,1,13.3-13.3,3.949,3.949,0,0,0,2.5-4.994,3.949,3.949,0,0,0-2.5-2.5,21.127,21.127,0,0,1-13.3-13.3,3.949,3.949,0,0,0-5-2.5,3.95,3.95,0,0,0-2.5,2.5,21.126,21.126,0,0,1-13.3,13.3,3.948,3.948,0,0,0-2.5,4.995,3.949,3.949,0,0,0,2.5,2.5,21.126,21.126,0,0,1,13.3,13.3A3.949,3.949,0,0,0,1313.455-717.672Zm0-26.869a29.22,29.22,0,0,0,7.124,7.124,29.224,29.224,0,0,0-7.124,7.124,29.229,29.229,0,0,0-7.124-7.124,29.226,29.226,0,0,0,7.124-7.124Z" transform="translate(-1293.708 895.373)"/></svg>