<svg xmlns="http://www.w3.org/2000/svg" width="184.614" height="184.624" viewBox="0 0 184.614 184.624"><defs><style>.a{fill:#fff;}</style></defs><path class="a" d="M1487.2,405.408a3.6,3.6,0,0,0-3.375.971l-14.949,15.068h-7.166l-7.889-8.174v-7.267l14.735-14.955a3.606,3.606,0,0,0-1.417-5.947,36.087,36.087,0,0,0-46.352,43.522l-26.561,26.561-44.251-44.353v-8.7a3.606,3.606,0,0,0-1.75-3.092l-25.5-15.3a3.6,3.6,0,0,0-4.405.543l-10.2,10.2a3.609,3.609,0,0,0-.542,4.406l15.3,25.5a3.607,3.607,0,0,0,3.09,1.751l8.7,0,44.255,44.353-26.459,26.46a36.081,36.081,0,0,0-43.521,46.353,3.606,3.606,0,0,0,5.976,1.389l14.947-15.067h7.207l8.21,8.211v7.207l-15.066,14.948a3.606,3.606,0,0,0,1.389,5.976,36.088,36.088,0,0,0,46.352-43.522l21.25-21.251,4.868,5.288-2.234,2.233a3.607,3.607,0,0,0,5.1,5.1l2.023-2.022L1454.64,561.4c.034.037.069.072.1.107a21.637,21.637,0,0,0,30.6-30.6c-.037-.037-.075-.072-.113-.107l-49.689-45.587,2-2a3.606,3.606,0,0,0-5.1-5.1l-2.219,2.22-5.3-4.863,21.354-21.354a36.079,36.079,0,0,0,43.518-46.351A3.6,3.6,0,0,0,1487.2,405.408Zm-148.48,14.573a3.57,3.57,0,0,0-2.551-1.022l-8.156,0-12.8-21.368,6.216-6.216,21.331,12.8v8.156a3.607,3.607,0,0,0,1.053,2.547l45.31,45.414-5.1,5.1Zm91.72,70.339,49.858,45.741a14.426,14.426,0,0,1-20.4,20.4l-45.823-49.775Zm-5.319-4.881-15.937,15.935-4.868-5.288,15.508-15.51Zm30.5-37.309a28.815,28.815,0,0,1-9.216-1.5,3.612,3.612,0,0,0-3.7.867c-18.077,18.078-57.029,57.029-71.372,71.374a3.6,3.6,0,0,0-.867,3.7,28.876,28.876,0,0,1-27.344,38.063,29.55,29.55,0,0,1-3.143-.169l11.452-11.365a3.6,3.6,0,0,0,1.066-2.559v-10.2a3.607,3.607,0,0,0-1.056-2.55l-10.323-10.323a3.606,3.606,0,0,0-2.55-1.056h-10.2a3.61,3.61,0,0,0-2.561,1.066l-11.363,11.453a29.267,29.267,0,0,1-.169-3.144,28.875,28.875,0,0,1,38.063-27.344,3.6,3.6,0,0,0,3.7-.868l71.372-71.374a3.6,3.6,0,0,0,.868-3.7,28.874,28.874,0,0,1,27.343-38.063,29.468,29.468,0,0,1,3.238.179L1447.642,402a3.606,3.606,0,0,0-1.037,2.53v10.2a3.6,3.6,0,0,0,1.011,2.5l9.962,10.323a3.6,3.6,0,0,0,2.595,1.1h10.2a3.6,3.6,0,0,0,2.559-1.066l11.363-11.452a29.265,29.265,0,0,1,.169,3.144A28.879,28.879,0,0,1,1455.62,448.13Z" transform="translate(-1307.063 -383.223)"/></svg>