<svg xmlns="http://www.w3.org/2000/svg" width="204.658" height="204.658" viewBox="0 0 204.658 204.658"><defs><style>.a{fill:#15214B;}</style></defs><path class="a" d="M785.093-312.8H703.229c-2.07,0-4.114.108-6.14.31-.781.079-1.534.233-2.3.342-1.22.171-2.448.316-3.645.56-.95.19-1.866.456-2.8.681-.985.246-1.982.464-2.946.758s-1.976.683-2.959,1.041c-.852.311-1.705.594-2.555.937-1.024.42-2,.907-3,1.365-.753.36-1.517.7-2.254,1.087-1.022.537-1.98,1.131-2.957,1.707-.682.4-1.363.787-2.005,1.216-.99.649-1.934,1.365-2.883,2.046-.589.438-1.186.86-1.759,1.322-.959.764-1.873,1.574-2.783,2.385-.506.454-1.025.9-1.508,1.366-.925.886-1.8,1.817-2.669,2.759-.415.454-.839.9-1.241,1.365-.887,1.022-1.706,2.08-2.534,3.158-.342.429-.657.852-.971,1.293-.834,1.166-1.615,2.367-2.386,3.591-.239.385-.479.764-.707,1.156-.771,1.32-1.487,2.675-2.161,4.055-.154.319-.31.633-.462.953q-1.022,2.227-1.9,4.543l-.256.7q-.887,2.467-1.555,5.017c-.042.154-.081.312-.119.469q-.683,2.67-1.126,5.427l-.044.29q-.44,2.823-.614,5.727v.106l-.059.921c-.048.947-.107,1.834-.107,2.741v139.852a3.412,3.412,0,0,0,3.41,3.41h81.864a3.41,3.41,0,0,0,3.41-3.41v-78.454h54.577a61.4,61.4,0,0,0,61.4-61.4,61.4,61.4,0,0,0-61.4-61.4Zm-56.358,37.085c-.18.406-.342.822-.506,1.234q-.805,1.974-1.469,4.013c-.14.423-.287.834-.417,1.262-.513,1.7-.968,3.431-1.336,5.19-.069.325-.112.66-.177.987q-.431,2.23-.683,4.52c-.058.5-.116,1-.16,1.5-.175,1.852-.29,3.716-.29,5.6v136.439H648.655V-251.406c0-1,.1-1.971.15-2.956l.017-.254a54.791,54.791,0,0,1,1.624-10.416l.032-.121c.416-1.605.91-3.181,1.466-4.724l.122-.37c.535-1.458,1.137-2.88,1.789-4.272.1-.208.2-.414.3-.621q.94-1.951,2.03-3.806c.166-.283.341-.564.512-.843q1.052-1.721,2.215-3.36c.244-.342.5-.681.748-1,.758-1.024,1.543-2,2.365-2.944.32-.373.662-.731.991-1.1.8-.876,1.622-1.74,2.478-2.56.4-.387.822-.752,1.238-1.126.835-.758,1.684-1.507,2.567-2.211.481-.381.983-.737,1.474-1.105.87-.643,1.74-1.284,2.648-1.882.555-.362,1.134-.683,1.7-1.024.889-.537,1.776-1.077,2.7-1.566.635-.339,1.295-.627,1.945-.937.9-.433,1.792-.874,2.727-1.255.725-.3,1.474-.546,2.215-.812.889-.341,1.77-.683,2.68-.945.843-.256,1.708-.448,2.574-.662s1.671-.454,2.531-.627c1.047-.208,2.117-.342,3.185-.487.7-.1,1.389-.237,2.1-.308a51.461,51.461,0,0,1,5.454-.289h53.75c-.235.123-.46.266-.682.389-.392.211-.773.433-1.16.652q-1.852,1.021-3.622,2.2c-.34.231-.708.454-1.058.683q-2.155,1.471-4.174,3.121c-.262.214-.508.443-.768.662q-1.655,1.409-3.212,2.923c-.342.341-.684.681-1.022,1-1.222,1.249-2.413,2.532-3.529,3.883l-.092.118c-1.081,1.318-2.09,2.688-3.069,4.093-.273.4-.539.8-.806,1.2-.812,1.24-1.582,2.5-2.307,3.8-.152.269-.317.529-.462.8q-1.243,2.315-2.282,4.739Zm1.781,78.889v-26.58a61.754,61.754,0,0,0,26.576,26.58Zm54.577,0a54.578,54.578,0,0,1-54.577-54.577,54.575,54.575,0,0,1,54.577-54.574,54.574,54.574,0,0,1,54.575,54.574,54.641,54.641,0,0,1-54.575,54.577Zm0,0" transform="translate(-641.832 312.803)"/><path class="a" d="M865.173-250.116A23.878,23.878,0,0,0,841.3-226.239a23.878,23.878,0,0,0,23.877,23.878,23.878,23.878,0,0,0,23.878-23.878,23.908,23.908,0,0,0-23.878-23.877Zm0,40.932a17.055,17.055,0,0,1-17.054-17.055,17.055,17.055,0,0,1,17.054-17.054,17.056,17.056,0,0,1,17.055,17.054,17.076,17.076,0,0,1-17.055,17.055Zm0,0" transform="translate(-721.912 287.636)"/><rect class="a" width="6.822" height="6.822" transform="translate(40.932 57.987)"/><rect class="a" width="6.822" height="6.822" transform="translate(54.575 57.987)"/><rect class="a" width="6.822" height="6.822" transform="translate(68.22 57.987)"/><rect class="a" width="6.822" height="6.822" transform="translate(27.288 57.987)"/><rect class="a" width="6.82" height="6.822" transform="translate(13.645 57.987)"/><rect class="a" width="6.822" height="6.822" transform="translate(40.932 129.616)"/><rect class="a" width="6.822" height="6.822" transform="translate(54.575 129.616)"/><rect class="a" width="6.822" height="6.822" transform="translate(68.22 129.616)"/><rect class="a" width="6.822" height="6.822" transform="translate(27.288 129.616)"/><rect class="a" width="6.82" height="6.822" transform="translate(13.645 129.616)"/></svg>