<svg xmlns="http://www.w3.org/2000/svg" width="254.77" height="179.978" viewBox="0 0 254.77 179.978"><defs><style>.a{fill:#fff;}</style></defs><path class="a" d="M2113.541,686.318h-104.9a4.561,4.561,0,1,1,0-9.121h104.9a4.561,4.561,0,1,1,0,9.121Z" transform="translate(-1918.49 -522.084)"/><path class="a" d="M2112.869,579.889h-95.778a4.557,4.557,0,0,1-4.559-4.562V549.673a4.56,4.56,0,1,1,9.121,0v21.094h86.655V549.984a4.56,4.56,0,0,1,9.121,0v25.343A4.557,4.557,0,0,1,2112.869,579.889Z" transform="translate(-1922.279 -461.309)"/><path class="a" d="M2229.279,660.028a37.093,37.093,0,1,1,37.095-37.092A37.132,37.132,0,0,1,2229.279,660.028Zm0-65.068a27.973,27.973,0,1,0,27.974,27.974A28,28,0,0,0,2229.279,594.96Z" transform="translate(-2011.604 -480.05)"/><path class="a" d="M2243.7,657.531a20.178,20.178,0,1,1,20.176-20.178A20.2,20.2,0,0,1,2243.7,657.531Zm0-31.236a11.056,11.056,0,1,0,11.055,11.055A11.067,11.067,0,0,0,2243.7,626.3Z" transform="translate(-2026.021 -494.467)"/><path class="a" d="M1924.436,660.028a37.093,37.093,0,1,1,37.092-37.092A37.135,37.135,0,0,1,1924.436,660.028Zm0-65.068a27.973,27.973,0,1,0,27.968,27.974A28.008,28.008,0,0,0,1924.436,594.96Z" transform="translate(-1854.59 -480.05)"/><path class="a" d="M2114.615,519.97H1991.152a4.557,4.557,0,0,1-4.559-4.559,41.092,41.092,0,0,1,41.045-41.048h50.49a41.094,41.094,0,0,1,41.048,41.048A4.559,4.559,0,0,1,2114.615,519.97Zm-118.574-9.121h113.689a31.972,31.972,0,0,0-31.6-27.365h-50.487A31.973,31.973,0,0,0,1996.04,510.849Z" transform="translate(-1910.665 -428.756)"/><path class="a" d="M1947.7,551.622a4.555,4.555,0,0,1-3.894-2.179l-92.156-150.436H1831.24a4.561,4.561,0,1,1,0-9.121H1854.2a4.56,4.56,0,0,1,3.888,2.177l93.487,152.615a4.563,4.563,0,0,1-3.883,6.944Z" transform="translate(-1826.679 -389.886)"/><path class="a" d="M2137.7,471.822h-27.686a4.557,4.557,0,0,1-4.559-4.559V453.581a4.559,4.559,0,0,1,4.559-4.562H2137.7a4.559,4.559,0,0,1,4.559,4.562v13.683A4.557,4.557,0,0,1,2137.7,471.822Zm-23.125-9.121h18.563V458.14h-18.563Z" transform="translate(-1965.689 -417.094)"/><path class="a" d="M1939.573,657.531a20.178,20.178,0,1,1,20.176-20.178A20.2,20.2,0,0,1,1939.573,657.531Zm0-31.236a11.056,11.056,0,1,0,11.055,11.055A11.068,11.068,0,0,0,1939.573,626.3Z" transform="translate(-1872.967 -494.467)"/></svg>