<svg xmlns="http://www.w3.org/2000/svg" width="210.413" height="210.412" viewBox="0 0 210.413 210.412"><defs><style>.a{fill:#15214B;}</style></defs><g transform="translate(0 0)"><path class="a" d="M978.413,379.562v-7.014H943.344v-7.012a3.508,3.508,0,0,0-3.506-3.508h-54.66l-9.369-9.367a15.843,15.843,0,0,0-26.961,9.367H834.632a10.522,10.522,0,0,0-10.523,10.52v42.083a10.521,10.521,0,0,0,10.523,10.52h3.411l-5.359,23.234a15.942,15.942,0,0,0-30.075,3.57,15.315,15.315,0,0,0-3.046-.306,15.967,15.967,0,0,0-15.935,15.585H778.52a10.521,10.521,0,0,0,0,21.042h4.14l13.465,67.332a3.509,3.509,0,0,0,3.438,2.806H946.85a3.509,3.509,0,0,0,3.438-2.806l13.465-67.332h4.14a10.521,10.521,0,0,0,0-21.042h-14.2a15.6,15.6,0,0,0-16.03-14.026,19.164,19.164,0,0,0-24.868-8.887l-4.422-19.169h31.469a3.506,3.506,0,0,0,3.506-3.506v-7.014h35.069v-7.014H943.344V379.562ZM855.672,363.906a8.889,8.889,0,0,1,15.178-6.286l4.411,4.407h-9.069V374.3a5.21,5.21,0,0,1-.824,2.8l-.1.021.032.113a5.26,5.26,0,0,1-9.623-2.939Zm46.343,103.328h-4.67L890.713,414.2l-6.958.869,6.52,52.169H859.159a18.922,18.922,0,0,0-1.5-7.081l4.972-27.353-6.894-1.256-3.839,21.111a18.963,18.963,0,0,0-11.8-4.116c-.084,0-.161.022-.242.022l5.4-23.41h13.936a10.521,10.521,0,0,0,10.523-10.52V383.363a22.763,22.763,0,0,1,25.863,17.49L906.6,448.689a19.074,19.074,0,0,0-4.585,18.545Zm-67.383-49.1a3.509,3.509,0,0,1-3.509-3.508V372.548a3.509,3.509,0,0,1,3.509-3.506h14.026V374.3a12.08,12.08,0,0,0,.18,1.753h-7.194v7.014H852.37a12.224,12.224,0,0,0,8.564,3.506,12.029,12.029,0,0,0,1.753-.18v3.686H841.643V397.1h21.043v7.014H841.643v7.014h21.043v3.506a3.509,3.509,0,0,1-3.509,3.508Zm-35.069,40.525a8.793,8.793,0,0,1,4.6,1.323,3.508,3.508,0,0,0,3.752-.141,3.591,3.591,0,0,0,1.515-3.506,8.411,8.411,0,0,1-.13-1.2,8.964,8.964,0,0,1,17.928-.122v.2a3.508,3.508,0,0,0,5.61,2.806,11.947,11.947,0,0,1,7.245-2.483,12.092,12.092,0,0,1,12.083,11.691H790.605a8.975,8.975,0,0,1,8.958-8.571Zm35.069,22.6a10.521,10.521,0,0,0-10.523,10.52v14.029a3.506,3.506,0,1,1-7.012,0V474.248h35.069v21.041a3.507,3.507,0,1,1-7.014,0v-3.506a10.52,10.52,0,0,0-10.52-10.52Zm-56.112,0a3.507,3.507,0,0,1,0-7.014h31.563v7.014ZM921.7,551.4H884.018a7.014,7.014,0,0,1,7.014-7.014,6.938,6.938,0,0,1,5.077,2.209,3.508,3.508,0,0,0,5.916-1.435,10.27,10.27,0,0,1,9.9-7.5A10.389,10.389,0,0,1,922.3,548.039a9.885,9.885,0,0,1-.6,3.361Zm22.284,0H928.937a16.427,16.427,0,0,0,.379-3.361,17.337,17.337,0,0,0-32.061-9.208,13.857,13.857,0,0,0-6.223-1.46A14.029,14.029,0,0,0,877,551.4H802.433l-12.62-63.123h20.27v17.534a10.52,10.52,0,1,0,21.04,0V491.782a3.507,3.507,0,0,1,7.014,0v3.506a10.52,10.52,0,1,0,21.04,0v-7.012H956.6Zm23.907-77.152a3.507,3.507,0,0,1,0,7.014H859.178v-7.014Zm-52.757-23.371a12.241,12.241,0,0,1,16.357,5.676,12.1,12.1,0,0,1,.63,1.563,3.506,3.506,0,0,0,4.082,2.318,8.413,8.413,0,0,1,1.879-.214,8.768,8.768,0,0,1,8.592,7.014H909.461a12.244,12.244,0,0,1,5.675-16.357Zm21.194-32.738h-29.58L902.4,399.275a29.808,29.808,0,0,0-29.191-23.219h-.18a12.08,12.08,0,0,0,.18-1.753v-5.261H936.33Zm0,0" transform="translate(-768 -348.002)"/><path class="a" d="M782.029,399.2a14.027,14.027,0,1,0,14.026,14.026A14.027,14.027,0,0,0,782.029,399.2Zm0,21.041a7.013,7.013,0,1,1,7.012-7.014,7.014,7.014,0,0,1-7.012,7.014Zm0,0" transform="translate(-768 -371.146)"/><path class="a" d="M823.321,463.2a10.52,10.52,0,1,0,10.52,10.52,10.519,10.519,0,0,0-10.52-10.52Zm0,14.026a3.506,3.506,0,1,1,3.506-3.506,3.505,3.505,0,0,1-3.506,3.506Zm0,0" transform="translate(-788.252 -400.077)"/></g></svg>