<svg xmlns="http://www.w3.org/2000/svg" width="158.648" height="206.934" viewBox="0 0 158.648 206.934"><defs><style>.a{fill:#fff;}</style></defs><g transform="translate(0 0)"><path class="a" d="M502.481,372.4H350.728a3.448,3.448,0,0,0-3.448,3.448V562.091a3.447,3.447,0,0,0,3.448,3.448h6.9v10.349a3.45,3.45,0,0,0,3.448,3.448h13.8a3.448,3.448,0,0,0,3.448-3.448V565.538H474.89v10.349a3.448,3.448,0,0,0,3.448,3.448h13.8a3.45,3.45,0,0,0,3.448-3.448V565.538h6.9a3.447,3.447,0,0,0,3.448-3.448V375.849a3.448,3.448,0,0,0-3.448-3.448ZM371.423,572.437h-6.9v-6.9h6.9Zm117.261,0h-6.9v-6.9h6.9Zm10.346-13.794H354.178V420.687H499.03Zm0-144.855H354.178V379.3H499.03Zm0,0" transform="translate(-347.28 -372.401)"/><path class="a" d="M503.068,531.351c-.051-.581-.116-1.162-.181-1.741q-.24-1.986-.608-3.95c-.146-.8-.3-1.6-.478-2.387-.286-1.265-.6-2.52-.973-3.766-.267-.914-.566-1.811-.874-2.7-.238-.69-.49-1.381-.749-2.042a61.957,61.957,0,0,0-4.669-9.631c-.175-.288-.329-.592-.508-.882-.023-.038-.065-.059-.088-.1a62.082,62.082,0,1,0-.057,65.492,1.521,1.521,0,0,0,.128-.158c.194-.308.345-.629.541-.943a61.791,61.791,0,0,0,4.657-9.536c.248-.687.5-1.377.745-2.069.3-.891.6-1.779.87-2.686.375-1.269.69-2.553.989-3.842.172-.77.324-1.545.465-2.328q.369-1.964.608-3.949c.065-.581.13-1.16.181-1.743.166-1.834.28-3.676.28-5.518s-.114-3.69-.28-5.519Zm-61.8,60.695A55.183,55.183,0,1,1,486.1,504.813l-9.25,4.878a44.835,44.835,0,1,0,0,54.361l9.229,4.888a55.107,55.107,0,0,1-44.814,23.107ZM467.481,559.1l3.2,1.695a37.946,37.946,0,1,1,0-47.85l-3.194,1.686a10.313,10.313,0,0,0-5.526,9.153v26.189a10.317,10.317,0,0,0,5.52,9.127Zm1.378-9.127V523.781a3.453,3.453,0,0,1,1.842-3.052l3.858-2.033a37.835,37.835,0,0,1,0,36.343L470.705,553a3.454,3.454,0,0,1-1.846-3.031Zm27.343-8.178c-.038.411-.072.821-.116,1.231q-.25,2.2-.666,4.355c-.117.587-.257,1.168-.391,1.751-.206.9-.44,1.792-.689,2.673q-.474,1.645-1.036,3.259c-.244.69-.493,1.4-.766,2.069q-.505,1.269-1.076,2.516c-.19.413-.394.821-.594,1.227-.343.735-.709,1.47-1.1,2.192l-9.113-4.829a44.752,44.752,0,0,0,0-42.787l9.113-4.806c.4.726.751,1.467,1.109,2.208.194.393.392.783.571,1.179q.578,1.263,1.092,2.549c.253.638.48,1.294.712,1.943q.6,1.686,1.086,3.4c.245.865.476,1.724.689,2.621.139.6.28,1.189.4,1.789q.414,2.145.665,4.339c.044.411.08.825.118,1.236.146,1.625.248,3.263.248,4.924s-.112,3.33-.257,4.957Zm0,0" transform="translate(-361.944 -419.601)"/><path class="a" d="M485.626,398a10.346,10.346,0,1,0,10.346,10.346A10.345,10.345,0,0,0,485.626,398Zm0,13.794a3.449,3.449,0,1,1,3.448-3.448,3.447,3.447,0,0,1-3.448,3.448Zm0,0" transform="translate(-406.302 -384.206)"/><path class="a" d="M583.12,398H555.529a3.447,3.447,0,0,0-3.448,3.448v13.8a3.448,3.448,0,0,0,3.448,3.448H583.12a3.45,3.45,0,0,0,3.451-3.448v-13.8A3.449,3.449,0,0,0,583.12,398ZM579.672,411.8h-20.7v-6.9h20.7Zm0,0" transform="translate(-441.716 -384.206)"/><rect class="a" width="6.898" height="6.896" transform="translate(55.181 13.796)"/><rect class="a" width="6.898" height="6.898" transform="translate(55.181 27.59)"/><rect class="a" width="6.898" height="6.896" transform="translate(96.569 13.796)"/><rect class="a" width="6.898" height="6.898" transform="translate(96.569 27.59)"/><path class="a" d="M403.918,398H376.328a3.449,3.449,0,0,0-3.451,3.448V418.7h6.9V404.9h20.7v13.8h6.9V401.451A3.447,3.447,0,0,0,403.918,398Zm0,0" transform="translate(-359.083 -384.206)"/><path class="a" d="M480.081,533.38l1.724,6.677a24.229,24.229,0,0,1,6.035-.758v-6.9a31.011,31.011,0,0,0-7.759.979Zm0,0" transform="translate(-408.516 -446.178)"/><path class="a" d="M452.4,540.112A31.154,31.154,0,0,0,436.877,567h6.9a24.236,24.236,0,0,1,12.073-20.916Zm0,0" transform="translate(-388.594 -449.734)"/></g></svg>