<svg xmlns="http://www.w3.org/2000/svg" width="860.779" height="656.718" viewBox="0 0 860.779 656.718"><defs><style>.a{fill:#faff65;}.b{fill:#f2f2f2;}.c{fill:#fff;}.d{fill:#e6e6e6;}.e{fill:#5cbe62;}.f{fill:#ccc;}.g{fill:#3f3d56;}.h{fill:#a6c733;}</style></defs><g transform="translate(-910 -231)"><g transform="translate(910 231)"><circle class="a" cx="54.544" cy="54.544" r="54.544" transform="translate(68.412 278.688)"/><path class="b" d="M369.072,740.982h-.055a7.252,7.252,0,0,1-7.244-7.244V308.462a7.252,7.252,0,0,1,7.244-7.244H726.964a7.252,7.252,0,0,1,7.244,7.244V639.138a7.252,7.252,0,0,1-7.188,7.244Z" transform="translate(-134.414 -99.659)"/><path class="c" d="M651.962,212.693H485.772V116.388a7.679,7.679,0,0,1,7.67-7.67H644.292a7.679,7.679,0,0,1,7.67,7.67Zm-164.486-1.7H650.258v-94.6a5.973,5.973,0,0,0-5.966-5.966H493.442a5.973,5.973,0,0,0-5.966,5.966Z" transform="translate(-152.734 -71.219)"/><path class="d" d="M445.09,87h71.59a6.818,6.818,0,0,1,6.818,6.818V196.089H438.272V93.818A6.818,6.818,0,0,1,445.09,87Z" transform="translate(-64.752 -12.853)"/><path class="c" d="M551.714,103.922H516.772V68.979a4.266,4.266,0,0,1,4.261-4.261h26.42a4.266,4.266,0,0,1,4.261,4.261Zm-33.238-1.7H550.01V68.979a2.56,2.56,0,0,0-2.557-2.557h-26.42a2.56,2.56,0,0,0-2.557,2.557Z" transform="translate(-157.314 -64.718)"/><path class="e" d="M884.279,670.736c-.34,0-.67,0-1.01-.009a86.523,86.523,0,0,1-57.011-22.284q-.868-.79-1.722-1.6l-.264-.252V483.253l.081-.173c.564-1.2,1.136-2.375,1.709-3.554,17.727-35.99,38.4-55.809,58.217-55.809,28.576,0,50.738,39.2,61.4,62.564,14.833,32.491,25.193,72.752,25.193,97.907a86.569,86.569,0,0,1-85.608,86.538C884.95,670.736,884.61,670.736,884.279,670.736Zm-58.3-24.877c.472.446.949.886,1.426,1.321a84.826,84.826,0,0,0,55.9,21.843c.345.008.672,0,1,.008.309,0,.626,0,.936-.008,46.288-.514,83.935-38.57,83.935-84.834,0-24.937-10.3-64.907-25.039-97.2-10.5-22.993-32.232-61.567-59.854-61.567-19.132,0-39.263,19.48-56.686,54.853-.54,1.112-1.082,2.229-1.617,3.36Z" transform="translate(-202.745 -117.758)"/><path class="f" d="M894.507,799.766a.98.98,0,0,1-.981-.98V598.617a.981.981,0,0,1,1.961,0V798.786A.981.981,0,0,1,894.507,799.766Z" transform="translate(-212.977 -143.453)"/><path class="f" d="M297.507,799.766a.981.981,0,0,1-.981-.98V598.617a.981.981,0,1,1,1.961,0V798.786a.981.981,0,0,1-.981.98Z" transform="translate(-124.774 -143.453)"/><path class="f" d="M885.959,632.47a.978.978,0,0,1-.741-.338L835.9,575.261a.981.981,0,0,1,1.482-1.285L886.7,630.847a.981.981,0,0,1-.74,1.623Z" transform="translate(-204.428 -139.907)"/><path class="f" d="M894.507,675.982a.981.981,0,0,1-.693-1.674l28.022-28.022a.98.98,0,1,1,1.387,1.386L895.2,675.7a.977.977,0,0,1-.693.287Z" transform="translate(-212.977 -150.598)"/><path class="e" d="M988.414,828.781H915.119v-.852a36.649,36.649,0,1,1,73.3,0Zm-71.584-1.7H986.7a34.945,34.945,0,0,0-69.869,0Z" transform="translate(-216.167 -172.063)"/><path class="g" d="M955.941,809.875a.967.967,0,0,0-.967.967V821.12l-10.012-8.593a.968.968,0,0,0-1.26,1.468l11.273,9.675v6.038a.968.968,0,0,0,1.935,0V810.842a.968.968,0,0,0-.968-.967Z" transform="translate(-220.34 -174.81)"/><path class="e" d="M267.417,828.781h-73.3v-.852a36.649,36.649,0,1,1,73.3,0Zm-71.584-1.7H265.7a34.945,34.945,0,0,0-69.869,0Z" transform="translate(-109.644 -172.063)"/><path class="e" d="M234.941,809.875a.967.967,0,0,0-.968.967V821.12l-10.012-8.593a.968.968,0,0,0-1.26,1.468l11.273,9.675v6.038a.968.968,0,0,0,1.935,0V810.842a.968.968,0,0,0-.967-.967Z" transform="translate(-113.817 -174.81)"/><path class="e" d="M283.668,670.736c-.34,0-.67,0-1.01-.009a86.573,86.573,0,0,1-85.6-86.538c0-25.156,10.36-65.417,25.194-97.907,10.668-23.365,32.832-62.564,61.412-62.564,11.772,0,23.627,6.71,35.234,19.944.576.653,1.152,1.325,1.721,2.013l.195.236V662.373l-.481.233c-.574.278-1.156.539-1.738.791a85.744,85.744,0,0,1-33.942,7.332C284.339,670.736,284,670.736,283.668,670.736Zm0-245.314c-27.628,0-49.364,38.574-59.862,61.567-14.743,32.292-25.04,72.262-25.04,97.2,0,46.256,37.648,84.312,83.923,84.834.345.009.666.011,1,.008.309,0,.627,0,.936-.008a84.08,84.08,0,0,0,33.29-7.189c.4-.174.8-.351,1.2-.535V446.525c-.493-.593-.993-1.172-1.491-1.738C306.351,431.937,294.928,425.423,283.668,425.423Z" transform="translate(-110.079 -117.758)"/><path class="f" d="M289.959,632.47a.979.979,0,0,1-.741-.338L239.9,575.261a.981.981,0,0,1,1.482-1.285L290.7,630.847a.981.981,0,0,1-.74,1.623Z" transform="translate(-116.373 -139.907)"/><path class="f" d="M298.507,675.982a.981.981,0,0,1-.693-1.674l28.022-28.022a.98.98,0,1,1,1.387,1.386L299.2,675.7a.977.977,0,0,1-.694.287Z" transform="translate(-124.922 -150.598)"/><path class="c" d="M381.827,237.241l.631,1.244a3.77,3.77,0,0,1,.426,1.739v33.664h29.829V240.223a3.77,3.77,0,0,1,.426-1.739l.631-1.244Zm29.181,2.983v31.96h-26.42v-31.96a5.35,5.35,0,0,0-.154-1.278h26.727a5.349,5.349,0,0,0-.153,1.278Zm8.318-2.983.631,1.244a3.77,3.77,0,0,1,.426,1.739v33.664h29.829V240.223a3.77,3.77,0,0,1,.426-1.739l.631-1.244Zm29.181,2.983v31.96h-26.42v-31.96a5.35,5.35,0,0,0-.154-1.278h26.727a5.349,5.349,0,0,0-.153,1.278Zm8.318-2.983.631,1.244a3.77,3.77,0,0,1,.426,1.739v33.664h29.829V240.223a3.77,3.77,0,0,1,.426-1.739l.631-1.244Zm29.181,2.983v31.96h-26.42v-31.96a5.35,5.35,0,0,0-.154-1.278h26.727a5.351,5.351,0,0,0-.153,1.278Zm8.318-2.983.631,1.244a3.769,3.769,0,0,1,.426,1.739v33.664h29.829V240.223a3.77,3.77,0,0,1,.426-1.739l.631-1.244Zm29.181,2.983v31.96h-26.42v-31.96a5.348,5.348,0,0,0-.154-1.278H523.66a5.351,5.351,0,0,0-.153,1.278Zm8.318-2.983.631,1.244a3.77,3.77,0,0,1,.426,1.739v33.664H562.71V240.223a3.77,3.77,0,0,1,.426-1.739l.631-1.244Zm29.181,2.983v31.96h-26.42v-31.96a5.351,5.351,0,0,0-.154-1.278h26.727a5.354,5.354,0,0,0-.153,1.278Zm8.318-2.983.631,1.244a3.77,3.77,0,0,1,.426,1.739v33.664h29.829V240.223a3.77,3.77,0,0,1,.426-1.739l.631-1.244Zm29.181,2.983v31.96h-26.42v-31.96a5.348,5.348,0,0,0-.154-1.278h26.727a5.347,5.347,0,0,0-.153,1.278Zm8.318-2.983.631,1.244a3.769,3.769,0,0,1,.426,1.739v33.664h29.829V240.223a3.771,3.771,0,0,1,.426-1.739l.631-1.244ZM636,240.223v31.96h-26.42v-31.96a5.351,5.351,0,0,0-.154-1.278h26.727a5.354,5.354,0,0,0-.153,1.278Zm8.318-2.983.631,1.244a3.77,3.77,0,0,1,.426,1.739v33.664h29.829V240.223a3.769,3.769,0,0,1,.426-1.739l.631-1.244Zm29.181,2.983v31.96h-26.42v-31.96a5.348,5.348,0,0,0-.154-1.278h26.727a5.351,5.351,0,0,0-.153,1.278Zm8.318-2.983.631,1.244a3.77,3.77,0,0,1,.426,1.739v33.664h29.829V240.223a3.771,3.771,0,0,1,.426-1.739l.631-1.244ZM711,240.223v31.96h-26.42v-31.96a5.351,5.351,0,0,0-.154-1.278h26.727a5.347,5.347,0,0,0-.152,1.278Zm-29.181-2.983.631,1.244a3.77,3.77,0,0,1,.426,1.739v33.664h29.829V240.223a3.771,3.771,0,0,1,.426-1.739l.631-1.244ZM711,240.223v31.96h-26.42v-31.96a5.351,5.351,0,0,0-.154-1.278h26.727a5.347,5.347,0,0,0-.152,1.278Zm-66.681-2.983.631,1.244a3.769,3.769,0,0,1,.426,1.739v33.664h29.829V240.223a3.771,3.771,0,0,1,.426-1.739l.631-1.244Zm29.181,2.983v31.96h-26.42v-31.96a5.345,5.345,0,0,0-.154-1.278h26.727a5.347,5.347,0,0,0-.153,1.278Zm-66.681-2.983.631,1.244a3.77,3.77,0,0,1,.426,1.739v33.664h29.829V240.223a3.771,3.771,0,0,1,.426-1.739l.631-1.244ZM636,240.223v31.96h-26.42v-31.96a5.351,5.351,0,0,0-.154-1.278h26.727a5.347,5.347,0,0,0-.152,1.278Zm-66.681-2.983.631,1.244a3.769,3.769,0,0,1,.426,1.739v33.664h29.829V240.223a3.77,3.77,0,0,1,.426-1.739l.631-1.244Zm29.181,2.983v31.96h-26.42v-31.96a5.351,5.351,0,0,0-.154-1.278h26.727a5.351,5.351,0,0,0-.153,1.278Zm-66.681-2.983.631,1.244a3.77,3.77,0,0,1,.426,1.739v33.664H562.71V240.223a3.771,3.771,0,0,1,.426-1.739l.631-1.244Zm29.181,2.983v31.96h-26.42v-31.96a5.348,5.348,0,0,0-.154-1.278h26.727a5.347,5.347,0,0,0-.153,1.278Zm-66.681-2.983.631,1.244a3.77,3.77,0,0,1,.426,1.739v33.664h29.829V240.223a3.771,3.771,0,0,1,.426-1.739l.631-1.244Zm29.181,2.983v31.96h-26.42v-31.96a5.35,5.35,0,0,0-.154-1.278H523.66a5.351,5.351,0,0,0-.153,1.278Zm-66.681-2.983.631,1.244a3.769,3.769,0,0,1,.426,1.739v33.664h29.829V240.223a3.771,3.771,0,0,1,.426-1.739l.631-1.244Zm29.181,2.983v31.96h-26.42v-31.96a5.351,5.351,0,0,0-.154-1.278H486.16a5.349,5.349,0,0,0-.152,1.278Zm-66.681-2.983.631,1.244a3.769,3.769,0,0,1,.426,1.739v33.664h29.829V240.223a3.77,3.77,0,0,1,.426-1.739l.631-1.244Zm29.181,2.983v31.96h-26.42v-31.96a5.351,5.351,0,0,0-.154-1.278h26.727a5.35,5.35,0,0,0-.152,1.278Zm-66.681-2.983.631,1.244a3.77,3.77,0,0,1,.426,1.739v33.664h29.829V240.223a3.77,3.77,0,0,1,.426-1.739l.631-1.244Zm29.181,2.983v31.96h-26.42v-31.96a5.35,5.35,0,0,0-.154-1.278h26.727a5.35,5.35,0,0,0-.152,1.278Zm270.813-2.983.631,1.244a3.77,3.77,0,0,1,.426,1.739v33.664h29.829V240.223a3.77,3.77,0,0,1,.426-1.739l.631-1.244ZM711,240.223v31.96h-26.42v-31.96a5.348,5.348,0,0,0-.154-1.278h26.727a5.347,5.347,0,0,0-.153,1.278Zm-66.681-2.983.631,1.244a3.77,3.77,0,0,1,.426,1.739v33.664h29.829V240.223a3.77,3.77,0,0,1,.426-1.739l.631-1.244Zm29.181,2.983v31.96h-26.42v-31.96a5.348,5.348,0,0,0-.154-1.278h26.727a5.35,5.35,0,0,0-.153,1.278Zm-66.681-2.983.631,1.244a3.768,3.768,0,0,1,.426,1.739v33.664h29.829V240.223a3.769,3.769,0,0,1,.426-1.739l.631-1.244ZM636,240.223v31.96h-26.42v-31.96a5.351,5.351,0,0,0-.154-1.278h26.727a5.347,5.347,0,0,0-.153,1.278Zm-66.681-2.983.631,1.244a3.77,3.77,0,0,1,.426,1.739v33.664h29.829V240.223a3.77,3.77,0,0,1,.426-1.739l.631-1.244Zm29.181,2.983v31.96h-26.42v-31.96a5.348,5.348,0,0,0-.154-1.278h26.727a5.347,5.347,0,0,0-.153,1.278Zm-66.681-2.983.631,1.244a3.77,3.77,0,0,1,.426,1.739v33.664H562.71V240.223a3.769,3.769,0,0,1,.426-1.739l.631-1.244Zm29.181,2.983v31.96h-26.42v-31.96a5.351,5.351,0,0,0-.154-1.278h26.727a5.351,5.351,0,0,0-.153,1.278Zm-66.681-2.983.631,1.244a3.769,3.769,0,0,1,.426,1.739v33.664h29.829V240.223a3.77,3.77,0,0,1,.426-1.739l.631-1.244Zm29.181,2.983v31.96h-26.42v-31.96a5.35,5.35,0,0,0-.154-1.278H523.66a5.354,5.354,0,0,0-.153,1.278Zm-66.681-2.983.631,1.244a3.77,3.77,0,0,1,.426,1.739v33.664h29.829V240.223a3.77,3.77,0,0,1,.426-1.739l.631-1.244Zm29.181,2.983v31.96h-26.42v-31.96a5.351,5.351,0,0,0-.154-1.278h26.727a5.351,5.351,0,0,0-.153,1.278Zm-66.681-2.983.631,1.244a3.769,3.769,0,0,1,.426,1.739v33.664h29.829V240.223a3.77,3.77,0,0,1,.426-1.739l.631-1.244Zm29.181,2.983v31.96h-26.42v-31.96a5.348,5.348,0,0,0-.154-1.278h26.727a5.352,5.352,0,0,0-.153,1.278Zm-66.681-2.983.631,1.244a3.769,3.769,0,0,1,.426,1.739v33.664h29.829V240.223a3.77,3.77,0,0,1,.426-1.739l.631-1.244Zm29.181,2.983v31.96h-26.42v-31.96a5.35,5.35,0,0,0-.154-1.278h26.727a5.352,5.352,0,0,0-.153,1.278Zm270.813-2.983.631,1.244a3.769,3.769,0,0,1,.426,1.739v33.664h29.829V240.223a3.771,3.771,0,0,1,.426-1.739l.631-1.244ZM711,240.223v31.96h-26.42v-31.96a5.348,5.348,0,0,0-.154-1.278h26.727a5.35,5.35,0,0,0-.153,1.278Zm-66.681-2.983.631,1.244a3.77,3.77,0,0,1,.426,1.739v33.664h29.829V240.223a3.77,3.77,0,0,1,.426-1.739l.631-1.244Zm29.181,2.983v31.96h-26.42v-31.96a5.351,5.351,0,0,0-.154-1.278h26.727a5.351,5.351,0,0,0-.153,1.278Zm-66.681-2.983.631,1.244a3.77,3.77,0,0,1,.426,1.739v33.664h29.829V240.223a3.771,3.771,0,0,1,.426-1.739l.631-1.244ZM636,240.223v31.96h-26.42v-31.96a5.348,5.348,0,0,0-.154-1.278h26.727a5.354,5.354,0,0,0-.153,1.278Zm-66.681-2.983.631,1.244a3.769,3.769,0,0,1,.426,1.739v33.664H600.21V240.223a3.77,3.77,0,0,1,.426-1.739l.631-1.244Zm29.181,2.983v31.96h-26.42v-31.96a5.348,5.348,0,0,0-.154-1.278h26.727a5.351,5.351,0,0,0-.153,1.278Zm-66.681-2.983.631,1.244a3.77,3.77,0,0,1,.426,1.739v33.664H562.71V240.223a3.771,3.771,0,0,1,.426-1.739l.631-1.244Zm29.181,2.983v31.96h-26.42v-31.96a5.348,5.348,0,0,0-.154-1.278h26.727a5.351,5.351,0,0,0-.153,1.278Zm-66.681-2.983.631,1.244a3.77,3.77,0,0,1,.426,1.739v33.664h29.829V240.223a3.771,3.771,0,0,1,.426-1.739l.631-1.244Zm29.181,2.983v31.96h-26.42v-31.96a5.35,5.35,0,0,0-.154-1.278H523.66a5.354,5.354,0,0,0-.153,1.278Zm-66.681-2.983.631,1.244a3.769,3.769,0,0,1,.426,1.739v33.664h29.829V240.223a3.77,3.77,0,0,1,.426-1.739l.631-1.244Zm29.181,2.983v31.96h-26.42v-31.96a5.35,5.35,0,0,0-.154-1.278h26.727a5.351,5.351,0,0,0-.153,1.278Zm-66.681-2.983.631,1.244a3.77,3.77,0,0,1,.426,1.739v33.664h29.829V240.223a3.77,3.77,0,0,1,.426-1.739l.631-1.244Zm29.181,2.983v31.96h-26.42v-31.96a5.35,5.35,0,0,0-.154-1.278h26.727a5.349,5.349,0,0,0-.153,1.278Zm-66.681-2.983.631,1.244a3.77,3.77,0,0,1,.426,1.739v33.664h29.829V240.223a3.77,3.77,0,0,1,.426-1.739l.631-1.244Zm29.181,2.983v31.96h-26.42v-31.96a5.348,5.348,0,0,0-.154-1.278h26.727a5.351,5.351,0,0,0-.153,1.278Zm270.813-2.983.631,1.244a3.77,3.77,0,0,1,.426,1.739v33.664h29.829V240.223a3.769,3.769,0,0,1,.426-1.739l.631-1.244ZM711,240.223v31.96h-26.42v-31.96a5.351,5.351,0,0,0-.154-1.278h26.727a5.351,5.351,0,0,0-.153,1.278Zm-66.681-2.983.631,1.244a3.769,3.769,0,0,1,.426,1.739v33.664h29.829V240.223a3.77,3.77,0,0,1,.426-1.739l.631-1.244Zm29.181,2.983v31.96h-26.42v-31.96a5.348,5.348,0,0,0-.154-1.278h26.727a5.351,5.351,0,0,0-.153,1.278Zm-66.681-2.983.631,1.244a3.77,3.77,0,0,1,.426,1.739v33.664h29.829V240.223a3.77,3.77,0,0,1,.426-1.739l.631-1.244ZM636,240.223v31.96h-26.42v-31.96a5.348,5.348,0,0,0-.154-1.278h26.727a5.351,5.351,0,0,0-.153,1.278Zm-66.681-2.983.631,1.244a3.769,3.769,0,0,1,.426,1.739v33.664H600.21V240.223a3.77,3.77,0,0,1,.426-1.739l.631-1.244Zm29.181,2.983v31.96h-26.42v-31.96a5.348,5.348,0,0,0-.154-1.278h26.727a5.351,5.351,0,0,0-.153,1.278Zm-66.681-2.983.631,1.244a3.77,3.77,0,0,1,.426,1.739v33.664h29.829V240.223a3.771,3.771,0,0,1,.426-1.739l.631-1.244Zm29.181,2.983v31.96h-26.42v-31.96a5.351,5.351,0,0,0-.154-1.278h26.727a5.354,5.354,0,0,0-.153,1.278Zm-66.681-2.983.631,1.244a3.769,3.769,0,0,1,.426,1.739v33.664h29.829V240.223a3.769,3.769,0,0,1,.426-1.739l.631-1.244Zm29.181,2.983v31.96h-26.42v-31.96a5.35,5.35,0,0,0-.154-1.278H523.66a5.351,5.351,0,0,0-.153,1.278Zm-66.681-2.983.631,1.244a3.77,3.77,0,0,1,.426,1.739v33.664h29.829V240.223a3.771,3.771,0,0,1,.426-1.739l.631-1.244Zm29.181,2.983v31.96h-26.42v-31.96a5.348,5.348,0,0,0-.154-1.278h26.727a5.349,5.349,0,0,0-.153,1.278Zm-66.681-2.983.631,1.244a3.769,3.769,0,0,1,.426,1.739v33.664h29.829V240.223a3.77,3.77,0,0,1,.426-1.739l.631-1.244Zm29.181,2.983v31.96h-26.42v-31.96a5.348,5.348,0,0,0-.154-1.278h26.727a5.349,5.349,0,0,0-.153,1.278Zm-66.681-2.983.631,1.244a3.77,3.77,0,0,1,.426,1.739v33.664h29.829V240.223a3.77,3.77,0,0,1,.426-1.739l.631-1.244Zm29.181,2.983v31.96h-26.42v-31.96a5.351,5.351,0,0,0-.154-1.278h26.727a5.349,5.349,0,0,0-.153,1.278Zm270.813-2.983.631,1.244a3.77,3.77,0,0,1,.426,1.739v33.664h29.829V240.223a3.771,3.771,0,0,1,.426-1.739l.631-1.244ZM711,240.223v31.96h-26.42v-31.96a5.348,5.348,0,0,0-.154-1.278h26.727a5.351,5.351,0,0,0-.153,1.278Zm-66.05-1.739a3.769,3.769,0,0,1,.426,1.739v33.664h29.829V240.223a3.771,3.771,0,0,1,.426-1.739l.631-1.244H644.322Zm28.7.46a5.351,5.351,0,0,0-.154,1.278v31.96h-26.42v-31.96a5.351,5.351,0,0,0-.154-1.278Zm-66.2-.46a3.77,3.77,0,0,1,.426,1.739v33.664h29.829V240.223a3.77,3.77,0,0,1,.426-1.739l.631-1.244H606.823Zm28.7.46a5.351,5.351,0,0,0-.154,1.278v31.96h-26.42v-31.96a5.348,5.348,0,0,0-.154-1.278Zm-66.2-.46a3.77,3.77,0,0,1,.426,1.739v33.664H600.21V240.223a3.77,3.77,0,0,1,.426-1.739l.631-1.244H569.324Zm28.7.46a5.351,5.351,0,0,0-.154,1.278v31.96h-26.42v-31.96a5.351,5.351,0,0,0-.154-1.278Zm-66.2-.46a3.769,3.769,0,0,1,.426,1.739v33.664h29.829V240.223a3.77,3.77,0,0,1,.426-1.739l.631-1.244H531.824Zm28.7.46a5.351,5.351,0,0,0-.154,1.278v31.96h-26.42v-31.96a5.351,5.351,0,0,0-.154-1.278Zm-66.2-.46a3.77,3.77,0,0,1,.426,1.739v33.664h29.829V240.223a3.77,3.77,0,0,1,.426-1.739l.631-1.244H494.325Zm28.7.46a5.354,5.354,0,0,0-.154,1.278v31.96h-26.42v-31.96a5.348,5.348,0,0,0-.154-1.278Zm-66.2-.46a3.77,3.77,0,0,1,.426,1.739v33.664h29.829V240.223a3.77,3.77,0,0,1,.426-1.739l.631-1.244H456.826Zm28.7.46a5.351,5.351,0,0,0-.154,1.278v31.96h-26.42v-31.96a5.348,5.348,0,0,0-.154-1.278Zm-66.2-.46a3.769,3.769,0,0,1,.426,1.739v33.664h29.829V240.223a3.77,3.77,0,0,1,.426-1.739l.631-1.244H419.326Zm28.7.46a5.351,5.351,0,0,0-.154,1.278v31.96h-26.42v-31.96a5.35,5.35,0,0,0-.154-1.278Zm-66.2-.46a3.769,3.769,0,0,1,.426,1.739v33.664h29.829V240.223a3.77,3.77,0,0,1,.426-1.739l.631-1.244H381.827Zm28.7.46a5.348,5.348,0,0,0-.154,1.278v31.96h-26.42v-31.96a5.35,5.35,0,0,0-.154-1.278Zm271.29-.46a3.77,3.77,0,0,1,.426,1.739v33.664h29.829V240.223a3.771,3.771,0,0,1,.426-1.739l.631-1.244H681.822Zm28.7.46a5.351,5.351,0,0,0-.154,1.278v31.96h-26.42v-31.96a5.351,5.351,0,0,0-.154-1.278Zm-66.2-.46a3.77,3.77,0,0,1,.426,1.739v33.664h29.829V240.223a3.771,3.771,0,0,1,.426-1.739l.631-1.244H644.322Zm28.7.46a5.348,5.348,0,0,0-.154,1.278v31.96h-26.42v-31.96a5.348,5.348,0,0,0-.154-1.278Zm-66.2-.46a3.769,3.769,0,0,1,.426,1.739v33.664h29.829V240.223a3.771,3.771,0,0,1,.426-1.739l.631-1.244H606.823Zm28.7.46a5.351,5.351,0,0,0-.154,1.278v31.96h-26.42v-31.96a5.351,5.351,0,0,0-.154-1.278Zm-66.2-.46a3.77,3.77,0,0,1,.426,1.739v33.664H600.21V240.223a3.771,3.771,0,0,1,.426-1.739l.631-1.244H569.324Zm28.7.46a5.351,5.351,0,0,0-.154,1.278v31.96h-26.42v-31.96a5.348,5.348,0,0,0-.154-1.278Zm-66.2-.46a3.77,3.77,0,0,1,.426,1.739v33.664h29.829V240.223a3.771,3.771,0,0,1,.426-1.739l.631-1.244H531.824Zm28.7.46a5.354,5.354,0,0,0-.154,1.278v31.96h-26.42v-31.96a5.348,5.348,0,0,0-.154-1.278Zm-66.2-.46a3.769,3.769,0,0,1,.426,1.739v33.664h29.829V240.223a3.77,3.77,0,0,1,.426-1.739l.631-1.244H494.325Zm28.7.46a5.351,5.351,0,0,0-.154,1.278v31.96h-26.42v-31.96a5.348,5.348,0,0,0-.154-1.278Zm-66.2-.46a3.769,3.769,0,0,1,.426,1.739v33.664h29.829V240.223a3.771,3.771,0,0,1,.426-1.739l.631-1.244H456.826Zm28.7.46a5.351,5.351,0,0,0-.154,1.278v31.96h-26.42v-31.96a5.351,5.351,0,0,0-.154-1.278Zm-66.2-.46a3.769,3.769,0,0,1,.426,1.739v33.664h29.829V240.223a3.77,3.77,0,0,1,.426-1.739l.631-1.244H419.326Zm28.7.46a5.348,5.348,0,0,0-.154,1.278v31.96h-26.42v-31.96a5.35,5.35,0,0,0-.154-1.278Zm-66.2-.46a3.769,3.769,0,0,1,.426,1.739v33.664h29.829V240.223a3.77,3.77,0,0,1,.426-1.739l.631-1.244H381.827Zm28.7.46a5.351,5.351,0,0,0-.154,1.278v31.96h-26.42v-31.96a5.351,5.351,0,0,0-.154-1.278ZM746.8,279H736.64a9.4,9.4,0,0,0-9.017-6.818h-5.54v-31.96a5.328,5.328,0,0,0-.384-2,5.1,5.1,0,0,0-2.6-9.5H376.493a5.1,5.1,0,0,0-2.6,9.5,5.328,5.328,0,0,0-.384,2v31.96h-5.54A9.4,9.4,0,0,0,358.953,279H347.942a7.682,7.682,0,0,0-7.67,7.67V736.663a7.687,7.687,0,0,0,7.67,7.67H746.8a7.682,7.682,0,0,0,7.67-7.67V286.671A7.682,7.682,0,0,0,746.8,279Zm5.966,457.662a5.97,5.97,0,0,1-3.895,5.591,5.728,5.728,0,0,1-2.071.375H347.942a5.729,5.729,0,0,1-2.071-.375,5.97,5.97,0,0,1-3.895-5.591V286.671a5.972,5.972,0,0,1,5.966-5.966h12.375l.136-.682a7.7,7.7,0,0,1,7.517-6.136h7.244V240.223a3.83,3.83,0,0,1,.546-1.969l.528-.878-.963-.358a3.4,3.4,0,0,1,1.168-6.6H719.1a3.4,3.4,0,0,1,1.168,6.6l-.963.358.528.878a3.825,3.825,0,0,1,.546,1.969v33.664h7.244a7.7,7.7,0,0,1,7.517,6.136l.136.682H746.8a5.972,5.972,0,0,1,5.966,5.966ZM381.828,237.241l.631,1.244a3.77,3.77,0,0,1,.426,1.739v33.664h29.829V240.223a3.77,3.77,0,0,1,.426-1.739l.631-1.244Zm29.181,2.983v31.96h-26.42v-31.96a5.35,5.35,0,0,0-.154-1.278h26.727a5.351,5.351,0,0,0-.154,1.278Zm8.318-2.983.631,1.244a3.77,3.77,0,0,1,.426,1.739v33.664h29.829V240.223a3.77,3.77,0,0,1,.426-1.739l.631-1.244Zm29.181,2.983v31.96h-26.42v-31.96a5.351,5.351,0,0,0-.154-1.278h26.727a5.351,5.351,0,0,0-.154,1.278Zm8.318-2.983.631,1.244a3.77,3.77,0,0,1,.426,1.739v33.664h29.829V240.223a3.771,3.771,0,0,1,.426-1.739l.631-1.244Zm29.181,2.983v31.96h-26.42v-31.96a5.351,5.351,0,0,0-.154-1.278h26.727a5.353,5.353,0,0,0-.154,1.278Zm8.318-2.983.631,1.244a3.769,3.769,0,0,1,.426,1.739v33.664h29.829V240.223a3.771,3.771,0,0,1,.426-1.739l.631-1.244Zm29.181,2.983v31.96h-26.42v-31.96a5.35,5.35,0,0,0-.154-1.278h26.727a5.354,5.354,0,0,0-.154,1.278Zm8.318-2.983.631,1.244a3.77,3.77,0,0,1,.426,1.739v33.664h29.829V240.223a3.77,3.77,0,0,1,.426-1.739l.631-1.244Zm29.181,2.983v31.96h-26.42v-31.96a5.348,5.348,0,0,0-.154-1.278H561.16a5.345,5.345,0,0,0-.154,1.278Zm8.318-2.983.631,1.244a3.769,3.769,0,0,1,.426,1.739v33.664H600.21V240.223a3.771,3.771,0,0,1,.426-1.739l.631-1.244Zm29.181,2.983v31.96h-26.42v-31.96a5.351,5.351,0,0,0-.154-1.278h26.727a5.351,5.351,0,0,0-.153,1.278Zm8.318-2.983.631,1.244a3.77,3.77,0,0,1,.426,1.739v33.664H637.71V240.223a3.769,3.769,0,0,1,.426-1.739l.631-1.244ZM636,240.223v31.96h-26.42v-31.96a5.348,5.348,0,0,0-.154-1.278h26.727a5.354,5.354,0,0,0-.153,1.278Zm8.318-2.983.631,1.244a3.77,3.77,0,0,1,.426,1.739v33.664h29.829V240.223a3.771,3.771,0,0,1,.426-1.739l.631-1.244Zm29.181,2.983v31.96h-26.42v-31.96a5.348,5.348,0,0,0-.154-1.278h26.727a5.345,5.345,0,0,0-.153,1.278Zm8.318-2.983.631,1.244a3.769,3.769,0,0,1,.426,1.739v33.664h29.829V240.223a3.771,3.771,0,0,1,.426-1.739l.631-1.244ZM711,240.223v31.96h-26.42v-31.96a5.351,5.351,0,0,0-.154-1.278h26.727a5.354,5.354,0,0,0-.153,1.278Zm-329.176-2.983.631,1.244a3.77,3.77,0,0,1,.426,1.739v33.664h29.829V240.223a3.77,3.77,0,0,1,.426-1.739l.631-1.244Zm29.181,2.983v31.96h-26.42v-31.96a5.351,5.351,0,0,0-.154-1.278h26.727a5.351,5.351,0,0,0-.153,1.278Zm8.318-2.983.631,1.244a3.77,3.77,0,0,1,.426,1.739v33.664h29.829V240.223a3.77,3.77,0,0,1,.426-1.739l.631-1.244Zm29.181,2.983v31.96h-26.42v-31.96a5.351,5.351,0,0,0-.154-1.278h26.727a5.351,5.351,0,0,0-.153,1.278Zm8.318-2.983.631,1.244a3.77,3.77,0,0,1,.426,1.739v33.664h29.829V240.223a3.77,3.77,0,0,1,.426-1.739l.631-1.244Zm29.181,2.983v31.96h-26.42v-31.96a5.35,5.35,0,0,0-.154-1.278h26.727a5.353,5.353,0,0,0-.153,1.278Zm8.318-2.983.631,1.244a3.771,3.771,0,0,1,.426,1.739v33.664h29.829V240.223a3.77,3.77,0,0,1,.426-1.739l.631-1.244Zm29.181,2.983v31.96h-26.42v-31.96a5.35,5.35,0,0,0-.154-1.278h26.727a5.354,5.354,0,0,0-.153,1.278Zm8.318-2.983.631,1.244a3.77,3.77,0,0,1,.426,1.739v33.664h29.829V240.223a3.771,3.771,0,0,1,.426-1.739l.631-1.244Zm29.181,2.983v31.96h-26.42v-31.96a5.351,5.351,0,0,0-.154-1.278H561.16a5.348,5.348,0,0,0-.153,1.278Zm8.318-2.983.631,1.244a3.77,3.77,0,0,1,.426,1.739v33.664H600.21V240.223a3.77,3.77,0,0,1,.426-1.739l.631-1.244Zm29.181,2.983v31.96h-26.42v-31.96a5.348,5.348,0,0,0-.154-1.278h26.727a5.351,5.351,0,0,0-.153,1.278Zm8.318-2.983.631,1.244a3.769,3.769,0,0,1,.426,1.739v33.664h29.829V240.223a3.771,3.771,0,0,1,.426-1.739l.631-1.244ZM636,240.223v31.96h-26.42v-31.96a5.351,5.351,0,0,0-.154-1.278h26.727a5.354,5.354,0,0,0-.153,1.278Zm8.318-2.983.631,1.244a3.77,3.77,0,0,1,.426,1.739v33.664h29.829V240.223a3.769,3.769,0,0,1,.426-1.739l.631-1.244Zm29.181,2.983v31.96h-26.42v-31.96a5.348,5.348,0,0,0-.154-1.278h26.727a5.348,5.348,0,0,0-.153,1.278Zm8.318-2.983.631,1.244a3.77,3.77,0,0,1,.426,1.739v33.664h29.829V240.223a3.771,3.771,0,0,1,.426-1.739l.631-1.244ZM711,240.223v31.96h-26.42v-31.96a5.348,5.348,0,0,0-.154-1.278h26.727a5.351,5.351,0,0,0-.153,1.278Zm-329.176-2.983.631,1.244a3.77,3.77,0,0,1,.426,1.739v33.664h29.829V240.223a3.77,3.77,0,0,1,.426-1.739l.631-1.244Zm29.181,2.983v31.96h-26.42v-31.96a5.35,5.35,0,0,0-.154-1.278h26.727a5.349,5.349,0,0,0-.153,1.278Zm8.318-2.983.631,1.244a3.77,3.77,0,0,1,.426,1.739v33.664h29.829V240.223a3.77,3.77,0,0,1,.426-1.739l.631-1.244Zm29.181,2.983v31.96h-26.42v-31.96a5.35,5.35,0,0,0-.154-1.278h26.727a5.351,5.351,0,0,0-.153,1.278Zm8.318-2.983.631,1.244a3.77,3.77,0,0,1,.426,1.739v33.664h29.829V240.223a3.771,3.771,0,0,1,.426-1.739l.631-1.244Zm29.181,2.983v31.96h-26.42v-31.96a5.35,5.35,0,0,0-.154-1.278h26.727a5.351,5.351,0,0,0-.153,1.278Zm8.318-2.983.631,1.244a3.77,3.77,0,0,1,.426,1.739v33.664h29.829V240.223a3.77,3.77,0,0,1,.426-1.739l.631-1.244Zm29.181,2.983v31.96h-26.42v-31.96a5.35,5.35,0,0,0-.154-1.278H523.66a5.354,5.354,0,0,0-.153,1.278Zm8.318-2.983.631,1.244a3.77,3.77,0,0,1,.426,1.739v33.664h29.829V240.223a3.77,3.77,0,0,1,.426-1.739l.631-1.244Zm29.181,2.983v31.96h-26.42v-31.96a5.345,5.345,0,0,0-.154-1.278H561.16a5.348,5.348,0,0,0-.153,1.278Zm8.318-2.983.631,1.244a3.77,3.77,0,0,1,.426,1.739v33.664H600.21V240.223a3.769,3.769,0,0,1,.426-1.739l.631-1.244Zm29.181,2.983v31.96h-26.42v-31.96a5.351,5.351,0,0,0-.154-1.278h26.727a5.354,5.354,0,0,0-.153,1.278Zm8.318-2.983.631,1.244a3.77,3.77,0,0,1,.426,1.739v33.664h29.829V240.223a3.77,3.77,0,0,1,.426-1.739l.631-1.244ZM636,240.223v31.96h-26.42v-31.96a5.348,5.348,0,0,0-.154-1.278h26.727a5.351,5.351,0,0,0-.153,1.278Zm8.318-2.983.631,1.244a3.769,3.769,0,0,1,.426,1.739v33.664h29.829V240.223a3.771,3.771,0,0,1,.426-1.739l.631-1.244Zm29.181,2.983v31.96h-26.42v-31.96a5.351,5.351,0,0,0-.154-1.278h26.727a5.357,5.357,0,0,0-.153,1.278Zm8.318-2.983.631,1.244a3.771,3.771,0,0,1,.426,1.739v33.664h29.829V240.223a3.769,3.769,0,0,1,.426-1.739l.631-1.244ZM711,240.223v31.96h-26.42v-31.96a5.351,5.351,0,0,0-.154-1.278h26.727a5.351,5.351,0,0,0-.153,1.278Zm-329.176-2.983.631,1.244a3.77,3.77,0,0,1,.426,1.739v33.664h29.829V240.223a3.77,3.77,0,0,1,.426-1.739l.631-1.244Zm29.181,2.983v31.96h-26.42v-31.96a5.348,5.348,0,0,0-.154-1.278h26.727a5.349,5.349,0,0,0-.153,1.278Zm8.318-2.983.631,1.244a3.77,3.77,0,0,1,.426,1.739v33.664h29.829V240.223a3.77,3.77,0,0,1,.426-1.739l.631-1.244Zm29.181,2.983v31.96h-26.42v-31.96a5.35,5.35,0,0,0-.154-1.278h26.727a5.351,5.351,0,0,0-.153,1.278Zm8.318-2.983.631,1.244a3.77,3.77,0,0,1,.426,1.739v33.664h29.829V240.223a3.77,3.77,0,0,1,.426-1.739l.631-1.244Zm29.181,2.983v31.96h-26.42v-31.96a5.35,5.35,0,0,0-.154-1.278h26.727a5.351,5.351,0,0,0-.153,1.278Zm8.318-2.983.631,1.244a3.77,3.77,0,0,1,.426,1.739v33.664h29.829V240.223a3.77,3.77,0,0,1,.426-1.739l.631-1.244Zm29.181,2.983v31.96h-26.42v-31.96a5.35,5.35,0,0,0-.154-1.278H523.66a5.351,5.351,0,0,0-.153,1.278Zm8.318-2.983.631,1.244a3.769,3.769,0,0,1,.426,1.739v33.664h29.829V240.223a3.77,3.77,0,0,1,.426-1.739l.631-1.244Zm29.181,2.983v31.96h-26.42v-31.96a5.351,5.351,0,0,0-.154-1.278h26.727a5.348,5.348,0,0,0-.153,1.278Zm8.318-2.983.631,1.244a3.769,3.769,0,0,1,.426,1.739v33.664H600.21V240.223a3.77,3.77,0,0,1,.426-1.739l.631-1.244Zm29.181,2.983v31.96h-26.42v-31.96a5.348,5.348,0,0,0-.154-1.278h26.727a5.351,5.351,0,0,0-.153,1.278Zm8.318-2.983.631,1.244a3.77,3.77,0,0,1,.426,1.739v33.664h29.829V240.223a3.77,3.77,0,0,1,.426-1.739l.631-1.244ZM636,240.223v31.96h-26.42v-31.96a5.351,5.351,0,0,0-.154-1.278h26.727a5.354,5.354,0,0,0-.153,1.278Zm8.318-2.983.631,1.244a3.769,3.769,0,0,1,.426,1.739v33.664h29.829V240.223a3.77,3.77,0,0,1,.426-1.739l.631-1.244Zm29.181,2.983v31.96h-26.42v-31.96a5.348,5.348,0,0,0-.154-1.278h26.727a5.354,5.354,0,0,0-.153,1.278Zm8.318-2.983.631,1.244a3.769,3.769,0,0,1,.426,1.739v33.664h29.829V240.223a3.771,3.771,0,0,1,.426-1.739l.631-1.244ZM711,240.223v31.96h-26.42v-31.96a5.348,5.348,0,0,0-.154-1.278h26.727a5.35,5.35,0,0,0-.153,1.278Z" transform="translate(-131.237 -88.948)"/><path class="h" d="M496.163,406.183H433.315a5,5,0,0,1-4.993-4.993V367.71a5,5,0,0,1,4.993-4.993h62.848a5,5,0,0,1,4.993,4.993v33.48a5,5,0,0,1-4.993,4.993Z" transform="translate(-144.246 -108.745)"/><path class="h" d="M608.383,406.183H545.535a5,5,0,0,1-4.993-4.993v-33.48a5,5,0,0,1,4.993-4.993h62.848a5,5,0,0,1,4.993,4.993v33.48a5,5,0,0,1-4.993,4.993Z" transform="translate(-160.826 -108.745)"/><path class="h" d="M720.6,406.183H657.754a5,5,0,0,1-4.993-4.993V367.71a5,5,0,0,1,4.993-4.993H720.6a5,5,0,0,1,4.993,4.993v33.48a5,5,0,0,1-4.993,4.993Z" transform="translate(-177.406 -108.745)"/><path class="h" d="M496.163,537.183H433.315a5,5,0,0,1-4.993-4.993V498.71a5,5,0,0,1,4.993-4.993h62.848a5,5,0,0,1,4.993,4.993v33.48A5,5,0,0,1,496.163,537.183Z" transform="translate(-144.246 -128.1)"/><path class="h" d="M608.383,537.183H545.535a5,5,0,0,1-4.993-4.993v-33.48a5,5,0,0,1,4.993-4.993h62.848a5,5,0,0,1,4.993,4.993v33.48a5,5,0,0,1-4.993,4.993Z" transform="translate(-160.826 -128.1)"/><path class="h" d="M720.6,537.183H657.754a5,5,0,0,1-4.993-4.993V498.71a5,5,0,0,1,4.993-4.993H720.6a5,5,0,0,1,4.993,4.993v33.48a5,5,0,0,1-4.993,4.993Z" transform="translate(-177.406 -128.1)"/><path class="h" d="M496.163,668.183H433.315a5,5,0,0,1-4.993-4.993V629.71a5,5,0,0,1,4.993-4.993h62.848a5,5,0,0,1,4.993,4.993v33.48A5,5,0,0,1,496.163,668.183Z" transform="translate(-144.246 -147.454)"/><path class="h" d="M608.383,668.183H545.535a5,5,0,0,1-4.993-4.993V629.71a5,5,0,0,1,4.993-4.993h62.848a5,5,0,0,1,4.993,4.993v33.48a5,5,0,0,1-4.993,4.993Z" transform="translate(-160.826 -147.454)"/><path class="h" d="M720.6,668.183H657.754a5,5,0,0,1-4.993-4.992V629.71a5,5,0,0,1,4.993-4.993H720.6a5,5,0,0,1,4.993,4.993v33.48a5,5,0,0,1-4.993,4.993Z" transform="translate(-177.406 -147.454)"/><path class="g" d="M482.213,409.735H409.408a6.644,6.644,0,0,1-6.636-6.636V364.314a6.644,6.644,0,0,1,6.636-6.636h72.806a6.644,6.644,0,0,1,6.636,6.636V403.1a6.644,6.644,0,0,1-6.636,6.637Zm-72.806-50.352a4.937,4.937,0,0,0-4.931,4.932V403.1a4.937,4.937,0,0,0,4.931,4.932h72.806a4.937,4.937,0,0,0,4.931-4.932V364.314a4.937,4.937,0,0,0-4.931-4.932Z" transform="translate(-140.471 -108.001)"/><path class="g" d="M612.213,409.735H539.408a6.644,6.644,0,0,1-6.636-6.636V364.314a6.644,6.644,0,0,1,6.636-6.636h72.806a6.644,6.644,0,0,1,6.636,6.636V403.1a6.644,6.644,0,0,1-6.636,6.637Zm-72.806-50.352a4.937,4.937,0,0,0-4.931,4.932V403.1a4.937,4.937,0,0,0,4.931,4.932h72.806a4.937,4.937,0,0,0,4.931-4.932V364.314a4.937,4.937,0,0,0-4.931-4.932Z" transform="translate(-159.678 -108.001)"/><path class="g" d="M742.213,409.735H669.408a6.644,6.644,0,0,1-6.636-6.636V364.314a6.644,6.644,0,0,1,6.636-6.636h72.806a6.644,6.644,0,0,1,6.636,6.636V403.1A6.644,6.644,0,0,1,742.213,409.735Zm-72.806-50.352a4.937,4.937,0,0,0-4.931,4.932V403.1a4.937,4.937,0,0,0,4.931,4.932h72.806a4.937,4.937,0,0,0,4.932-4.932V364.314a4.937,4.937,0,0,0-4.932-4.932Z" transform="translate(-178.884 -108.001)"/><path class="g" d="M482.213,540.735H409.408a6.644,6.644,0,0,1-6.636-6.636V495.314a6.644,6.644,0,0,1,6.636-6.636h72.806a6.644,6.644,0,0,1,6.636,6.636V534.1a6.644,6.644,0,0,1-6.636,6.637Zm-72.806-50.352a4.937,4.937,0,0,0-4.931,4.932V534.1a4.937,4.937,0,0,0,4.931,4.932h72.806a4.937,4.937,0,0,0,4.931-4.932V495.314a4.937,4.937,0,0,0-4.931-4.932Z" transform="translate(-140.471 -127.355)"/><path class="g" d="M612.213,540.735H539.408a6.644,6.644,0,0,1-6.636-6.636V495.314a6.644,6.644,0,0,1,6.636-6.636h72.806a6.644,6.644,0,0,1,6.636,6.636V534.1a6.644,6.644,0,0,1-6.636,6.637Zm-72.806-50.352a4.937,4.937,0,0,0-4.931,4.932V534.1a4.937,4.937,0,0,0,4.931,4.932h72.806a4.937,4.937,0,0,0,4.931-4.932V495.314a4.937,4.937,0,0,0-4.931-4.932Z" transform="translate(-159.678 -127.355)"/><path class="g" d="M742.213,540.735H669.408a6.644,6.644,0,0,1-6.636-6.636V495.314a6.644,6.644,0,0,1,6.636-6.636h72.806a6.644,6.644,0,0,1,6.636,6.636V534.1A6.644,6.644,0,0,1,742.213,540.735Zm-72.806-50.352a4.937,4.937,0,0,0-4.931,4.932V534.1a4.937,4.937,0,0,0,4.931,4.932h72.806a4.937,4.937,0,0,0,4.932-4.932V495.314a4.937,4.937,0,0,0-4.932-4.932Z" transform="translate(-178.884 -127.355)"/><path class="g" d="M482.213,671.735H409.408a6.644,6.644,0,0,1-6.636-6.636V626.314a6.644,6.644,0,0,1,6.636-6.636h72.806a6.644,6.644,0,0,1,6.636,6.636V665.1a6.644,6.644,0,0,1-6.636,6.637Zm-72.806-50.352a4.937,4.937,0,0,0-4.931,4.932V665.1a4.937,4.937,0,0,0,4.931,4.932h72.806a4.937,4.937,0,0,0,4.931-4.932V626.314a4.937,4.937,0,0,0-4.931-4.932Z" transform="translate(-140.471 -146.71)"/><path class="g" d="M612.213,671.735H539.408a6.644,6.644,0,0,1-6.636-6.636V626.314a6.644,6.644,0,0,1,6.636-6.636h72.806a6.644,6.644,0,0,1,6.636,6.636V665.1a6.644,6.644,0,0,1-6.636,6.637Zm-72.806-50.352a4.937,4.937,0,0,0-4.931,4.932V665.1a4.937,4.937,0,0,0,4.931,4.932h72.806a4.937,4.937,0,0,0,4.931-4.932V626.314a4.937,4.937,0,0,0-4.931-4.932Z" transform="translate(-159.678 -146.71)"/><path class="g" d="M742.213,671.735H669.408a6.644,6.644,0,0,1-6.636-6.636V626.314a6.644,6.644,0,0,1,6.636-6.636h72.806a6.644,6.644,0,0,1,6.636,6.636V665.1A6.644,6.644,0,0,1,742.213,671.735Zm-72.806-50.352a4.937,4.937,0,0,0-4.931,4.932V665.1a4.937,4.937,0,0,0,4.931,4.932h72.806a4.937,4.937,0,0,0,4.932-4.932V626.314a4.937,4.937,0,0,0-4.932-4.932Z" transform="translate(-178.884 -146.71)"/><path class="c" d="M954.927,834.923H95.852a.852.852,0,0,1,0-1.7H954.927a.852.852,0,0,1,0,1.7Z" transform="translate(-95 -178.259)"/><path class="g" d="M626.311,737.142a7.336,7.336,0,0,0-7.244-7.424H583.272v88.209h43.039Z" transform="translate(-167.139 -162.967)"/><path class="g" d="M576.515,817H531.772V737.314a8.106,8.106,0,0,1,8.1-8.1h36.647Zm-43.039-1.7h41.334V730.923H539.868a6.4,6.4,0,0,0-6.392,6.392Z" transform="translate(-159.53 -162.893)"/><circle class="g" cx="2.557" cy="2.557" r="2.557" transform="translate(375.225 611.068)"/></g></g></svg>