<svg width="81" height="81" viewBox="0 0 81 81" fill="none" xmlns="http://www.w3.org/2000/svg">
<path d="M18.4905 24.4294C19.777 10.0899 50.0118 5.92488 57.1089 17.616C66.0309 30.1707 72.6896 45.1061 63.2949 57.7417C53.9002 70.3774 34.8614 76.0749 23.0877 63.3738C11.314 50.6726 12.6666 52.1716 18.4905 24.4294Z" fill="#DD346D"/>
<path d="M39.7209 16.6523L55.7154 32.0301L47.8541 40.2066L31.8596 24.8288L39.7209 16.6523Z" fill="#A92652"/>
<path d="M40.2105 63.9518L24.2497 47.991L24.2497 32.3949L48.2366 55.7434L40.2105 63.9518Z" fill="url(#paint0_linear)"/>
<rect x="24.2497" y="32.4077" width="22.1879" height="11.3426" transform="rotate(-45.71 24.2497 32.4077)" fill="url(#paint1_linear)"/>
<path d="M32.0022 55.7434L47.587 40.2386L55.7154 47.991L40.2126 64.0414L32.0022 55.7434Z" fill="url(#paint2_linear)"/>
<path d="M47.507 40.2386L55.7154 32.0301V47.991L47.507 40.2386Z" fill="#CB285F"/>
<defs>
<linearGradient id="paint0_linear" x1="24.7057" y1="41.2613" x2="42.4907" y2="60.4143" gradientUnits="userSpaceOnUse">
<stop stop-color="#CB285F"/>
<stop offset="1" stop-color="#792844"/>
</linearGradient>
<linearGradient id="paint1_linear" x1="24.7029" y1="38.2091" x2="46.6284" y2="38.4808" gradientUnits="userSpaceOnUse">
<stop stop-color="#9A0F3E"/>
<stop offset="1" stop-color="#CB285F"/>
</linearGradient>
<linearGradient id="paint2_linear" x1="36.1065" y1="59.3916" x2="51.1553" y2="44.3428" gradientUnits="userSpaceOnUse">
<stop stop-color="#CB285F"/>
<stop offset="1" stop-color="#A9335B"/>
</linearGradient>
</defs>
</svg>
