<svg xmlns="http://www.w3.org/2000/svg" width="940.118" height="717.112" viewBox="0 0 940.118 717.112"><defs><style>.a{fill:#dbe0dc;}.b{opacity:0.1;}.c{fill:none;stroke:#3f3d56;stroke-miterlimit:10;}.d{fill:#a6c733;}.e{fill:#f2f2f2;}.f{fill:#a0616a;}.g{fill:#605d82;}.h{fill:#535070;}.i{fill:#3f3d56;}.j{fill:#fff;}.k{fill:#57b894;}</style></defs><g transform="translate(-185.836 -87.127)"><path class="a" d="M918.213,909.1H398.491a64.261,64.261,0,0,1-64.262-64.261V606.725a25.458,25.458,0,0,1,7.944-18.477l275.4-261.058a59.273,59.273,0,0,1,81.554,0L961.71,576.1a66.544,66.544,0,0,1,20.765,48.295V844.837A64.261,64.261,0,0,1,918.213,909.1Z" transform="translate(-75.008 -118.684)"/><path class="b" d="M240.954,387.992H883.8V647.651a38.8,38.8,0,0,1-38.8,38.8H279.757a38.8,38.8,0,0,1-38.8-38.8V387.992Z" transform="translate(18.267 103.96)"/><path class="c" d="M333.73,521.351" transform="translate(-75.183 -44.931)"/><rect class="d" width="478.081" height="478.081" rx="26.181" transform="translate(343.628 287.349)"/><path class="b" d="M781.535,395.942V658.684H303.454V395.942L542.495,511.478Z" transform="translate(40.174 106.746)"/><path class="a" d="M657.853,676.095,351.565,528.055a12.427,12.427,0,0,0-17.835,11.189V793.951a38.8,38.8,0,0,0,38.8,38.8H943.172a38.8,38.8,0,0,0,38.8-38.8V543.608a15.164,15.164,0,0,0-21.764-13.653Z" transform="translate(-75.184 -43.015)"/><rect class="e" width="133.701" height="18.907" transform="translate(384.819 331.241)"/><rect class="e" width="397.051" height="10.804" transform="translate(374.015 400.117)"/><rect class="e" width="397.051" height="10.804" transform="translate(374.015 436.581)"/><rect class="e" width="397.051" height="10.804" transform="translate(374.015 473.044)"/><line class="c" x2="940.112" y2="5.367" transform="translate(185.839 798.372)"/><path class="f" d="M815.392,313.5c-.812,7.231-6.327,13.056-8.371,20.04-3.076,10.512,2.243,21.792,9.519,29.978a66.39,66.39,0,0,0,46.233,21.952,19.718,19.718,0,0,0,7.644-.833,16.363,16.363,0,0,0,5.816-3.975c5.479-5.5,8.421-13.125,9.593-20.8s.717-15.5.258-23.247a13.125,13.125,0,0,0-.859-4.689,12.013,12.013,0,0,0-3.018-3.71,70.323,70.323,0,0,0-12.951-9.408,14.866,14.866,0,0,1-5.427-4.153,13.418,13.418,0,0,1-1.677-4.972l-1.431-7.291a14.327,14.327,0,0,0-2.1-5.91c-2.528-3.41-7.363-3.874-11.6-4.04l-15.537-.609c-4.833-.19-11.2-1.576-15.92-.626-4.406.886-2.942,4.946-2.142,8.643A62.487,62.487,0,0,1,815.392,313.5Z" transform="translate(50.575 -130.845)"/><path class="b" d="M815.392,313.5c-.812,7.231-6.327,13.056-8.371,20.04-3.076,10.512,2.243,21.792,9.519,29.978a66.39,66.39,0,0,0,46.233,21.952,19.718,19.718,0,0,0,7.644-.833,16.363,16.363,0,0,0,5.816-3.975c5.479-5.5,8.421-13.125,9.593-20.8s.717-15.5.258-23.247a13.125,13.125,0,0,0-.859-4.689,12.013,12.013,0,0,0-3.018-3.71,70.323,70.323,0,0,0-12.951-9.408,14.866,14.866,0,0,1-5.427-4.153,13.418,13.418,0,0,1-1.677-4.972l-1.431-7.291a14.327,14.327,0,0,0-2.1-5.91c-2.528-3.41-7.363-3.874-11.6-4.04l-15.537-.609c-4.833-.19-11.2-1.576-15.92-.626-4.406.886-2.942,4.946-2.142,8.643A62.487,62.487,0,0,1,815.392,313.5Z" transform="translate(50.575 -130.845)"/><path class="g" d="M907.157,557.932q-3.3,36.205-6.6,72.4c-1.723,18.989-3.48,38.056-6.86,56.8-1.167,6.459-2.535,12.886-4.158,19.256-4.514,17.688-11.062,34.977-13.174,53.11-.067.522-.122,1.056-.178,1.59a46.17,46.17,0,0,1-2.257,11.785c-1.056,2.768-2.679,5.292-3.825,8.027-2.279,5.47-2.579,11.518-2.857,17.444a75.2,75.2,0,0,0-25.893-8.85c-4.392-.656-9.283-1.123-12.274-4.4-3.313-3.624-2.946-9.172-2.39-14.042q2.618-22.68,5.225-45.338a118.17,118.17,0,0,1,3.3-19.256c.6-2.1,1.323-4.169,2.057-6.237,1.012-2.846,2.035-5.692,2.8-8.616a103.773,103.773,0,0,0,2.313-14.353c1.79-15.209,3.947-30.385,5.837-45.583l.1-.8c2.835-23.036,4.992-46.183,4.369-69.386-.089-3.435-.234-6.871-.456-10.317-.311-4.992-.767-7.638,3.369-10.762,4.569-3.447,10.584-5.859,15.809-8.116,2.813-1.223,33.787-12.218,34.51-9.806a60.35,60.35,0,0,1,2.268,15.809A175.889,175.889,0,0,1,907.157,557.932Z" transform="translate(57.652 -49.788)"/><path class="b" d="M890.851,658.911c-1.167,6.459-2.535,12.886-4.158,19.256-4.514,17.688-11.062,34.976-13.174,53.109-.067.523-.122,1.056-.178,1.59C859.532,713.144,847.9,691.931,834.428,672c1.012-2.846,2.035-5.692,2.8-8.616a103.777,103.777,0,0,0,2.313-14.353c1.79-15.209,3.947-30.385,5.837-45.583l.1-.8a47.22,47.22,0,0,0,3.369,9.35c9.05,18.389,30.551,27.683,41.069,45.283Q890.4,658.094,890.851,658.911Z" transform="translate(100.317 -16.436)"/><path class="g" d="M793.255,547.8c.456,14.749,2.817,29.364,5.173,43.931l4.861,30.054c2.661,16.449,5.43,33.232,13.214,47.965,5.823,11.021,14.212,20.425,21.8,30.312,18.658,24.307,32.674,51.842,50.366,76.861,5.142,7.272,12.493,15.137,21.269,13.618,5.76-1,9.944-5.792,14.471-9.49,5.338-4.359,11.771-7.549,15.971-13.013s5.023-14.547-.667-18.435a30.017,30.017,0,0,0-6.513-2.665c-8.821-3.355-14.53-11.969-18.163-20.679s-5.834-18.076-10.675-26.177c-10.516-17.6-32.021-26.893-41.073-45.289-5.07-10.3-5.553-22.178-5.941-33.654l-.988-29.255c-.108-3.2-.193-6.526,1.108-9.451,3.462-7.787,13.917-8.513,22.382-9.5a76.562,76.562,0,0,0,27.429-8.654c4.876-2.633,9.639-5.989,12.247-10.878,2.38-4.46,2.708-9.692,2.987-14.739l2.931-53.018c.252-4.561.482-9.278-1.125-13.554-4.037-10.737-17.6-14.246-29.055-13.733-21.325.953-41.01,10.126-61.117,16.321A155.394,155.394,0,0,1,819,478.635c-4.513.906-9.974.53-14.278,1.981-7.654,2.58-7.459,19.318-8.545,26.261a221.056,221.056,0,0,0-2.925,40.928Z" transform="translate(46.044 -72.157)"/><path class="h" d="M878.6,714.861c1.881,1.9,2.5,4.675,2.985,7.3a249.3,249.3,0,0,1,4.222,44.151,7.21,7.21,0,0,0,.794,4,5.025,5.025,0,0,0,2.077,1.669c5.435,2.59,11.743-1.02,16.272-4.987,8.4-7.354,15.5-17.225,15.976-28.376a65.887,65.887,0,0,1,.3-8.606c.737-4.2,3.189-7.856,5.349-11.53a97.3,97.3,0,0,0,8.839-19.815c.826-2.6,1.375-5.868-.66-7.681a7.4,7.4,0,0,0-2.419-1.258l-24.55-9.116c-2.128-.79-7.421,12.809-8.262,14.3-2.055,3.637-4.1,5.7-8.222,6.54-4.209.857-9.219-.373-13.147,1.727C871.511,706.731,874.84,711.067,878.6,714.861Z" transform="translate(74.488 5.751)"/><path class="h" d="M856.7,713.277a7.528,7.528,0,0,0-1.869-2.369,8.453,8.453,0,0,0-3.769-1.28c-4.674-.794-10.214-1.316-13.439,2.158-3.024,3.257-2.5,8.563-5.033,12.218-.8,1.157-1.885,2.111-2.579,3.335a12.573,12.573,0,0,0-1.131,5.981c-.131,5.666-.261,11.341.13,16.995.328,4.738,1.127,9.7,4.089,13.414,4.755,5.957,13.332,6.814,20.944,7.2l6.165.313a12.037,12.037,0,0,0,5.053-.463,8.318,8.318,0,0,0,4.358-4.8c3.209-7.977-1.873-16.571-5-24.579C861.021,732.2,861.668,721.98,856.7,713.277Z" transform="translate(58.504 15.727)"/><path class="i" d="M817.168,288.818a5.1,5.1,0,0,1,.346-2.377c.9-1.6,3.261-1.162,5.04-.714,7.153,1.8,14.691.171,22.056.592s15.661,4.1,17.142,11.33a53.784,53.784,0,0,0,13.6-13.972c2.044-3.059,3.826-6.563,3.547-10.231-.4-5.291-4.841-9.248-8.952-12.6l-12.253-10a18.464,18.464,0,0,0-5.486-3.488c-2.829-.967-5.915-.506-8.906-.5-8.92.006-18.43-4.054-26.363.024-3.314,1.7-5.808,4.622-8.212,7.469l-10.936,12.946a6.914,6.914,0,0,0-1.748,2.964c-.311,1.58.5,3.14.784,4.725.517,2.892-.729,5.979.229,8.756,1.59,4.611,7.188,5.264,10.611,7.907,1.276.985,3.275,4.324,4.795,4.283C815.2,295.848,817.1,290.949,817.168,288.818Z" transform="translate(47.013 -146.907)"/><circle class="f" cx="35.021" cy="35.021" r="35.021" transform="translate(847.717 110.03)"/><path class="i" d="M853.351,346.349a16.964,16.964,0,0,0-16.516-11.366,5.036,5.036,0,0,1-3.047-.385,4.2,4.2,0,0,1-1.252-1.565,61.173,61.173,0,0,1-5.106-12.072c-.559-1.854-1.323-4.039-3.2-4.521a4.32,4.32,0,0,0-4.076,1.773,35.937,35.937,0,0,1-2.914,3.662c-4.4,3.938-12.212.349-16.887,3.962-.764.59-1.394,1.346-2.2,1.883a10.254,10.254,0,0,1-2.571,1.1A246.63,246.63,0,0,0,769.083,339.2c3.11,18.727,6.3,37.781,13.585,55.31,3.469,8.342,7.4,16.511,10.177,25.108,6.155,19.047,6.427,39.427,6.5,59.444.047,13.7-.021,27.692-4.453,40.655a38.362,38.362,0,0,0-2.5,8.931c-.268,3.089.631,6.495,3.134,8.325a10.72,10.72,0,0,0,4.837,1.7c7.68,1.127,15.423-.917,22.985-2.668,20.269-4.694,40.941-7.38,61.573-10.059l34.573-4.489a20.071,20.071,0,0,0,7.153-1.849c6.327-3.464,6.927-12.98,3-19.029-1.884-2.9-4.541-5.279-6.124-8.353s-1.717-7.374,1.007-9.5c5.542-4.331,3.889-12.368,4.153-19.4q1.109-29.48-.3-58.983a117.45,117.45,0,0,1-.2-12.233,108.336,108.336,0,0,1,3.813-20.413L942.5,330.335c-2.744-4.337-8-7.088-12.977-8.337s-10.162-1.617-15.064-3.136c-10.043-3.112-18.984-11.009-29.472-10.273a5.35,5.35,0,0,0-2.284.558c-2.365,1.34-1.991,4.749-2.142,7.463-.335,6.006-4.751,11.025-9.63,14.544s-10.449,6.085-14.929,10.1a6.662,6.662,0,0,0-2.65,5.1Z" transform="translate(37.589 -124.654)"/><path class="f" d="M733.561,368.951a41.344,41.344,0,0,1-7.366,3.79,24.215,24.215,0,0,0-7.056,3.424,11.059,11.059,0,0,0-2.454,3.032,13.482,13.482,0,0,0,12.432,20.087,27.061,27.061,0,0,0,9.194-2.741l24.7-10.7c4.181-1.812,8.7-3.935,10.673-8.04a1.868,1.868,0,0,0,.241-1.276,2.111,2.111,0,0,0-1.015-1.067,55.191,55.191,0,0,1-14.383-13.562c-1.013-1.376-2.253-4.625-3.686-5.45C749.614,353.435,737.747,366.235,733.561,368.951Z" transform="translate(18.613 -108.023)"/><path class="f" d="M939.561,359.084l9.107,10.4c1.955,2.233,3.912,4.469,5.694,6.843a79.867,79.867,0,0,1,10.43,19.649c1.98,5.194,3.622,10.727,2.931,16.243a39.735,39.735,0,0,1-2.278,8.26,102.832,102.832,0,0,1-6.188,14.9,84.894,84.894,0,0,1-6.963,10.435,243.716,243.716,0,0,1-23.085,26.406c-3.113,3.082-4.419,8.065-5.774,12.231-2.5,7.684-8.448,13.669-14.2,19.344a39.481,39.481,0,0,1-6.1,5.247,19.859,19.859,0,0,1-11.1,3.16,12.178,12.178,0,0,1-5-1.034c-3.936-1.869-5.937-6.421-6.347-10.759a22.886,22.886,0,0,1,1.915-11.507c5.226-11.576,18.645-16.592,28.131-25.039,5.562-4.953,9.816-11.174,14.011-17.328a59.9,59.9,0,0,0,7.086-12.42c2.118-5.652,1.294-12.344,3.145-18.089.782-2.429,2.173-4.622,3.014-7.03s1.053-5.268-.418-7.353a10.686,10.686,0,0,0-4.123-3.018c-6.06-3.076-12.846-7.034-14.006-13.729a14.709,14.709,0,0,1,2.713-10.486,43.686,43.686,0,0,1,7.641-8.008C932.453,364.063,936.91,361.427,939.561,359.084Z" transform="translate(76.676 -106.938)"/><path class="f" d="M735.3,378.734c-1.608-3.248-3.618-6.562-6.863-8.177a12.647,12.647,0,0,0-9.976-.042,37.508,37.508,0,0,0-8.755,5.294l-7.85,5.786a19.325,19.325,0,0,0-4.66,4.3,18.162,18.162,0,0,0-2.427,6.659,47.6,47.6,0,0,0-1.234,16.472c1.246,8.852,6.582,16.58,12.456,23.318,3.67,4.21,8.2,8.459,13.785,8.639,2.41.078,5.09-.872,6.092-3.065a7.647,7.647,0,0,0,.544-2.731c.6-9.873-2.929-19.517-7.047-28.51a18.281,18.281,0,0,1-2.272-7.661,2.1,2.1,0,0,1,.336-1.283,2.167,2.167,0,0,1,1.34-.654c5.637-1.115,15.347,3.264,19.3-3C740.636,390.024,737.124,382.414,735.3,378.734Z" transform="translate(11.027 -103.284)"/><path class="i" d="M815.808,280.659a5.1,5.1,0,0,1,.347-2.377c.9-1.6,3.261-1.162,5.04-.714,7.153,1.8,14.691.171,22.056.592s15.661,4.1,17.142,11.33a53.784,53.784,0,0,0,13.6-13.972c2.044-3.059,3.826-6.563,3.547-10.231-.4-5.291-4.841-9.248-8.951-12.6l-12.254-10a18.465,18.465,0,0,0-5.486-3.488c-2.83-.967-5.916-.506-8.906-.5-8.92.006-18.43-4.054-26.363.024-3.314,1.7-5.808,4.622-8.212,7.469l-10.937,12.946a6.915,6.915,0,0,0-1.748,2.965c-.311,1.58.5,3.14.784,4.725.517,2.892-.729,5.979.229,8.756,1.59,4.611,7.188,5.264,10.611,7.907,1.276.985,3.275,4.324,4.795,4.283C813.84,287.688,815.736,282.788,815.808,280.659Z" transform="translate(46.537 -149.767)"/><path class="i" d="M760.089,343.386a14.233,14.233,0,0,0-3.666,3.412c-1.284,1.941-1.545,4.392-2.648,6.442-2.36,4.386-7.881,5.946-11.324,9.544a3.565,3.565,0,0,0-1.088,1.867,4.16,4.16,0,0,0,.925,2.687L758.9,393.446c5.529.487,10.834-2.977,16.366-2.517,2.065.172,4.179.885,6.159.275a17.663,17.663,0,0,0,3.953-2.417c3.3-2.087,7.7-2.33,10.464-5.083,2.657-2.642,3-6.776,2.965-10.523a42.3,42.3,0,0,0-.987-9.68c-2.445-10.021-10.109-17.711-14.914-26.588-2.339-4.322-3.612-6.852-8.563-3.884C769.362,336.011,764.773,339.961,760.089,343.386Z" transform="translate(27.873 -116.522)"/><path class="i" d="M911.977,332.875a38.849,38.849,0,0,1,8.355,7.318c2.53,3.262,3.963,7.254,6.393,10.591,2.355,3.235,5.562,5.74,8.234,8.718,4.052,4.517,6.8,10.028,9.492,15.465a231.026,231.026,0,0,1-21.481,24.278,6.929,6.929,0,0,1-3.262,2.144,5.262,5.262,0,0,1-4.611-1.88c-1.2-1.255-2.044-2.8-3.187-4.1a16.425,16.425,0,0,0-10.153-4.91,69.727,69.727,0,0,0-11.5-.158,4.547,4.547,0,0,1-2.457-.413,4.127,4.127,0,0,1-1.341-1.538c-4.5-7.651-3.05-17.257-1.464-25.988l3.64-20.035a44.974,44.974,0,0,1,3.029-11.135c1.379-2.946,4.462-7.943,8.252-7.061C903.735,325.056,908.761,330.563,911.977,332.875Z" transform="translate(77.673 -119.214)"/><ellipse class="j" cx="55.371" cy="55.472" rx="55.371" ry="55.472" transform="translate(307.839 239.405)"/><path class="k" d="M428.405,338.851a66.175,66.175,0,1,0,66.175,66.175A66.175,66.175,0,0,0,428.405,338.851ZM414.82,440.309l-33.915-33.915,9.513-9.513,24.433,24.433,51.572-51.572,9.513,9.513L414.82,440.308Z" transform="translate(-65.194 -108.899)"/></g></svg>