<svg id="Capa_1" data-name="Capa 1" xmlns="http://www.w3.org/2000/svg" viewBox="0 0 400 400"><defs><style>.cls-1{fill:#3c5f5b;}</style></defs><title>LOGO MTSSS</title><path class="cls-1" d="M20.6,123.09a4.65,4.65,0,0,0,1.71,0c.73-.3,1.72-.7,2-1.38a3.16,3.16,0,0,0-.56-2.53,27.62,27.62,0,0,0-4.88-4.22c-.71-.45-2,0-2.88.35-1.81.82-2.38.6-2.38-1.59,0-1,.18-2.68.62-2.84a3.82,3.82,0,0,1,3,.35,82.26,82.26,0,0,1,7,4.41,2.64,2.64,0,0,1,.83,1.81,3.37,3.37,0,0,0,1.36,3.1c1.08.74,1.18,3,.34,4.35-.66,1.07-1.39,1-2.79,0A7.09,7.09,0,0,0,21.9,124a10.56,10.56,0,0,0-1.38-.29c0-.21.05-.42.08-.63"/><path class="cls-1" d="M29.51,90.29a4.42,4.42,0,0,1-.14,1.17c-.15.48-.39,1.13-.73,1.28-.5.21-1.44.32-1.63,0A15.65,15.65,0,0,1,25.38,89c-.08-.25.77-1.13,1.3-1.29,1.94-.61,2.85.2,2.83,2.58"/><path class="cls-1" d="M20.07,130.78c.42.05.84.06,1.25.15a1.69,1.69,0,0,1,1.45,1.84c0,1.17-.73,1.38-1.51,1.47s-1.39.15-2.08.18a1.45,1.45,0,0,1-1.71-1.6,1.74,1.74,0,0,1,1.49-2,8.17,8.17,0,0,1,1.11-.07"/><path class="cls-1" d="M398.5,115.8c0,.48,0,1-.08,1.45-.11,1-.57,1.54-1.46,1.58s-1.36-.57-1.47-1.54c-.08-.69-.09-1.39-.12-2.09-.06-1.33.36-2.22,1.63-2.21s1.52.94,1.5,2.16c0,.22,0,.43,0,.65"/><path class="cls-1" d="M28,105l1.64,1.36a18.41,18.41,0,0,1-1.39,1.75.91.91,0,0,1-.91.22c-.76-.45-1.95-.91-2.09-1.61-.27-1.33,1-1.14,1.76-1.36a4.59,4.59,0,0,1,.82-.1A2.33,2.33,0,0,0,28,105"/><path class="cls-1" d="M370.44,107.51c1.21.32,1.89.75,1.92,2s-.45,1.83-1.5,1.81a2,2,0,0,1-1.85-2.12c.15-.65.93-1.11,1.43-1.66"/><path class="cls-1" d="M12.21,125.17a1.41,1.41,0,0,1-1.68,1.46c-1.06,0-1.45-.81-1.4-1.95a1.41,1.41,0,0,1,1.6-1.55c1,0,1.51.69,1.48,2"/><path class="cls-1" d="M383.32,119.88c0,1.11-.4,1.75-1.37,1.77s-1.6-.51-1.63-1.69.45-1.83,1.48-1.86,1.5.63,1.52,1.78"/><path class="cls-1" d="M382,112.17c.73-.69,1.13-1.33,1.61-1.42.31-.07,1.11.89,1.05,1a4.79,4.79,0,0,1-1.23,1.69c-.11.09-.72-.63-1.43-1.28"/><path class="cls-1" d="M370.58,99.34l-1.2,1.32-1.26-1.72c.34-.33.75-1,1-.92.46.13.82.71,1.45,1.32"/><path class="cls-1" d="M379.69,107.72c-.7.44-1.14.93-1.54.89s-.92-.8-.86-1a6.26,6.26,0,0,1,1-1.57l1.41,1.72"/><path class="cls-1" d="M373.3,117.47l-1.18,1.09a4.77,4.77,0,0,1-.77-1.48c0-.29.48-.69.75-1,.34.42.69.84,1.2,1.44"/><path class="cls-1" d="M204,244.65c.09-1.83-1-3.64-.75-5.46m-8.64,7.75c-.05,2.36.27,4.85-1.73,6.51a.67.67,0,0,0-.2.42c0,2.62-1.81,3.93-3.12,5.54-1.85,2.28-3.94,3.77-6.92,2.76s-3.18-.77-3.23,3.06a12.17,12.17,0,0,1-.24,2.57,10.06,10.06,0,0,1-.9,2,19.62,19.62,0,0,0-1.36,2.76,3.15,3.15,0,0,1-2.78,2.54c-.88.08-1.78-.19-2.64-.05-1.72.28-3.62.31-5.1,1.21a41,41,0,0,0-6.84,5.47,6.53,6.53,0,0,1-4.45,1.89,3.78,3.78,0,0,0-1.8.65c-1,.67-1.88,1.52-2.83,2.25-1.17.89-2.63,1.47-3.46,2.67-1.33,1.92-3,1.89-4.73,2a9.71,9.71,0,0,0-3,1c-1.2.49-2.4,1.6-3.55,1.52-2.89-.22-4.93,1.56-7,3.33a16.57,16.57,0,0,1-8.75,3.78c-3.81.52-7.71.27-11.56.46-2.93.15-6-.37-8.57,2a1.92,1.92,0,0,1-1.19.4c-4.32.25-8.64.63-13,.64-9,0-17.95-.18-26.93-.23a2.29,2.29,0,0,0-1.68.84,3.46,3.46,0,0,1-3,1.51A5.56,5.56,0,0,0,49.89,308a3.07,3.07,0,0,1-1.81.73c-1.57.18-3.16.24-4.74.32a6.31,6.31,0,0,0-4.47,1.46,2.9,2.9,0,0,1-1.58.49,28.29,28.29,0,0,0-2.92.28c-4,.94-7.23-1.8-10.8-2.89-.16-.05-.29-.25-.44-.39a6.22,6.22,0,0,0-8.57,0,4.88,4.88,0,0,1-1.51.76,10.14,10.14,0,0,0-4.44,4.42c-.6,1-.11,2,.76,2.1,1.76.13,3.57.28,5.14-1.23a5.61,5.61,0,0,1,2.78-1.46,17.35,17.35,0,0,1,4.32,0,3.66,3.66,0,0,1,2.22.77,5.87,5.87,0,0,0,4.54,1.71q7.47,0,14.94-.22a2.87,2.87,0,0,0,1.83-.62A7.68,7.68,0,0,1,50,312.49a7.8,7.8,0,0,0,3.73-1,8.62,8.62,0,0,1,4.74-1.58,4.73,4.73,0,0,0,2.62-.83,7.25,7.25,0,0,1,4.73-1.65c4.56,0,9.12,0,13.68,0a4.57,4.57,0,0,1,2.19.32A2.71,2.71,0,0,1,83,309.47a2.2,2.2,0,0,1-1.09,1.76,7.18,7.18,0,0,0-3.84,2.41,1.87,1.87,0,0,1-1.16.48,2.68,2.68,0,0,0-2.41,2.31,3.29,3.29,0,0,1-2.73,2.63,13.67,13.67,0,0,0-2.18,1c-1.32.57-2.68,1-4,1.68-2.11,1.09-4.19,2.26-6.24,3.48A15.54,15.54,0,0,0,57.12,327a10.18,10.18,0,0,1-7.61,2.5.65.65,0,0,0-.53.17c-1.35,1.92-3.34,2.13-5.21,2.66a1.57,1.57,0,0,0-.71.5,5.74,5.74,0,0,1-4.5,1.82c-1.26,0-2.51-.08-3.77-.14a1.68,1.68,0,0,0-1.86,1.73c-.17,1.54-.9,3.27.59,4.48.32.26.89.14,1.34.11a11.21,11.21,0,0,1,2.21-.23c3.56.5,6.13-1.44,8.67-4.09,2-2.13,4.38-4,7.46-3.74,4.49.37,8.66-1.83,13-2.45a1.09,1.09,0,0,0,.51-.24,78.08,78.08,0,0,0,6.36-5.42c2.56-2.64,4.72-5.81,7.33-8.36,1.63-1.59,3.76-2.49,5.7-3.62.39-.22.94,0,1.38-.17a4.88,4.88,0,0,0,2.07-.84c2.08-2,4.43-2.21,7-1.9,1.07.13,2.47.23,3.22-.43,2-1.8,4.26-1.94,6.61-2a3.92,3.92,0,0,0,2.49-.73,7.52,7.52,0,0,1,5-1.78c3.58-.25,7.28.71,10.67-1.54.39-.26,1.24.18,1.73.56a1.68,1.68,0,0,1,.24,1.43c-.71,1.44-1.39,2.84-2.89,3.57a20.55,20.55,0,0,0-7.31,5.95c-.77,1-1.86,1.9-2.18,3.07a10.14,10.14,0,0,1-2.14,4.24c-2.49,2.8-4.35,6.49-8.08,7.48-.39.1-.65.74-1,1.05-1.54,1.32-2.73,3.46-4.79,3.63a6.09,6.09,0,0,0-5,2.52c-.8,1.13-1.26,2.22-.67,3.11a1.77,1.77,0,0,0,2.86-.13A4.51,4.51,0,0,1,99.43,338c2.14.15,3.58-.87,4.77-2.92.94-1.64,2-3.56,3.41-4.37,3.87-2.22,6.68-5.69,9.35-9.41,1-1.4,1.75-3.09,2.84-4.37a42.35,42.35,0,0,1,4.31-4.06c1.39-1.22,2.81-2.43,4.28-3.53,1.28-.94,2.65-1.7,4-2.57a27.08,27.08,0,0,0,2.93-2.06,12.87,12.87,0,0,1,5.65-2.86c.25-.07.46-.38.71-.5,1.14-.52,2.28-1.06,3.44-1.51,1-.39,2-.64,3-1,1.26-.48,2.49-1.06,3.75-1.53.82-.31,1.85-.24,2.5-.8,2-1.66,3.82-3.55,5.72-5.35a5.88,5.88,0,0,1,1.19-1.11,1.63,1.63,0,0,1,2.53.76,5.68,5.68,0,0,1-.49,4.63,45.1,45.1,0,0,0-4.31,6.38c-1.94,3.46-2.95,7.6-5.62,10.5a1.53,1.53,0,0,0-.25.58c-.85,3-3,4.57-5.11,6.13a11.7,11.7,0,0,0-1.33,1.13c-1.75,1.73-2.95,4.42-5.75,4.31-.42,0-.86.57-1.3.86-1.9,1.25-3.8,2.51-5.71,3.74a2.33,2.33,0,0,1-1,.21c-.83.1-1.67.16-2.5.26a1.45,1.45,0,0,0-1.23,1.93c.14.6.84,1.45,1.29,1.45,1.67,0,3.49.4,4.67-1.7a2.41,2.41,0,0,1,1.46-.82c2.12-.64,3.62-3.05,6-2.85,0,0,.09-.05.11-.09,1.17-2,3-2.18,4.82-2.23,1.19,0,1.8-.8,2-2.22.27-2.06.9-2.64,2.71-2.79.83-.07,1.68,0,2.5-.1a2.87,2.87,0,0,0,1.62-.75,16.08,16.08,0,0,0,4.18-8,5.41,5.41,0,0,1,2.54-3.82,5.42,5.42,0,0,0,1.8-2.3c.91-2.09,2.53-3.76,2.72-6.28,0-.22.27-.44.43-.62,1.4-1.59,2.8-3.18,4.21-4.74a1.41,1.41,0,0,1,2.55.7c.35,1.88.47,4-.65,5.47a5.89,5.89,0,0,0-1.18,5.09c.75,2.94,1.89,5.74,2.85,8.6a14.33,14.33,0,0,1,1.07,3.41c.24,3.21-3.42,9.14-6.17,9.63-1.69.3-2.33,1.76-3.42,2.75a2,2,0,0,0-.58,2.76c.55.94,1.65.92,2.59.06.61-.57,1.25-1.11,1.89-1.63,1.77-1.43,3.58-2.8,5.32-4.27a2.41,2.41,0,0,1,2.9-.17,2.25,2.25,0,0,1,1.08,2.55c-.1.75-.29,1.48-.43,2.22-.17.92-.2,1.81.83,2s1.54-.44,1.52-1.56c0-2.38-.1-4.77-.26-7.14a3.38,3.38,0,0,0-.71-1.89,5.58,5.58,0,0,1-1.25-4.14c0-1.25,0-2.5-.07-3.75-.19-3.69.8-4.76,3.91-4.06a7.41,7.41,0,0,1,1.87,1c.58.33,1.14.95,1.72,1a8.41,8.41,0,0,1,5.84,3.39,14,14,0,0,1,3,4.89,9.93,9.93,0,0,0,2.86,4.44,1.94,1.94,0,0,0,1.92.11,2.12,2.12,0,0,0,.53-1.74,26.46,26.46,0,0,1-2.75-6.38c-.05-.14-.19-.23-.29-.34-1.82-2.22-3.61-4.48-5.48-6.63a3.06,3.06,0,0,0-1.7-.89c-1.77-.31-3.55-.46-5.33-.73a3.76,3.76,0,0,1-1.13-.57,23.7,23.7,0,0,0-2.25-1.25,3.85,3.85,0,0,1-2.48-4.87c.79-2.77,1.8-5.48,2.67-8.24s2.67-5.23,4-7.86c1.13-2.23,3.47-2.81,5.18-1.11s3.38,3.73,5.2,5.41a4.43,4.43,0,0,1,1.51,3.44c.05,2.54.15,5.09.26,7.64a5.88,5.88,0,0,0,.28,1.57c.55,1.63,1.11,3.27,1.75,4.86a12.11,12.11,0,0,0,1.2,2.14c1,1.49,2.07,2.91,3,4.46.58,1,1.24,1.54,2.2,1.13s1-1.63.71-2.63a7,7,0,0,0-.89-1.43c-.35-.62-.66-1.27-1-1.92a24.1,24.1,0,0,0-1.48-3.16,5.24,5.24,0,0,1-.55-4.46c.37-1.44,1.54-1.57,2.65-1.6.7,0,1.39,0,2.09,0,1.43,0,2.27.76,2.9,2.28a9.6,9.6,0,0,0,1.95,2.58c.71.75,1.62,1.24,2.28,2,1,1.19,1.82,2.55,2.77,3.79a11.26,11.26,0,0,0,1.54,1.62,34.26,34.26,0,0,1,3.53,3.06c1.1,1.26,2,2.64,3.62,3.11a1.66,1.66,0,0,1,.9,1,27.35,27.35,0,0,0,2.7,5c1.53,2.58,2.76,5.32,5.16,7a23.29,23.29,0,0,1,3.25,3.05q3.13,3.31,6.17,6.75a4.49,4.49,0,0,1,.92,1.76c.69,2.59.94,2.83,3.22,2.62a2,2,0,0,0,1.78-2.86,18.15,18.15,0,0,0-2.24-5.15,98.21,98.21,0,0,0-6.76-7.87,8.21,8.21,0,0,0-3.21-2.47c-2-.62-3.21-2.39-4.52-3.87-.54-.6-.25-2.4,0-3.57.06-.34,1.26-.63,1.88-.52a19.3,19.3,0,0,1,3.58,1.13c1.18.45,2.32,1,3.49,1.52.73.31,1.51.9,2.21.8,3.06-.43,4.9,2,7.11,3.73,1.92,1.48,4,2.72,6,4,.23.15.55.11.81.21s.7.19.88.45c1,1.41,2.48,1.82,3.69,2.74,3,2.25,5.71,4.89,8.53,7.39.33.29.57.77.92,1s1.1.6,1.35.39a2.42,2.42,0,0,0,.61-1.62c0-1.73-1.1-2.66-2.12-3.6-1.46-1.32-2.87-2.73-4.42-3.88a29,29,0,0,0-6-3.83c-2.17-.88-3.66-3.35-6.14-3.35-.11,0-.22-.19-.32-.3a22.65,22.65,0,0,0-5.56-5.24,9.32,9.32,0,0,0-4.42-1.61,6.4,6.4,0,0,1-3.47-.86,7.28,7.28,0,0,0-4.46-1.51,5.14,5.14,0,0,1-4.33-1.83,5.11,5.11,0,0,0-1.72-1,19.92,19.92,0,0,1-1.75-1c-3.06-2.09-5.13-5.68-8.47-7.45-1.44-.77-2.52-2.46-3.79-3.71-1-1-2-2.57-3.1-2.82-2-.43-2.93-1.79-3.88-3.51a1.78,1.78,0,0,1,.54-2.7,3.47,3.47,0,0,1,1.7-.63c2.27-.08,4.57.25,6.79-.1,3.44-.54,5.86,1.54,8.25,3.74a5.12,5.12,0,0,0,3.58,1.47c1.13,0,1.59-.68,1.55-1.94s-.14-2.28-1.58-2.25a7.61,7.61,0,0,1-2.43-.45c-1.38-.43-2.73-1-4.08-1.47-.65-.24-1.53-.3-1.9-.82-1.06-1.52-2.38-1.63-3.88-1.58-2.46.08-4.93.06-7.4,0a16.63,16.63,0,0,1-2.63-.27c-1.28-.2-1.87-1.12-2.15-2.58a12.53,12.53,0,0,0-1.17-3.38c-1.12-2.13-.38-4.67,1.68-5.32a3.71,3.71,0,0,1,3.57.83,5.24,5.24,0,0,0,2.23,1.22c1.61.21,3.13.42,4.26,2a1.8,1.8,0,0,0,1.15.51c1.9.27,3.82.45,5.2,2.31a.86.86,0,0,0,.64.28c2.52,0,4,2.31,5.58,3.85,2,1.92,3.88,3.43,6.38,3.92,1.44.29,2.17,1.28,2.34,3a3.88,3.88,0,0,0,.64,1.9c.8,1,1.76,1.92,2.62,2.91,1.69,1.93,3.42,3.82,5,5.87.68.89,1,1,1.71.11,1.39-1.74,3.81-1.41,5.11.46,1.09,1.58,2.29,3.08,3.5,4.55a4.82,4.82,0,0,0,1.37.86,9.29,9.29,0,0,0,.42-1.63c.17-2.22,1.38-3.19,3.16-2.4A15.65,15.65,0,0,1,266,308.9c.52.34,1.05.89,1.6.92a5.13,5.13,0,0,1,4.24,2,1.69,1.69,0,0,0,1.15.47c2,.15,3.37,1.56,4.68,3.2a6.07,6.07,0,0,0,2.42,1.55c.91.39,1.95.35,2.82.8a1.72,1.72,0,0,1,.5,2.85,7.7,7.7,0,0,0-.7,1.44,5.46,5.46,0,0,0,1.37.55c1.59.18,3.11.41,4.34,1.87.41.49,1.27.47,1.93.67s1.57.14,2,.63a6,6,0,0,0,3.92,2.19c.43.08.82.48,1.26.66,1.29.54,2.58,1.09,3.88,1.56s2.55.35,3.42,1.13a6.1,6.1,0,0,0,4,1.48c1.08.08,2.5.16,3.12.94,1.25,1.54,2.63,1.64,4.18,1.6.86,0,1.59-.18,1.69-1.43a1.87,1.87,0,0,0-1.26-2.19,4.11,4.11,0,0,1-1.79-.83,5.1,5.1,0,0,0-4.13-1.54,24.37,24.37,0,0,1-3.62-.24,2.52,2.52,0,0,1-1.64-.73c-1-1.4-2.35-1.52-3.78-1.63a11.07,11.07,0,0,1-3.33-.9,22,22,0,0,1-2.95-1.72c-.56-.35-1.1-.76-1.66-1.14a8.21,8.21,0,0,0-1.79-1.17,4.08,4.08,0,0,1-2.51-2.58,6.62,6.62,0,0,0-1.64-2.37c-2.62-2.26-4.78-5.47-8.41-5.75a1.45,1.45,0,0,1-.85-.53c-1.18-1.47-2.72-1.74-4.31-2a7.45,7.45,0,0,1-2.58-.62c-.48-.26-.72-1.13-1.06-1.73.45-.3.88-.82,1.35-.88a57.61,57.61,0,0,1,6.81-.61,5.66,5.66,0,0,1,3.29,1,7,7,0,0,0,4.46,1.54c1.72,0,3.45.09,5.16-.1a9.23,9.23,0,0,0,2.49-1.14,10.07,10.07,0,0,1,2.5-1.12c3.75-.57,6.7,2.59,10.23,3.1.24,0,.42.45.67.58.86.44,1.74.86,2.63,1.25s1.73.67,2.59,1a13.84,13.84,0,0,0,3.32,1.42,50.4,50.4,0,0,0,6.27.18,8.45,8.45,0,0,0,1.72-.39c-1.9-1.86-3.56-3.16-5.8-3.2-1.33,0-2.9.11-3.93-.64a12.54,12.54,0,0,0-5.26-2.37,1.5,1.5,0,0,1-.88-.47c-1.28-1.73-3-1.63-4.74-1.76a4.05,4.05,0,0,1-2.4-1c-1.55-1.49-2.23-1.56-4.1-.53a10.77,10.77,0,0,1-4.19,1.51c-3.38.25-6.79.22-10.18.16a5.6,5.6,0,0,1-3.34-.81,8.81,8.81,0,0,0-5.44-1.66c-1.77-.06-3.54-.11-5.29-.32a5.7,5.7,0,0,1-2.17-.94c-2.09-1.3-4-3-6.23-4s-4.38-2.9-7-2.94a1,1,0,0,1-.39-.18c-2.74-1.58-4.92-4.36-8.08-5.06-.39-.08-.7-.67-1-1.06a21.9,21.9,0,0,0-2.85-3.3c-2.79-2.07-5.71-3.91-8.57-5.85a2,2,0,0,1-.55-.49,3.74,3.74,0,0,0-3.09-1.57c-2-.13-2.56-.83-2.64-3.24-.05-1.77-.58-2.45-2.06-2.65l-.56-.05c-2.63-.29-3.42-1.26-3.51-4.31,0-.76-.06-1.52-.13-2.27-.13-1.48-.75-2-2.12-2.09a9.92,9.92,0,0,1-5.08-1.32,39.79,39.79,0,0,1-6.35-6,13.76,13.76,0,0,1-1.81-3.73m-.67-53.36a78.8,78.8,0,0,1,.11-15.88c-.38-2.68,1.16-5.42,3.48-5.63,2.55-.23,4.45-1.94,6.27-3.58a9.43,9.43,0,0,1,7.1-2.55,5.84,5.84,0,0,0,3.21-.56c1.93-1.19,3.22-1.26,5,.18.63.51,1.45,1.14,2.12,1.05,3.13-.41,5.84,1.2,8.26,2.89,1.62,1.14,3.26,2.38,4.87,3.6,2.21,1.66,4,1.83,6-.16a7.18,7.18,0,0,1,1.67-1.12c2.91-1.59,5.74-.08,8.6.3a.59.59,0,0,1,.37.2c.33.49.91,1,.87,1.5a2.63,2.63,0,0,1-1,1.54c-.48.38-1.15.41-1.69.72a3.28,3.28,0,0,0-1,3.4c.76,1.46,1.64.44,2.39,0,.47-.29.79-.9,1.22-1.3A21.42,21.42,0,0,1,263,180c.83-.63,1.68-1.24,2.52-1.86.61-.44,1.24-1.29,1.82-1.24a17.88,17.88,0,0,1,4.64,1c1.53.54,1.66,1.94.42,3.11-.22.21-.57.38-.61.64a4.89,4.89,0,0,0-.2,2.33,1.62,1.62,0,0,0,1.58.79c.46-.19.75-1.12,1-1.79s.15-1.93.6-2.4c1.61-1.7,3.3-3.41,5.72-3.23,1.12.07,2.23.13,3.35.18,2,.08,3.9.25,5.85.19,1.24,0,2.34-.08,3.34,1.06s1.6,0,2.21-.71a1.37,1.37,0,0,0-.14-2.08c-1.07-1-2.13-2.09-3.13-3.2-.63-.69-1-.59-1.64.07-1,1.18-1.89,1-2.76-.38-.49-.78-1-1.55-1.57-2.27-.76-1-1.59-1.3-2.53-.27-.66.72-1.32.56-2,0-1.64-1.34-2.68-1.35-4.3,0a1.6,1.6,0,0,1-2.17.11A6.33,6.33,0,0,0,272,169c-2.74-.14-5.49,0-8.23,0a2.88,2.88,0,0,1-2.66-1.44,3.76,3.76,0,0,0-4.85-.82c-1.53,1.26-3.05,2.56-4.55,3.88a4,4,0,0,1-5.94-.75c-.39-.53-1.18-.67-1.8-.94-1.14-.51-2.3-1-3.43-1.5-.51-.24-1-.65-1.46-.92-1.72-.94-3.47-1.81-5.17-2.78a2.06,2.06,0,0,1-.58-3.21c1.32-1.24,2.8-2.25,4.15-3.46a10.53,10.53,0,0,1,5.34-2.9c.29,0,.53-.45.82-.59a10.4,10.4,0,0,1,2.92-1.21c2.46-.23,4.94-.06,7.39-.32a19.12,19.12,0,0,0,4-1.28c1-.35,2-1,3-1,3.12.09,6.24.45,9.36.73a2.78,2.78,0,0,1,.93.35,2.47,2.47,0,0,0,3.24-.43,2.26,2.26,0,0,1,1.54-.63,4.36,4.36,0,0,0,3.64-1.67,2,2,0,0,1,1.53-.62c2.29.1,3.94-1.14,5.39-3,.92-1.21.87-3.33-.3-3.51s-3.18-.27-3.92.61c-1.61,1.92-3.38,1.92-5.34,2.08-2.8.23-5.69,0-8.26,1.85a3.54,3.54,0,0,1-1.89.43c-2.7.11-5.39.21-8.09.22a4.79,4.79,0,0,0-4.1,1.49,3.12,3.12,0,0,1-4,.33,3.22,3.22,0,0,1-.31-4.13c1.44-1.89,2-4.36,3.35-6.17,2.16-2.79,4.47-5.43,6.7-8.15.25-.31.41-.72.66-1,1.74-2.23,3.37-4.58,6.37-4.48a6.4,6.4,0,0,0,2.4-1c.91-.42,1.78-1.21,2.71-1.27,3.24-.22,6.51-.14,9.76-.33a8.81,8.81,0,0,0,2.67-1.06c.93-.4,1.83-1.15,2.76-1.18,3.86-.15,7.72-.1,11.58-.08,1.66,0,3.27,0,4.46-1.69.22-.31.67-.37,1-.6a22.57,22.57,0,0,0,2.6-2,4.06,4.06,0,0,1,4.08-.65,2.66,2.66,0,0,1,1.18,3,5.35,5.35,0,0,1-1.37,2.26A3.29,3.29,0,0,0,311,124a18.52,18.52,0,0,0,2,1.94,2.14,2.14,0,0,0,1.76.42,2.06,2.06,0,0,0,.79-1.66,15.83,15.83,0,0,0-1.05-4.14c-.94-2.17-.78-2.69,1.23-3.5a4.43,4.43,0,0,0,2.07-1.64A2.41,2.41,0,0,1,320,114a28.76,28.76,0,0,0,2.93-.09c.65-.06,1.1-.44.65-1.3-1.21-2.28-3.77-2.33-4.91-.11-1,1.89-3.26,2.71-4.55,1.55-1.06-1-2.07-2-3.05-3s-2.27-1.36-2.95-.33c-1.26,1.93-3,2.05-4.83,2.38a11,11,0,0,0-4.12,1.61,6.08,6.08,0,0,1-7.57-1,10.43,10.43,0,0,0-2-1.81,1.5,1.5,0,0,0-1.22,0c-.91.33-1.78.76-2.66,1.16-.55.26-1.25.38-1.59.85a3.84,3.84,0,0,1-3.36,1.61,4.65,4.65,0,0,0-3.79,1.66c-.92,1.1-2.18.59-2.65-.86a4.35,4.35,0,0,1,1.18-4.76,20.25,20.25,0,0,0,2.53-2.77,2.38,2.38,0,0,0,.21-3.07c-.69-.82-2.1-.51-2.87.48-.43.55-1,1-1.36,1.6a26.53,26.53,0,0,0-2.85,4.7,12.4,12.4,0,0,1-1.69,3.2c-1.15,1.48-2.31,2.61-4.06,2.76-.17,0-.33.18-.48.3-2.79,2.37-5.66,4.62-8.34,7.16-1.45,1.38-3.18,2.63-3.54,5.2a2.17,2.17,0,0,1-1.63,1.37,3.16,3.16,0,0,1-2.45-.95,4.41,4.41,0,0,1-.22-4.15,31.63,31.63,0,0,0,1.22-4.76,2.71,2.71,0,0,0-.46-1.78c-.87-1.19-1.9-2.22-2.77-3.4a4.65,4.65,0,0,1-.95-2.08c-.29-2.34-.34-4.64,1.45-6.42a2.18,2.18,0,0,0,.19-3,1.89,1.89,0,0,0-2.1-.06,13.4,13.4,0,0,0-2.64,3.91,4.75,4.75,0,0,1-3.73,3.15c-4.4.93-8.08-1.87-12.09-2.9a1,1,0,0,1-.45-.38c-1-1.44-2.34-1.6-3.74-1.83a5.93,5.93,0,0,1-2.92-.88c-2.09-1.8-4.43-1.78-6.69-1.31-1.18.24-2.27,1.51-3.22,2.53-.27.28.07,1.35.13,2.05.43-.12.86-.27,1.29-.36a9.42,9.42,0,0,1,3.17-.53c1.55.25,1.8,1.58.83,3.06a2.18,2.18,0,0,0-.4,1.52c.66,1.83,2.52,2.21,4.12,1.39,1.26-.66,2.85-1.37,4.07-1a25.65,25.65,0,0,1,6.11,3.23c.71.46,1.14.78,1.8.06a2,2,0,0,1,2.84-.28,6.38,6.38,0,0,1,2.09,2.64c1.2,3.28,2.63,4.93,5.63,3.63a.82.82,0,0,1,.27-.06,2.36,2.36,0,0,1,2.86,2.47c.19,3.35.3,6.72.23,10.08a5.16,5.16,0,0,1-3,4.86,2.45,2.45,0,0,0-1.29,1.49c-.33,2.76-2.19,4.18-3.62,6-1.76,2.21-3.54,4.41-5.45,6.43s-3.77,4-6.55,4.17a2.61,2.61,0,0,0-1.86.81,4,4,0,0,1-3.47,1.69,5,5,0,0,0-3.73,1.47,3.73,3.73,0,0,1-2.36.73c-2.81.16-5.71-.31-8.08,2.16a1.56,1.56,0,0,1-1.43.42c-.67-.28-1.68-.85-1.75-1.42a10.28,10.28,0,0,1,.27-4.4c1-2.81,2.44-5.4,3.53-8.17,1.3-3.35,2.67-6.69,5.18-9,1.91-1.77,3.72-4,6.53-3.91a2,2,0,0,0,1.47-.73,3.68,3.68,0,0,1,3-1.68c.89,0,1.52-.48,1.48-1.69s-.67-1.71-1.64-1.73a21.87,21.87,0,0,0-3.62,0,22.05,22.05,0,0,0-2.78,1.07c-.71.22-1.64.64-2.18.31a71.28,71.28,0,0,1-7.43-5,5.82,5.82,0,0,0-3.86-1.53,4.38,4.38,0,0,1-4.76-3.11,2.41,2.41,0,0,0-1.1-1.38,1.76,1.76,0,0,0-1.7.28c-1.75,2.1-1.1,4.45,1.33,5.23a4.32,4.32,0,0,1,2,1,4.43,4.43,0,0,0,3.39,1.54,5.44,5.44,0,0,1,3,.87,6.78,6.78,0,0,0,3.53,1.7c1.38.18,2,1.38,2.1,3.49.05,1.67-.49,2.72-1.86,2.94-2.31.38-3.62,2.38-5.27,3.9-1.36,1.25-1.77,3.1-2.68,4.61a8.28,8.28,0,0,0-1.34,5.14,9.76,9.76,0,0,1-2.62,7.83c-1.08,1.15-2.28,1-2.71-.59-.3-1.12-.3-2.35-.5-3.51a4.5,4.5,0,0,0-.54-1.92c-1.13-1.48-2.26-3-4.27-2.86a3.12,3.12,0,0,1-1.54-.67c-1.08-.62-2.13-1.3-3.19-1.94-2-1.21-3.57-2.76-3.41-5.74a18.61,18.61,0,0,0-.08-2.11,1.82,1.82,0,0,0-1.69-2,13.42,13.42,0,0,1-2.75-.48,1.82,1.82,0,0,1-1.33-2.53,11.38,11.38,0,0,1,2.39-3.41c.66-.66,1.33-1.06,1.34-2.23a3.41,3.41,0,0,0-1.28-3c-.31-.22-1-.38-1.15-.17-1.12,1.18-2.78,1.8-2.88,4.08-.08,1.87-.77,2.46-2.33,2.56-2.08.12-3.06-.44-3.26-2.32-.24-2.18-1.67-3.35-2.73-4.76a2.07,2.07,0,0,0-2.31.16,5.14,5.14,0,0,1-3.42,2.2c-.41.08-.75.58-1.13.89a6,6,0,0,1-1.46,1.2,5.34,5.34,0,0,0-3.27,3.48,2.88,2.88,0,0,1-3.5,1.61c-1.3-.31-1.67-1.45-1.75-2.77-.24-3.85-1.56-6.68-5.06-7.59a2.21,2.21,0,0,1-1-.77c-.75-1-1.33-.8-2.1.05-1.26,1.38-3.67,1.51-4.71.15a4.1,4.1,0,0,0-3.77-1.6,16.57,16.57,0,0,1-3.06.12,3,3,0,0,1-2-1.16c-1.31-2-2.19-2.08-3.87-.46a5,5,0,0,1-2.58,1.33c-3.81.56-4.68-.39-4.75-4.82-.06-3.7-.94-4.83-4.07-5.24-1.64-.21-2.15-.84-2.42-2.74a4.87,4.87,0,0,0-.6-2.08,6.34,6.34,0,0,0-5.68-3c-5.67.22-11.35.06-17,.08a3.7,3.7,0,0,1-3.12-1.43c-1.58-1.91-4.27-1.45-5.48.81-1.13,2.1-.22,4.08,1.93,4.16a24.17,24.17,0,0,1,3.07.08,5.45,5.45,0,0,1,3,1c1.17,1.17,2.41,1.27,3.79,1.58a15.28,15.28,0,0,1,5.27,2.35c.64.44.69,2.1.94,3.22s.72,1.29,1.55,1.1a3.36,3.36,0,0,1,1.64-.17c3.54,1.14,7.43,1,10.54,3.66a3.12,3.12,0,0,1,1.15,2.09,2.71,2.71,0,0,1-1.47,1.78,3.84,3.84,0,0,1-2.48.2c-3.82-1-6.79,2.05-10.22,2.87a1.13,1.13,0,0,0-.63.59,3.17,3.17,0,0,1-3.38,1.73c-.75,0-1.49,0-2.24,0-2.7,0-5.4,0-8.1,0-1.19,0-1.85.67-2,2s.87,1.63,1.73,1.84a6.38,6.38,0,0,0,1.8.12c2-.11,4.1-.16,6.13-.43s4.17.22,6.16-1c.83-.52,1.47.38,1.62,1.42a2.67,2.67,0,0,1-2.41,3.34,1.72,1.72,0,0,0-1.63,2.12c.14,1.29.92,1.53,1.91,1.63,2.49.25,3.81-1.86,5.4-3.45a32.1,32.1,0,0,1,4-3.92A20.92,20.92,0,0,1,108.2,135a8.9,8.9,0,0,1,2.59-.52c2.23-.12,4.46-.2,6.69-.19,4.61,0,9.24-.24,13.81.31,2.17.26,4.38,1.82,6.25,3.33s3,3.62,4.62,5.35a4.34,4.34,0,0,0,2.11,1.23c1.26.32,2.58.31,3.86.55,3.06.59,6.1,1.28,9.16,1.87,1.55.3,3.38,0,4.62.81a12.37,12.37,0,0,0,6.5,2,2,2,0,0,1,2,1.85,2,2,0,0,1-1.72,2.34c-1.36.15-2.76-.1-4.13,0a9.39,9.39,0,0,0-2.91.61,28.17,28.17,0,0,0-3.35,1.75c-.47.26-1.25.6-1.27.95a2.66,2.66,0,0,0,.73,1.77,2.36,2.36,0,0,0,1.53.56c1.67.14,3.35.2,5,.26a5.89,5.89,0,0,1,3.68,1.66c2,1.73,3.89,3.78,6.78,3.46s4.9,2,6.8,4.3a7.56,7.56,0,0,0,1.82,1.37c2.65,1.66,6,1.87,8,4.8,1.22,1.71,2.32,3.49,1.73,6a15,15,0,0,0-.31,3.22M143,159.78v.31c1.9-.12,3.82-.16,5.7-.44.52-.08,1-.93,1.43-1.42a16,16,0,0,0-1.46-1.86c-.23-.22-.72-.09-1.09-.09-2.51,0-5,0-7.53,0a3.33,3.33,0,0,1-3.38-1.77,2,2,0,0,0-1.13-.87c-1.44-.39-2.92-.62-4.37-1-2.11-.56-4.21-1.15-6.29-1.84-.43-.14-.75-.76-1.12-1.17-1.23-1.37-2.4-2.83-3.72-4.08a1.7,1.7,0,0,0-1.8-.19c-.9.76-2,1.62-1.74,3.24a1.89,1.89,0,0,0,.86,1.15c1.65.95,3.37,1.73,5,2.72a2.55,2.55,0,0,1,1.22,1.67,2.26,2.26,0,0,1-1.16,1.72c-1.61.5-3.13,1.85-5,.89a1.11,1.11,0,0,0-1,.25,35,35,0,0,0-2.59,2.44,11.33,11.33,0,0,0-1.72,2.11,3.32,3.32,0,0,0,0,1.66c0,.09.56.26.7.13,1.74-1.56,3.78-.73,5.67-1,1.23-.19,2.71-.07,3.62-.83,1.78-1.48,3.64-1.68,5.66-1.8a5.41,5.41,0,0,0,2.92-1.15,3.19,3.19,0,0,1,4.68.14,3.11,3.11,0,0,0,1.66,1c2,.12,4,.05,6,.05m194,151.83c-2.89-.88-5.33.82-7.86,1.95-.31.15-.51.64-.76,1,.3.19.6.52.92.55,2,.17,4,.69,6,.33,3.35-.64,5.87,2,8.9,2.52.41.07.77.73,1.12,1.15,1,1.21,2,2.39,2.93,3.68a11.39,11.39,0,0,1,1.6,3.05c.31,1,.63,1.78,1.65,1.79s1.26-.85,1.4-1.82c.37-2.47.84-3,3-3.05,2.55-.08,5.11,0,7.67-.07a4.67,4.67,0,0,1,4.09,1.6,2.39,2.39,0,0,0,1.5.76c2.92.3,5.84.55,8.76.72a1.41,1.41,0,0,0,1.07-.79,1.49,1.49,0,0,0-.4-1.23,8.46,8.46,0,0,0-2.89-1.68c-1.63-.34-3.34-.13-5-.36a14.53,14.53,0,0,1-3-1,22.56,22.56,0,0,0-3.87-1.47,27.63,27.63,0,0,0-4.73-.09c-2.75,0-5.49.16-8.23.09a3.54,3.54,0,0,1-2.12-.95c-1.1-1-1.95-2.35-3.09-3.26-2.18-1.75-4.26-4-7.27-3.38a7.25,7.25,0,0,1-1.4,0M103.76,64.85c0,.19,0,.39,0,.59a11.38,11.38,0,0,0,1.28.21c1,0,2.06-.06,3.07.08,1.92.27,2.51,1.75,1.57,3.68a4.3,4.3,0,0,1-3,2.62,2.15,2.15,0,0,0-1.31,1.37,2,2,0,0,0,.64,1.71,3.13,3.13,0,0,0,1.93-.2c.28-.08.48-.49.73-.74,2-2,4-1.66,5.26,1a3.45,3.45,0,0,0,.39.67,2,2,0,0,0,2.94-.15c.94-.94.09-1.7-.38-2.13a12.25,12.25,0,0,0-2.4-1.35,4.51,4.51,0,0,1-1.68-1.16,16.63,16.63,0,0,1-1.19-2.9,1.14,1.14,0,0,1,.8-1.68c.4-.15,1,0,1.2-.32s.56-1.3.41-1.45a12,12,0,0,0-2.65-2.31c-1.56-.9-3.23-.33-4.52,1.07a4.84,4.84,0,0,1-1.69,1,9.29,9.29,0,0,1-1.4.37m30,44.1-.07-.66c-.11-.09-.22-.26-.33-.27-2.73-.27-4.2-2.53-5.78-4.74a2.66,2.66,0,0,0-3.25-1.17c-1.35.54-1.66,1.66-1.56,3.19.13,2.16,0,4.18-1.88,5.51a2.8,2.8,0,0,0-.62,2.26c.09.43,1.15.91,1.71.83a2.75,2.75,0,0,0,1.84-1.26c2.15-3.92,3.1-4.42,6.9-3.21.23.07.47.23.67.18.8-.19,1.58-.44,2.37-.66M20.6,123.09c0,.21-.05.42-.08.63a11.07,11.07,0,0,1,1.39.29,7.14,7.14,0,0,1,2,.84c1.4,1,2.13,1.08,2.79,0,.84-1.37.74-3.62-.34-4.36a3.37,3.37,0,0,1-1.36-3.1,2.64,2.64,0,0,0-.83-1.81,82.26,82.26,0,0,0-7-4.41,3.82,3.82,0,0,0-3-.35c-.44.16-.62,1.85-.62,2.85,0,2.18.57,2.4,2.38,1.58.89-.4,2.17-.8,2.88-.35a28,28,0,0,1,4.88,4.22,3.16,3.16,0,0,1,.56,2.53c-.25.68-1.24,1.08-2,1.38a4.65,4.65,0,0,1-1.71,0M309,164.54l.35-.21c-.5-1-1-2-1.51-3.08a14.78,14.78,0,0,1-1.09-2.86c-.22-1-.48-2-1.49-2-.5,0-1.44.55-1.43.81,0,.88.18,2.14.69,2.53a3.8,3.8,0,0,1,1.27,4.67c-1.07,2.14-1.66,4.6-2.89,6.48a7.55,7.55,0,0,0-1.13,5.1c0,.53.77,1.4,1.15,1.38a2.36,2.36,0,0,0,1.7-1.14,3.73,3.73,0,0,0,.1-2.21c-.59-3.11,1-4.95,2.87-6.45a3,3,0,0,0,1.41-3M52.88,120.82c.93,1.15,1.48,2,2.13,2.62s1.53,1.22,2.2,1.94c1.14,1.21,1.83,1.23,3,.13a5.16,5.16,0,0,1,2-1.29c2-.53,2-.45,1.94-2.9V121c.13-3,.13-3-2.5-3.18-.33,0-.69-.14-1,0-.47.21-1.14.48-1.3.93-.6,1.69-1.7,1.93-3,1.89-1,0-2.08.1-3.48.19m100-47.6c.18-.17.88-.53,1.11-1.13a2,2,0,0,0-.78-2.48c-.29-.19-.7-.31-.82-.59a4.59,4.59,0,0,1-.54-2.1c.13-.94.57-1.83-.43-2.37s-2.08-2.23-3.44-.6c-.87,1-1.64,2.19-2.59,3.12a2.3,2.3,0,0,0-.71,2.69,3.31,3.31,0,0,0,1.86,1.34c.91.32,1.2-.61,1.63-1.36s1.09-1.42,1.55-1.34c1,.18,1.05,1.3.86,2.35-.35,1.92.06,2.49,2.3,2.47m-61,2.55c1-.28,2.16-.2,2.64-.81a5.21,5.21,0,0,1,4.44-2.15c.35,0,1-.86,1-1.29-.09-1.93-2.49-3.41-3.86-2.32-1.88,1.5-3.54,3.38-6.11,3-.33,0-1,.63-1.05,1a2.1,2.1,0,0,0,.61,1.61,10,10,0,0,0,2.33.89M48.48,83.32a5.76,5.76,0,0,0,.63,1.77,1.62,1.62,0,0,0,1.45.55,1.55,1.55,0,0,0,.85-1.23,5.43,5.43,0,0,1,3-5.47,2.23,2.23,0,0,0,.43-1.46c-1-.72-2.26-2.08-3-1.76A7,7,0,0,0,49,79c-.51,1-.33,2.53-.5,4.28m64.86,23.09v0a8.22,8.22,0,0,0,2.22,0c.48-.14,1.23-.78,1.22-1.18a5.49,5.49,0,0,1,2-4.53,2.77,2.77,0,0,0,.13-2.19,1.53,1.53,0,0,0-1.5-.68,2.21,2.21,0,0,0-1.21,1.47c-.61,2.83-.56,2.84-3.21,3.31-.83.15-2.94,2.67-2.62,2.93a7.38,7.38,0,0,0,2.44.86,2,2,0,0,0,.55,0m-75.14,21a6.78,6.78,0,0,0-2,.88,16.43,16.43,0,0,0-2.61,3.07,3.55,3.55,0,0,0-.26,2.39c.11.39,1.07.63,1.65.65a5.29,5.29,0,0,0,4.25-2.28c.74-.88,1.57-1.67,1-2.82-.43-.84-1.39-1.32-2-1.89m97.65,44.11.38,0a1.51,1.51,0,0,0,.21-.54,4,4,0,0,1,1.92-3.66,2.18,2.18,0,0,0,.56-1.64c-.11-1.74-1.64-2.56-3-1.39s-2.34,1.27-3.7.11c-.76-.64-1.8-.36-2.21.81s.36,1.82,1.23,2.07a11.41,11.41,0,0,0,2.33.35c1.32.11,2,.89,2.14,2.43,0,.5.12,1,.18,1.49M41.46,111.12l.18.39a17.67,17.67,0,0,0,3.23-2,14.68,14.68,0,0,0,2.32-3.37c.32-.58.65-1.81.44-2A3.57,3.57,0,0,0,45.4,103c-.43,0-1.16.88-1.29,1.5-.6,2.9-.54,2.94-3,3.33a1.43,1.43,0,0,0-1.31,1.83c.13,1.08.64,1.65,1.62,1.49m236.42,54.09c.06-.18.11-.35.16-.53,1.77.68,2.74-.63,3.65-1.94.44-.65,1.12-1.79.92-2.16-.39-.74-1.36-1.6-2-1.5a13.48,13.48,0,0,0-3.49,1.6c-1.11.56-2.12,1.47-1.54,2.91.32.79,1.5,1.1,2.29,1.62M144,118.55a16.4,16.4,0,0,1-.82-2.92c-.19-2.7-.13-2.71-2.49-2.75a6,6,0,0,0-1.53,0,1.75,1.75,0,0,0-1,.67c-.69,1.12.16,4.52,1.28,5a5.42,5.42,0,0,0,4.59,0M250.49,39.69c-.28-2.57-.69-3.09-2.7-3.21a13.29,13.29,0,0,0-1.67,0c-1.75.13-2.31,1.16-1.66,3.06a7.08,7.08,0,0,0,.82,1.68c.66,1,2.82,1.7,3.83.94.65-.48.93-1.62,1.38-2.46M49,113.07c0,.22,0,.44,0,.65a14.63,14.63,0,0,0,2.11.43c1.35.07,2.69,0,3.67,1.45.15.22.93,0,1.35-.18.64-.31,1.21-.86,1.85-1.18a13.48,13.48,0,0,1,1.86-.61c-.32-.61-.62-1.24-1-1.84-.15-.27-.32-.65-.54-.72-.61-.18-1.5-.57-1.82-.25-1.79,1.77-3.86,1.94-6,1.85a5.53,5.53,0,0,0-1.48.4M161.8,99.51a13.58,13.58,0,0,0-1.36.89,1.13,1.13,0,0,0,.12.85c1.14,1.4,2.31,2.78,3.52,4.11a.88.88,0,0,0,1,0,11.91,11.91,0,0,0,1.8-2c.72-1,.39-2.69-.6-3-1.34-.36-2.73-.54-4.44-.87m-35.24-21,.09.26A18.36,18.36,0,0,0,129,77.67a11.24,11.24,0,0,0,1.88-1.59c.28-.27.67-.72.64-1-.1-1-2.34-2.19-3.21-1.73a9,9,0,0,0-2.48,1.41,13,13,0,0,0-1.58,2.83l2,.91a.66.66,0,0,0,.28,0m218.76,37.17c0,.54,0,1.08,0,1.62.09,1.32.83,2.07,1.75,1.47a14.75,14.75,0,0,0,3.06-3,2,2,0,0,0-.28-1.59,3.93,3.93,0,0,0-1.59-1.19c-2.82-1.12-3.12-.84-2.94,2.65m-275.2,12.2c-1.89.17-3.47.26-5,.48a2.17,2.17,0,0,0-1.16.77,10.19,10.19,0,0,0-1.51,2.1,5.35,5.35,0,0,0-.55,2.32c0,.28,1,.88,1.31.73a2.8,2.8,0,0,0,1.52-1.54,3.88,3.88,0,0,1,3.67-3.12,6,6,0,0,0,1.65-.21c.29-.12.53-.65.63-1.06,0-.13-.48-.43-.53-.47M353.37,91v0h2.09c1,0,1.61-.47,1.6-1.72s-.55-1.68-1.48-1.7c-1.49,0-3,0-4.46,0-.95,0-1.48.59-1.45,1.72s.53,1.7,1.47,1.74c.75,0,1.49,0,2.23,0M340,106.07a5,5,0,0,0,.85-.18c1.47-.69,3-1.37,4.4-2.13a1.26,1.26,0,0,0,.47-1c-.2-1.36-2.53-2.58-3.51-1.88a15.23,15.23,0,0,0-2.62,2,3.17,3.17,0,0,0-.52,2.1c0,.43.68.79.93,1m-9.57,9.18c-2.53-.3-3.37,2.32-4.7,3.91-.93,1.11-.29,2.12,1.14,2.26s2.05-.45,2.2-2a2.37,2.37,0,0,1,1.8-2.33,7.89,7.89,0,0,0,1.73-1l-2-.87a.66.66,0,0,0-.14,0m-179.4-14a.34.34,0,0,1,0-.1c.6,0,1.2,0,1.8,0a1.37,1.37,0,0,0,1.23-1.76c-.13-.65-.69-1.62-1.12-1.67a15.3,15.3,0,0,0-4.27.16,1.94,1.94,0,0,0-1.18,1.41,2.47,2.47,0,0,0,1.21,1.62,7.09,7.09,0,0,0,2.32.35m163.89,4.83,0,.13c1.52,0,3.05.07,4.57,0a1.52,1.52,0,0,0,1-1,2.55,2.55,0,0,0-.75-1.59,1.12,1.12,0,0,0-1.23,0c-1.59,1.77-3.55,1.65-5.5,1.66a36,36,0,0,0-4,.14c-.39,0-.75.6-1.12.92.46.21.94.64,1.38.6,1.88-.17,3.75-.48,5.62-.74M189,36.36c-1.94,0-2.87.74-2.82,2.23,0,1,2,2.95,3,3,1.16,0,2.21-1.4,2.2-3s-.7-2.22-2.33-2.21M41.67,123.66c-1-.37-2.05-.41-2.61-1-1.31-1.42-2.94-1.19-4.44-1.5-.47-.09-1.06.67-1.6,1,.32.63.54,1.66,1,1.82a9.36,9.36,0,0,0,7.66-.34m66.64,57h0a14.7,14.7,0,0,0,0-2.1c-.06-.48-.25-1.16-.54-1.3s-.83.24-1.14.55c-1.59,1.6-1.49,3.74-1.17,5.84.07.48.8,1.18,1.21,1.16a1.86,1.86,0,0,0,1.4-1.11,14.22,14.22,0,0,0,.31-3m38.3-75a9.84,9.84,0,0,0-1.34-.31c-1.76-.13-3.47-.22-4.81-2-.31-.42-1.41-.34-2-.06a2.09,2.09,0,0,0-.41,1.79,2.54,2.54,0,0,0,1.57,1.16c1.29.37,2.7.29,3.91.83,1.62.71,1.95.74,3.08-1.43m-2.67-14.77a7.45,7.45,0,0,0,2.33-.23,2.39,2.39,0,0,0,1.06-1.59c.08-.42-.45-1.43-.72-1.44a29.84,29.84,0,0,0-5.08.33c-.33,0-.85,1-.78,1.43a2.06,2.06,0,0,0,1.12,1.31,7,7,0,0,0,2.07.19M56.27,106.35v.13a13.66,13.66,0,0,0,2.48-.06c.25,0,.66-.9.56-1.13-.9-2.08-3.51-3.16-5.35-2.12-.54.31-.8,1.29-1.19,2a6.54,6.54,0,0,0,1.57,1.17,6.21,6.21,0,0,0,1.93,0M296.7,160.83c-.53.53-1.22.91-1.44,1.51a2.13,2.13,0,0,0,.68,2.68c.69.44,1.38.86,2.06,1.33s1.39.88,2,0a2,2,0,0,0-.38-2.6c-.5-.54-.93-1.18-1.45-1.72a15.26,15.26,0,0,0-1.44-1.15M29.51,90.29c0-2.38-.89-3.19-2.83-2.58-.53.16-1.38,1-1.3,1.29A15.47,15.47,0,0,0,27,92.74c.19.32,1.13.21,1.63,0,.34-.15.58-.8.73-1.28a4.42,4.42,0,0,0,.14-1.17m99.11,25.27v0a8.57,8.57,0,0,0-2.09,0c-.44.11-.81.62-1.22,1,.32.48.55,1.21,1,1.38a11.75,11.75,0,0,0,3.12.8,2.61,2.61,0,0,0,1.85-.42,2.34,2.34,0,0,0,.66-1.74c0-.38-.73-.85-1.19-1a9.1,9.1,0,0,0-2.09,0m48.87-14.44v0c.41,0,.83,0,1.24,0a1.42,1.42,0,0,0,1.55-1.6c0-1.18-.51-1.82-1.51-1.87a23.11,23.11,0,0,0-2.63,0,1.31,1.31,0,0,0-1.35,1.61,3.35,3.35,0,0,0,1.2,1.81c.35.28,1,.05,1.5.05m-69.64-7.61c-2.53,1.59-3,2.57-2.6,5.82.06.53.5,1.34.84,1.4a1.65,1.65,0,0,0,1.51-.69,10.49,10.49,0,0,0,.25-6.53M68.48,108c-.46,0-.92,0-1.39,0-1.07.05-1.44.83-1.37,2,.08,1.36,1.48,1.88,3.88,1.57,1.16-.15,1.68-.87,1.5-2.17-.25-2-1.58-1.35-2.62-1.36M230,40.06h1.25c1,0,1.45-.64,1.48-1.74s-.45-1.73-1.4-1.82c-.46,0-.93,0-1.39,0-2,0-2.62.44-2.62,1.76s.58,1.82,2.68,1.82m59,48.33c.51,0,1.11.2,1.5,0a2.71,2.71,0,0,0,1.13-1.52c.1-.46-.33-1.55-.59-1.58a17.32,17.32,0,0,0-4.07,0c-.23,0-.56,1.08-.52,1.63.15,2,1.51,1.43,2.55,1.48M275.6,98.31c0-.15,0-.3,0-.45a5.78,5.78,0,0,0-1.57-.44,33.12,33.12,0,0,0-3.59.24,1.65,1.65,0,0,0-1.5,2.17c.22,1.28,1.09,1.58,1.9,1.19,1.63-.77,3.17-1.79,4.75-2.71m-94.42,15.54v0a18,18,0,0,0,2.08,0c.85-.1,1.2-.71.72-1.57-.73-1.32-1.91-2.2-3.18-1.77-1,.32-1.7,1.45-2.49,2.28,0,0,.38,1,.65,1a11,11,0,0,0,2.22,0M20.07,130.78a8.17,8.17,0,0,0-1.11.07,1.75,1.75,0,0,0-1.5,2,1.46,1.46,0,0,0,1.72,1.6c.69,0,1.39-.11,2.08-.19s1.5-.29,1.52-1.46a1.7,1.7,0,0,0-1.46-1.84c-.41-.09-.83-.1-1.25-.15M284.26,69.35c-.41.05-.84,0-1.14.16-.6.35-1.57.81-1.6,1.3a2,2,0,0,0,1.74,2.31,3.4,3.4,0,0,0,1.1-.06c1.6-.27,2.51-1.09,2.32-2.2-.27-1.63-1.52-1.25-2.42-1.51M280,91c.68,0,1,0,1.33,0A1.53,1.53,0,0,0,283,89.29a1.51,1.51,0,0,0-1.63-1.74,6.52,6.52,0,0,0-2.34.16,2,2,0,0,0-1.1,1.49A2.89,2.89,0,0,0,279,90.89c.32.27.89.13,1,.14m56.43,20,.3-.63a17.76,17.76,0,0,0-2.68-2.48,7.77,7.77,0,0,0-3-.91c-.42-.06-.9.47-1.35.73a4.77,4.77,0,0,0,.78,1.06c.72.58,1.52,1,2.24,1.57a3.74,3.74,0,0,0,3.75.66m-19.2,65.45c.72-1.34.59-5.64-.29-6.6a2,2,0,0,0-1.36-.53c-.24,0-.61.49-.7.84a5.94,5.94,0,0,0,2.35,6.29M189.16,55.57c1.53.06,2.07-.5,2.09-1.89s-.66-2-1.75-1.87a5.92,5.92,0,0,0-2.3.43,2.16,2.16,0,0,0-.9,1.57,2.07,2.07,0,0,0,1,1.39,5.55,5.55,0,0,0,1.82.37M398.5,115.8c0-.22,0-.43,0-.65,0-1.22-.27-2.16-1.5-2.16s-1.69.88-1.63,2.21c0,.7,0,1.4.12,2.09.11,1,.55,1.57,1.47,1.53s1.35-.58,1.46-1.57c.05-.48.05-1,.08-1.45m-40.9-13c-1.78,0-3.06.89-3.27,2.33-.15,1,0,1.73,1.16,1.45a20.73,20.73,0,0,1,2.34-.38c.84-.11,1.79-.08,1.74-1.49a1.74,1.74,0,0,0-2-1.91m-68.54-4.17V98.6a3.68,3.68,0,0,0,1.37,0,8.35,8.35,0,0,0,1.47-1.11c-.43-.7-.76-1.83-1.31-2a5,5,0,0,0-3,.18,2.46,2.46,0,0,0-1,1.82c0,.35.82.87,1.34,1.16.3.16.72,0,1.09,0M171.4,34.07a2.59,2.59,0,0,0-1.26.19,1.81,1.81,0,0,0-.8,1.34c.24,1.73,2.34,2.93,3.61,2,.63-.47.89-1.59,1.32-2.41-.6-.37-1.19-.76-1.81-1.09-.19-.1-.45,0-1.06,0M145.21,79.93a4,4,0,0,0-1.76.25,2.8,2.8,0,0,0-1,1.67c0,.32.59,1.08,1,1.19a12.12,12.12,0,0,0,3,.3c.82,0,1.24-.59,1.19-1.59-.06-1.37-.67-1.82-2.42-1.82m28.19,28.72c1.43,0,2.39-.11,2.46-1.68s-.9-1.68-1.87-1.73a4.87,4.87,0,0,0-1.79,0c-.49.17-1.25.7-1.26,1.09a2.59,2.59,0,0,0,.84,1.79,3.8,3.8,0,0,0,1.62.49M134.12,64.5v0H133c-1.16,0-1.69.73-1.6,2.07s.87,1.55,1.77,1.41a3.18,3.18,0,0,0,1.68-.62,14.07,14.07,0,0,0,1.67-2.16l-2.28-.72a.57.57,0,0,0-.13,0m98.59,25.44v-.08a6.36,6.36,0,0,0-1.91.3,1.5,1.5,0,0,0-.46,1.28c.38,1.08,2.61,2.31,3.47,1.77a8.21,8.21,0,0,0,1.65-2.15,19.39,19.39,0,0,0-1.78-1.1,2.42,2.42,0,0,0-1,0m-93.25-7.41c-.67-.67-1.27-1.64-2.05-1.92s-1.85,1.24-1.74,2.73c.09,1.16.43,2.15,1.64,2.14,1,0,1.93-1.37,2.15-3m-64.5,33h0c-.32,0-.64,0-1,0-1,0-1.54.61-1.5,1.81s.63,1.74,1.64,1.61a3.83,3.83,0,0,0,1.86-.47,8.73,8.73,0,0,0,1.37-2c-.62-.32-1.23-.66-1.85-1a1.44,1.44,0,0,0-.55,0M246.71,78.28c.26,0,.63-.09,1-.12,1.1-.11,1.4-.59.74-1.78C247.67,75,245.3,74.15,244,75a1.12,1.12,0,0,0-.32.89,3.39,3.39,0,0,0,3,2.39M292,126.85c.44-.25,1.33-.46,1.37-.82a2.45,2.45,0,0,0-.64-1.91,5.41,5.41,0,0,0-2.53-1c-.44,0-1.34.58-1.34.9a3,3,0,0,0,.75,2,7.29,7.29,0,0,0,2.39.8M36.85,106.34c.54,0,1.52-.19,1.06-1.47A3,3,0,0,0,36,103.11a3.1,3.1,0,0,0-2.44.89,1.23,1.23,0,0,0,.77,2.14c.74.1,1.48.12,2.54.2M270.32,47.13a4.74,4.74,0,0,0-.84-1.64c-.21-.19-.92.38-1.4.64a4.58,4.58,0,0,0-.57.44,2.3,2.3,0,0,0-.69,2.71c.2.5,1,1.13,1.35,1A5.54,5.54,0,0,0,270,48.66c.22-.26.19-.81.33-1.53m-58.22-5.2c0,.7,0,1,0,1.35,0,1.33.62,2,1.77,1.9s1.57-1.11,1.27-2.17a8.35,8.35,0,0,0-1.55-2.74c-.65-.81-1.18-.34-1.39.59a6.34,6.34,0,0,0-.1,1.07M48.25,125.82l.6-.09c.06-.43.13-.86.19-1.29a13.14,13.14,0,0,1,.24-1.42c.63-2.19.54-2.75-1.12-3.94-.45-.32-1.21,0-1.82-.06.07.79-.11,2,.26,2.28,1.35,1.11,2.38,2.23,1.65,4.52m82.66-25.9c.54.93.92,2.2,1.67,2.69s1.8-1.38,1.85-2.91c0-1.28-.53-1.94-1.59-2s-1.59.69-1.93,2.19m-2,74.13a20.86,20.86,0,0,0,.49,2.35c.34,1,1.2,1.39,1.92.93a2.53,2.53,0,0,0,.85-2,4.9,4.9,0,0,0-1.35-2.09,5.44,5.44,0,0,0-1.35-.83c-.19.57-.39,1.15-.56,1.63M72.24,123a5.65,5.65,0,0,0-1.37.65c-.16.13-.14.86,0,1.15.69,1.26,1.65,2.13,3,1.68a1.94,1.94,0,0,0,1.18-1.26,2.19,2.19,0,0,0-.81-1.64,6.12,6.12,0,0,0-2-.58m254.55,6.14c1.18,0,1.91-.51,2-1.78s-.7-1.64-1.64-1.65a2.18,2.18,0,0,0-1,.07,17.47,17.47,0,0,0-1.67,1.07,14,14,0,0,0,1.3,1.94c.26.29.77.28,1,.35M105.72,165.23c0-.09.09-.17.13-.26.37,0,.74,0,1.1-.11,1.08-.23,1.41-1.09,1.3-2.26a1.37,1.37,0,0,0-1.67-1.42c-.81.07-2.54,2.23-2.27,3,.16.48.92.68,1.41,1m60-54.85c-1.71,0-2.59.56-2.61,1.49a2.24,2.24,0,0,0,2.3,2.06c1.1,0,1.8-.46,1.79-1.86s-.82-1.68-1.48-1.69m-1.58-38.2c-2,0-2.85.73-2.82,2,0,1.41.92,1.59,1.85,1.64a1.82,1.82,0,0,0,2-2.2c-.11-.66-.84-1.18-1-1.42M300.38,127c1.23-.27,2.1-.5,2.12-2,0-1.29-.62-1.86-1.67-1.88s-2.5,1.39-2.2,2.39c.19.65,1.14,1,1.75,1.48M79.07,82.89c-.66.22-1,.21-1.17.41-.42.57-.75,1.23-1.12,1.85a10,10,0,0,0,1.51.8,20.33,20.33,0,0,0,2.31.53c.75.15,1.43-.27.92-1.07a14.37,14.37,0,0,0-2.45-2.52m115,29c.76-.51,1.85-.82,2.2-1.58s-1.35-2.49-2.3-2.44c-1.13.06-1.5.85-1.46,2a1.76,1.76,0,0,0,1.56,2M28,105c-.05.09-.11.18-.17.27a3.75,3.75,0,0,0-.82.09c-.75.22-2,0-1.76,1.36.14.7,1.33,1.16,2.09,1.61a.91.91,0,0,0,.91-.22,20.15,20.15,0,0,0,1.39-1.75L28,105M139.9,72.22c-1.16,0-1.92.29-2,1.65-.05,1.2.46,1.81,1.49,1.86a2.1,2.1,0,0,0,2.31-2c-.11-1.43-1.12-1.37-1.83-1.51m17.8,14c.57-.52,1.48-.93,1.62-1.57.23-1.09-1.1-2.23-2.28-2.22A1.36,1.36,0,0,0,155.5,84c0,1.5.89,1.84,2.2,2.23M29.12,113.86a21.67,21.67,0,0,0,3.4-.06c.42-.07,1.09-.8,1.06-1.16a3.1,3.1,0,0,0-.87-2,1.48,1.48,0,0,0-1.6.17,20,20,0,0,0-2,3M326,161.52l-1.84,2.5c.66.63,1.28,1.71,2,1.78s1.36-1,2-1.52L326,161.52m-72-75a4.74,4.74,0,0,0-1.37.74,1.47,1.47,0,0,0,0,1.17A14,14,0,0,0,256,89.71c.42.09,1-.58,1.42-1a1.34,1.34,0,0,0-.33-.89c-1-.48-2-.85-3-1.27m38.64,20.08c.58-.53,1.51-1,1.65-1.6a2,2,0,0,0-2.08-2.22c-.94,0-1.48.58-1.48,1.7,0,1.28.66,1.81,1.91,2.12m8.4-8.94c-1.27,0-1.8.74-1.77,2,0,.83-.14,1.88.94,2s2.14-1.18,2.16-2.31-.46-1.71-1.33-1.75M64.82,77.12c-.76,0-1.57.28-1.53,1.58s.64,2,1.76,2c1,0,1.63-.31,1.62-1.62s-.56-2-1.85-2m91.06,28a.19.19,0,0,1,0-.08,7.1,7.1,0,0,0-1.91.36,1.58,1.58,0,0,0-.57,2.3c.2.35,1.1.32,1.63.2a4.23,4.23,0,0,0,1.45-.92c.45-.37.86-.82,1.29-1.23l-1.6-.62a.88.88,0,0,0-.28,0M41.24,85.94a1.49,1.49,0,0,0,1.66-1.69c0-1.15-.36-2-1.47-2.13s-1.72.76-1.72,2,.56,1.76,1.53,1.8m329.2,21.57c-.5.55-1.28,1-1.43,1.66a2,2,0,0,0,1.85,2.12c1.06,0,1.54-.64,1.5-1.81s-.71-1.65-1.92-2M225.54,84.27l2.16-1.75c-.69-.7-1.35-1.87-2.09-1.94s-1.3,1.2-2,1.88c.55.54,1.11,1.07,1.88,1.81m73.86,4.8c0,1.1.43,1.85,1.45,1.92s1.64-.57,1.68-1.82c0-1.06-.31-1.81-1.31-1.83a1.63,1.63,0,0,0-1.82,1.73M318.8,91c.88-.07,1.35-.86,1.35-2,0-1.32-.86-1.55-1.74-1.57s-1.54.43-1.49,1.63.57,1.91,1.88,2M94.08,101.55c.47-.42,1.26-.77,1.35-1.29a2.27,2.27,0,0,0-2-2.48c-.9,0-1.36.59-1.39,1.63,0,1.45.71,1.88,2,2.14m90.43,3.85-.23.78a19,19,0,0,0,3.07,1.82c.34.13,1.09-.59,1.38-1.12.12-.23-.41-1.36-.73-1.41a23.87,23.87,0,0,0-3.49-.07M354.84,97c0-1.24-.65-1.83-1.69-1.84-.8,0-1.54.26-1.53,1.42s.56,1.92,1.62,2,1.53-.38,1.6-1.58M12.21,125.17c0-1.35-.47-2-1.48-2a1.41,1.41,0,0,0-1.6,1.55c-.05,1.14.34,1.9,1.4,1.95a1.41,1.41,0,0,0,1.68-1.46M309.73,174c-.85.11-1.65.39-1.62,1.67s.6,1.88,1.67,1.87,1.49-.7,1.47-1.86-.51-1.68-1.52-1.68M103.29,174l.59.08a39.54,39.54,0,0,0,1.5-4.11c.08-.33-.6-1.09-1-1.38-.23-.15-1.06.3-1.07.52-.07,1.63,0,3.26,0,4.89M213.49,56.86c-.94.06-1.35.73-1.32,1.82s.6,1.79,1.62,1.74,1.4-.74,1.38-1.83a1.53,1.53,0,0,0-1.68-1.73m6.61-6.46c1.05,0,1.59-.59,1.59-1.79s-.52-1.79-1.53-1.8-1.44.61-1.49,1.69.47,1.8,1.43,1.9m-70.51,61.66a1.48,1.48,0,0,0-1.64-1.64c-1,0-1.36.72-1.4,1.76s.54,1.64,1.46,1.66,1.56-.54,1.58-1.78m176.8-12.38a8.42,8.42,0,0,0-1.46.32c-.25.09-.44.45-.65.69.22.24.41.58.67.69a6.36,6.36,0,0,0,1.72.54,3.87,3.87,0,0,0,1.76-.07c.2-.07.42-1.1.31-1.2a8.35,8.35,0,0,0-1.63-1,3.08,3.08,0,0,0-.72,0M172.24,74.63c-1,.05-1.48.6-1.5,1.73s.49,1.82,1.52,1.8,1.48-.59,1.5-1.7-.55-1.77-1.52-1.83m211.09,45.25c0-1.15-.48-1.81-1.53-1.78s-1.51.72-1.48,1.86.67,1.71,1.63,1.69,1.41-.66,1.38-1.77M247.82,53.05c1.18-.36,2-.61,2-1.93a1.49,1.49,0,0,0-1.57-1.64,1.65,1.65,0,0,0-1.61,2c0,.57.79,1.07,1.23,1.6M72.09,170.92a6.2,6.2,0,0,0,1.55,1.3,8.57,8.57,0,0,0,2.57.4c.29,0,.59-.28.89-.44-.18-.27-.35-.78-.53-.78-1.23,0-2-.85-2.87-1.73-.66-.69-1.34-.19-1.61,1.25m19.81,8.21c-1.45.12-2,.71-2,1.89,0,1,.46,1.6,1.37,1.6a1.49,1.49,0,0,0,1.55-1.91c-.09-.65-.7-1.21-.93-1.58m47.83-125c-1.27.29-1.84.75-1.84,1.91s.45,1.76,1.41,1.76a1.39,1.39,0,0,0,1.5-1.65,6.38,6.38,0,0,0-1.07-2m107.45,40-1.89,1.65c.6.5,1.25,1.49,1.78,1.4.82-.13,1.56-1,2.33-1.54l-2.22-1.51m-97.55,82.21c-.08-1.74-.66-2.28-1.65-2.27-.77,0-1.59.09-1.52,1.33s.46,2.14,1.58,2c.62-.09,1.18-.75,1.59-1m-.22-144.82a3.43,3.43,0,0,0-1.11,0,5.67,5.67,0,0,0-1.11.72c.29.44.52,1.19.87,1.27a4.62,4.62,0,0,0,2.42,0c.44-.14.74-.92,1.1-1.41a11.16,11.16,0,0,0-1.34-.56,2.56,2.56,0,0,0-.83,0m188.37,92.79.69,0a6.3,6.3,0,0,0,1.13-1.92,1.37,1.37,0,0,0-1.3-1.81,1.41,1.41,0,0,0-1.56,1.72,6,6,0,0,0,1,2M112.65,169.07l-.18.62a9.44,9.44,0,0,0,1.8,2c1,.56,1.69-.28,2.07-1.24.11-.3-.3-1.27-.54-1.3a22,22,0,0,0-3.15-.07m237.76-61-.18.56a12.46,12.46,0,0,0,1.67,2,1.79,1.79,0,0,0,1.54.09,1.4,1.4,0,0,0,.45-1.17c-.13-.55-.48-1.34-.85-1.44a11,11,0,0,0-2.63-.07M126.71,58.62l-.17-.28-1.39,1.18a6.2,6.2,0,0,0,1.36.93,5.53,5.53,0,0,0,2,.3c.4,0,.78-.47,1.17-.72-.31-.38-.58-1-1-1.11a9.22,9.22,0,0,0-2-.3M72,90.21c.8.91,1.32,1.52,1.85,2.13.46-.57,1.38-1.33,1.28-1.65a4.36,4.36,0,0,0-1.55-2c-.14-.11-.82.74-1.58,1.47m28.2,3.47-.06-.73a6.73,6.73,0,0,0-2.11-.82c-.39,0-.8.74-1.21,1.15.6.64,1.13,1.54,1.83,1.8.35.13,1-.9,1.55-1.4M81.85,164.49a3.13,3.13,0,0,0,0,3.4,19,19,0,0,1,.7,2.05,17.64,17.64,0,0,0,.73,1.79,1.23,1.23,0,0,0,.67-.25,19.71,19.71,0,0,0-.22-2.29c0-.18-.28-.29-.37-.47-.35-.73-.71-1.46-1-2.22-.19-.5-.28-1.06-.53-2M127.05,68l.13-.66a25.53,25.53,0,0,0-3.13-1.39c-.27-.08-.84.55-1,1a1.41,1.41,0,0,0,.49,1.12,4.26,4.26,0,0,0,3.56-.07M244.22,84.1c-.69,1.07-1.27,1.61-1.4,2.27a1.31,1.31,0,0,0,1.28,1.69c1,0,1.63-.72,1.51-1.83-.07-.59-.69-1.1-1.39-2.13m-146.85,82c-.09-1.61-.46-2.5-1.53-2.31-.45.09-.81.79-1.22,1.21a15,15,0,0,0,1.69,2.06c.1.1.82-.73,1.06-1M63.08,89.84h-.65a6,6,0,0,0-1,1.85c-.15,1,.42,1.84,1.28,1.53a2.85,2.85,0,0,0,1.39-1.78c.1-.37-.64-1.06-1-1.61M61.4,173c0,.27,0,.54,0,.81.53.42,1,1.06,1.61,1.21.75.19,1.38-.35,1.37-1.37s-.54-1.83-1.47-1.71c-.52.06-1,.69-1.49,1.06M202.64,99.81c-.77-.83-1.43-1.74-1.58-1.64a10,10,0,0,0-1.7,1.78c.46.48.92,1.34,1.38,1.34s1-.77,1.9-1.48M89.47,175.16c.39-.6,1.12-1.24,1.07-1.78a2.36,2.36,0,0,0-1.28-1.64c-.81-.26-1.37.43-1.41,1.49s.38,1.62,1.62,1.93M312,94.39c.62-1,1.26-1.64,1.21-2.15a2.15,2.15,0,0,0-1.14-1.58c-.87-.21-1.56.56-1.46,1.6.06.59.69,1.1,1.39,2.13M36.23,115.85c0,.22,0,.44,0,.66,1.18.21,2.35.47,3.54.59.21,0,.58-.53.65-.87a1.07,1.07,0,0,0-.51-.81,3.72,3.72,0,0,0-3.63.43m279.88-18.8c-.59.86-1.27,1.42-1.25,1.94s.66,1.17,1,1.75a12,12,0,0,0,1.48-2c.09-.16-.63-.86-1.26-1.68m-9.69-23.93c-.82,1.07-1,3.24-.3,4a1,1,0,0,0,1.07-.15c.78-1,.46-2.52-.77-3.9M99.48,173.26v-.68c-.52-.34-1-1-1.56-1s-.84.78-1.27,1.21c.49.53.92,1.29,1.49,1.5.32.11.88-.69,1.34-1.08M237,45.27l-.51.08a7.52,7.52,0,0,0-.3,2,5.25,5.25,0,0,0,.75,1.57c.53-.55,1.52-1.2,1.46-1.65-.1-.72-.9-1.32-1.4-2m51.07,119.67.74-.7-1.95-2.32c-.21.41-.59.82-.6,1.24,0,1.2.64,1.68,1.81,1.78m-36.81,16.25c-.61.74-1.27,1.2-1.3,1.7s.79,1.34,1.08,1.25c.56-.16,1-.85,1.51-1.33-.35-.44-.71-.88-1.29-1.62m86.19-86.07c0,.2,0,.4,0,.61.7.85,2.64,1.27,3.36.68a1.2,1.2,0,0,0,.37-.77.66.66,0,0,0-.45-.49c-1.09-.05-2.19,0-3.29,0m-7.72-5.72L328.37,91c.48.49.91,1.17,1.46,1.38.25.1,1.11-.78,1.08-1.14-.05-.54-.64-1-1.19-1.79m-32.52,16c0,.24,0,.48.05.73a10.74,10.74,0,0,0,2.32.13c.34-.06.61-.71.91-1.09-.45-.29-.93-.87-1.33-.79a6.89,6.89,0,0,0-1.95,1M295,69.28l-1.35,1.28,1.52,1.63c.37-.48,1-.92,1-1.44s-.68-.86-1.21-1.47m87,42.89c.71.65,1.32,1.37,1.43,1.28a4.79,4.79,0,0,0,1.23-1.69c.06-.12-.74-1.08-1.05-1-.48.1-.88.74-1.61,1.43M315.4,165.33c.55-.83,1-1.38,1-1.5a18.51,18.51,0,0,0-1.41-2c-.28.42-.85.93-.78,1.22a10.55,10.55,0,0,0,1.22,2.25M179.23,48.23c.5-.72,1-1.19,1.13-1.75,0-.33-.63-.8-1-1.21L177.94,47l1.29,1.23m180.24,70.09c-.68-.55-1.15-1.13-1.31-1a8.9,8.9,0,0,0-1.48,1.41c.37.33.79,1,1.09.92.51-.12.94-.69,1.7-1.31m-98-34.4,1.29-1.33c-.5-.39-1-1-1.51-1.09-.37-.06-.82.6-1.23.94l1.45,1.48M81.76,117.86a2.34,2.34,0,0,0,3.89.21l-3.89-.21M370.58,99.34c-.63-.61-1-1.19-1.45-1.32-.26-.07-.67.59-1,.92l1.26,1.73,1.2-1.33m-168.75-44A18.41,18.41,0,0,0,203,52.91c0-.11-.75-.86-1-.77a1.72,1.72,0,0,0-1,1.19c-.05.47.37,1,.77,2M266.55,92l-.73.35a6.57,6.57,0,0,0-1.1,1.5c-.07.18.75,1.1.81,1a4.72,4.72,0,0,0,1.45-1.5c.14-.26-.27-.92-.43-1.4m3.15-9.71a8.19,8.19,0,0,0-1.84-1.36c-.19-.06-.59.71-.89,1.11.4.41.75,1,1.21,1.16.3.11.76-.43,1.52-.91m110,25.45L378.28,106a6.26,6.26,0,0,0-1,1.57c-.06.24.53,1,.86,1s.84-.45,1.54-.89M230.71,57l1.41-1.72c-.31-.31-.72-.94-.9-.86a3.75,3.75,0,0,0-1.33,1.19,8,8,0,0,0,.82,1.39M107.34,156.39l-1.76-1.89c-.19.44-.61,1-.5,1.29a3.13,3.13,0,0,0,1.1,1.34c.14.1.58-.36,1.16-.74M293.15,159l-1.89-1.83c-.19.36-.61.89-.52,1.07a4.32,4.32,0,0,0,1.17,1.46c.15.11.62-.33,1.24-.7M122.05,81.76l-1.3,1.51c.36.31.78.93,1.06.85.5-.13.91-.69,1.36-1.07l-1.12-1.29M266,69.28a6.24,6.24,0,0,0-1.12,1.45c-.06.19.64,1,.78,1A6.8,6.8,0,0,0,267,70.57l-1-1.29m8,3.13c-.32,1-.68,1.52-.56,1.84.16.47.66.79,1,1.18.24-.33.73-.76.67-1a11.27,11.27,0,0,0-1.13-2.06m36.82,28.33-1.86-1.93c-.21.28-.65.71-.59.81a4.91,4.91,0,0,0,1.08,1.54c.17.15.65-.19,1.37-.42m62.55,16.73L372.1,116c-.27.35-.79.75-.75,1a4.77,4.77,0,0,0,.77,1.48l1.18-1.09M235.45,83.88l1.14-1.12a4.52,4.52,0,0,0-1.29-1c-.25-.08-.63.4-1,.63l1.11,1.44m-79.5,35,.06-.49a4.75,4.75,0,0,0-1.3-.83c-.28-.07-.65.35-1,.55a6.46,6.46,0,0,0,1.25,1.21c.22.12.65-.28,1-.44M57.32,83.33c-.29,1-.54,1.87-.74,2.74a3.47,3.47,0,0,0,.66.35c.21-.85.42-1.69.62-2.54,0,0-.13-.13-.54-.55m101.75-7.14a7.32,7.32,0,0,0-.85-.9,3.82,3.82,0,0,0-1,1.25c-.08.23.33.71.52,1.08l1.34-1.43m163.14,44.58H320a6,6,0,0,0,.1.82c.7,0,1.39-.11,2.08-.18a5.31,5.31,0,0,0,.08-.64M160.29,67c-.7-.43-1.09-.88-1.41-.81s-.56.63-.84,1c.3.26.6.73.9.73s.69-.43,1.35-.9M69.52,84l1.12-1.22c-.3-.26-.66-.78-.88-.71a4.67,4.67,0,0,0-1.24,1l1,1M89,165.85l-1.22-1.34c-.19.26-.59.61-.54.75a11,11,0,0,0,.81,1.51l1-.92m214.4-33.48,1-.92c-.29-.27-.59-.78-.87-.77s-.7.45-1,.71l.95,1M119.05,54.44l0,1c.56-.05,1.12-.09,1.68-.19a3.41,3.41,0,0,0-.05-.78c-.55,0-1.11,0-1.66,0M90.41,128.61c-.75-.46-1.11-.81-1.5-.87-.23,0-.52.36-.79.57.33.29.62.71,1,.84s.59-.22,1.3-.54m202.73,38.72-.08-.92-1.82.23a3.61,3.61,0,0,0,.13.78c.59,0,1.18,0,1.77-.09m-192.25-6.05.64-.26c-.15-.55-.28-1.11-.47-1.64a5.11,5.11,0,0,0-.78.26c.2.55.41,1.1.61,1.64m-4-59.35-.23.54c.22.93.73,1.15,1.47.86.08-.17.15-.35.23-.53l-1.47-.87"/><path class="cls-1" d="M204,210.8q.15,11.31,0,22.63c0,1.92.58,3.84.31,5.76.75,1.82-.2,3.63-.29,5.46a8.73,8.73,0,0,0,.25,3c.25.86-.49,1.71-.14,2.52a13.74,13.74,0,0,0,1.8,3.73,40.28,40.28,0,0,0,6.36,6,9.91,9.91,0,0,0,5.07,1.32c1.38.08,2,.61,2.13,2.09.07.75.11,1.51.13,2.27.09,3.05.88,4,3.52,4.31l.55.05c1.47.2,2,.88,2.06,2.65.08,2.41.6,3.11,2.64,3.24a3.74,3.74,0,0,1,3.09,1.57,2,2,0,0,0,.55.49c2.86,1.94,5.78,3.78,8.57,5.85a21.9,21.9,0,0,1,2.85,3.3c.33.39.64,1,1,1.06,3.16.7,5.34,3.48,8.08,5.06a1,1,0,0,0,.39.18c2.61,0,4.68,1.92,7,2.94s4.14,2.65,6.23,4a5.63,5.63,0,0,0,2.17.94c1.75.21,3.52.26,5.29.32a8.81,8.81,0,0,1,5.44,1.66,5.6,5.6,0,0,0,3.34.81c3.39.06,6.8.09,10.18-.17a10.59,10.59,0,0,0,4.19-1.5c1.87-1,2.55-1,4.1.53a4.05,4.05,0,0,0,2.4,1c1.72.13,3.46,0,4.74,1.76a1.5,1.5,0,0,0,.88.47,12.54,12.54,0,0,1,5.26,2.37c1,.75,2.6.62,3.93.64,2.24,0,3.9,1.34,5.8,3.2a9.4,9.4,0,0,1-1.72.4,52.41,52.41,0,0,1-6.27-.19A13.84,13.84,0,0,1,312.6,311c-.86-.36-1.73-.66-2.59-1s-1.77-.81-2.63-1.25c-.25-.13-.43-.54-.67-.58-3.53-.51-6.48-3.67-10.23-3.1a10.07,10.07,0,0,0-2.5,1.12,9.23,9.23,0,0,1-2.49,1.14c-1.71.19-3.44.06-5.16.1a7,7,0,0,1-4.46-1.54,5.63,5.63,0,0,0-3.29-1,57.61,57.61,0,0,0-6.81.61c-.48.06-.9.58-1.35.88.34.6.58,1.46,1.06,1.73a7.45,7.45,0,0,0,2.57.62c1.6.23,3.15.5,4.32,2a1.45,1.45,0,0,0,.85.53c3.63.28,5.79,3.49,8.41,5.75a6.62,6.62,0,0,1,1.64,2.37,4.09,4.09,0,0,0,2.5,2.58,8,8,0,0,1,1.8,1.17c.56.38,1.1.79,1.66,1.14a22,22,0,0,0,2.95,1.72,11.07,11.07,0,0,0,3.33.9c1.43.11,2.74.23,3.78,1.63a2.52,2.52,0,0,0,1.64.73,23.09,23.09,0,0,0,3.62.23,5.15,5.15,0,0,1,4.13,1.55,4.11,4.11,0,0,0,1.79.83,1.86,1.86,0,0,1,1.26,2.19c-.1,1.25-.83,1.41-1.69,1.43-1.55,0-2.93-.06-4.18-1.6-.62-.78-2-.86-3.12-.94a6.15,6.15,0,0,1-4-1.48c-.88-.78-2.27-.73-3.42-1.13-1.31-.47-2.59-1-3.88-1.56-.44-.18-.82-.58-1.26-.66a6,6,0,0,1-3.92-2.19c-.39-.5-1.29-.43-2-.63s-1.52-.18-1.93-.67c-1.24-1.46-2.75-1.69-4.34-1.87a5.46,5.46,0,0,1-1.37-.55,7.7,7.7,0,0,1,.7-1.44,1.72,1.72,0,0,0-.5-2.85c-.87-.45-1.91-.41-2.82-.8a6.07,6.07,0,0,1-2.42-1.55c-1.31-1.64-2.64-3.05-4.68-3.2a1.69,1.69,0,0,1-1.15-.47,5.13,5.13,0,0,0-4.24-2c-.55,0-1.08-.58-1.6-.92a15.65,15.65,0,0,0-1.81-1.19c-1.78-.79-3,.18-3.16,2.4a9.29,9.29,0,0,1-.42,1.63,4.82,4.82,0,0,1-1.37-.86c-1.21-1.47-2.41-3-3.5-4.55-1.3-1.87-3.72-2.2-5.11-.46-.72.89-1,.78-1.71-.11-1.58-2.05-3.31-3.94-5-5.87-.86-1-1.82-1.86-2.62-2.91a3.88,3.88,0,0,1-.64-1.9c-.17-1.69-.9-2.68-2.34-3-2.5-.49-4.41-2-6.38-3.92-1.58-1.54-3.06-3.9-5.57-3.85a.88.88,0,0,1-.65-.28c-1.38-1.86-3.3-2-5.2-2.31a1.75,1.75,0,0,1-1.14-.51c-1.14-1.57-2.66-1.78-4.27-2a5.24,5.24,0,0,1-2.23-1.22,3.71,3.71,0,0,0-3.57-.83c-2.06.65-2.8,3.19-1.68,5.32a12.53,12.53,0,0,1,1.17,3.38c.28,1.46.87,2.38,2.15,2.58a19.39,19.39,0,0,0,2.63.28c2.47,0,4.94,0,7.4,0,1.5-.05,2.82.06,3.88,1.58.37.52,1.25.58,1.9.82,1.35.51,2.7,1,4.08,1.47a7.61,7.61,0,0,0,2.43.45c1.44,0,1.54,1,1.58,2.25s-.42,2-1.55,1.94a5.12,5.12,0,0,1-3.58-1.47c-2.39-2.2-4.81-4.28-8.25-3.74-2.22.35-4.52,0-6.79.1a3.47,3.47,0,0,0-1.7.63c-1,.63-1.21,1.5-.54,2.7,1,1.72,1.91,3.08,3.88,3.51,1.15.25,2.09,1.82,3.1,2.82,1.27,1.25,2.35,2.94,3.79,3.71,3.34,1.77,5.41,5.36,8.47,7.45a19.92,19.92,0,0,0,1.75,1,5.11,5.11,0,0,1,1.72,1,5.14,5.14,0,0,0,4.33,1.83,7.28,7.28,0,0,1,4.46,1.51,6.4,6.4,0,0,0,3.47.86,9.32,9.32,0,0,1,4.42,1.61,22.65,22.65,0,0,1,5.56,5.24c.1.11.21.3.32.3,2.48,0,4,2.47,6.14,3.35a29,29,0,0,1,6,3.83c1.55,1.15,3,2.56,4.42,3.88,1,.94,2.14,1.87,2.12,3.6a2.42,2.42,0,0,1-.61,1.62c-.26.21-.93-.14-1.35-.39s-.59-.7-.92-1c-2.82-2.5-5.57-5.14-8.53-7.39-1.21-.92-2.71-1.33-3.69-2.74-.18-.26-.57-.34-.87-.45s-.59-.06-.82-.21c-2-1.32-4.08-2.56-6-4-2.21-1.7-4-4.16-7.11-3.73-.7.09-1.48-.49-2.21-.8-1.17-.5-2.31-1.07-3.49-1.52a19.3,19.3,0,0,0-3.58-1.13c-.62-.11-1.81.18-1.88.52-.24,1.17-.52,3,0,3.57,1.31,1.48,2.51,3.25,4.52,3.87a8.21,8.21,0,0,1,3.21,2.47,98.21,98.21,0,0,1,6.76,7.87,18.15,18.15,0,0,1,2.24,5.15,2,2,0,0,1-1.78,2.86c-2.28.21-2.53,0-3.22-2.63a4.52,4.52,0,0,0-.92-1.75q-3-3.44-6.17-6.75a23.29,23.29,0,0,0-3.25-3.05c-2.4-1.72-3.64-4.46-5.16-7a26.75,26.75,0,0,1-2.7-5,1.66,1.66,0,0,0-.9-1c-1.59-.47-2.52-1.85-3.62-3.11a34.26,34.26,0,0,0-3.53-3.06,11.9,11.9,0,0,1-1.55-1.62c-.94-1.24-1.77-2.6-2.76-3.79-.66-.79-1.57-1.28-2.28-2a9.6,9.6,0,0,1-1.95-2.58c-.63-1.52-1.47-2.31-2.9-2.28-.7,0-1.39,0-2.09,0-1.11,0-2.27.16-2.65,1.6a5.24,5.24,0,0,0,.55,4.46,24.1,24.1,0,0,1,1.48,3.16c.3.66.62,1.3,1,1.92a6.78,6.78,0,0,1,.89,1.43c.26,1,.37,2.15-.71,2.62s-1.62-.12-2.2-1.12c-.91-1.55-2-3-3-4.46a12.11,12.11,0,0,1-1.2-2.14c-.64-1.59-1.2-3.23-1.75-4.86a5.88,5.88,0,0,1-.28-1.57c-.11-2.55-.21-5.1-.26-7.64a4.43,4.43,0,0,0-1.51-3.44c-1.82-1.68-3.44-3.65-5.2-5.41s-4-1.12-5.18,1.11c-1.35,2.63-3.13,5.05-4,7.86s-1.88,5.47-2.67,8.24a3.85,3.85,0,0,0,2.48,4.87,23.7,23.7,0,0,1,2.25,1.25,3.76,3.76,0,0,0,1.13.57c1.78.27,3.56.42,5.33.73a3.06,3.06,0,0,1,1.7.89c1.87,2.15,3.66,4.41,5.48,6.63.09.11.24.2.29.34a26.46,26.46,0,0,0,2.75,6.38,2.12,2.12,0,0,1-.53,1.74,1.94,1.94,0,0,1-1.92-.11,9.93,9.93,0,0,1-2.86-4.44,14,14,0,0,0-3-4.89,8.41,8.41,0,0,0-5.84-3.39c-.58,0-1.14-.66-1.72-1a7.41,7.41,0,0,0-1.87-1c-3.11-.7-4.1.37-3.91,4.06.06,1.25.09,2.5.07,3.75a5.62,5.62,0,0,0,1.25,4.14,3.38,3.38,0,0,1,.71,1.89c.16,2.37.23,4.76.26,7.14,0,1.12-.53,1.74-1.51,1.56s-1-1.08-.84-2c.14-.74.33-1.47.43-2.22a2.25,2.25,0,0,0-1.08-2.55,2.41,2.41,0,0,0-2.9.17c-1.74,1.47-3.55,2.84-5.32,4.27-.64.52-1.28,1.06-1.89,1.63-.94.86-2,.88-2.59-.06a2,2,0,0,1,.58-2.76c1.09-1,1.73-2.45,3.43-2.75,2.74-.49,6.4-6.42,6.16-9.63a14.8,14.8,0,0,0-1.07-3.41c-1-2.86-2.1-5.66-2.85-8.6a5.89,5.89,0,0,1,1.18-5.09c1.13-1.49,1-3.59.65-5.47a1.41,1.41,0,0,0-2.55-.7c-1.42,1.56-2.81,3.15-4.21,4.74-.16.18-.41.4-.42.62-.2,2.52-1.82,4.19-2.73,6.28a5.42,5.42,0,0,1-1.8,2.3,5.41,5.41,0,0,0-2.54,3.82,16.14,16.14,0,0,1-4.17,8,2.93,2.93,0,0,1-1.63.75c-.82.14-1.67,0-2.5.1-1.81.15-2.44.73-2.71,2.79-.19,1.42-.8,2.18-2,2.22-1.86.05-3.65.2-4.82,2.23,0,0-.07.09-.11.09-2.41-.2-3.91,2.21-6,2.85a2.41,2.41,0,0,0-1.46.82c-1.18,2.1-3,1.73-4.67,1.7-.45,0-1.15-.85-1.29-1.45a1.45,1.45,0,0,1,1.23-1.93c.84-.11,1.67-.16,2.5-.26a2.33,2.33,0,0,0,1-.21c1.91-1.23,3.81-2.49,5.71-3.74.44-.29.88-.87,1.3-.86,2.8.11,4-2.58,5.75-4.31A11.7,11.7,0,0,1,148,319c2.13-1.56,4.26-3.11,5.11-6.13a1.53,1.53,0,0,1,.25-.58c2.67-2.9,3.68-7,5.62-10.5a45.78,45.78,0,0,1,4.31-6.39,5.65,5.65,0,0,0,.49-4.62,1.63,1.63,0,0,0-2.53-.76,5.88,5.88,0,0,0-1.19,1.11c-1.9,1.8-3.74,3.69-5.72,5.35-.65.56-1.68.49-2.5.8-1.26.47-2.49,1.05-3.75,1.53-1,.38-2,.63-3,1-1.16.45-2.3,1-3.44,1.51-.25.12-.46.43-.71.5a12.87,12.87,0,0,0-5.65,2.86,25.75,25.75,0,0,1-2.93,2.06c-1.32.87-2.69,1.63-4,2.57-1.47,1.1-2.89,2.31-4.28,3.53a42.35,42.35,0,0,0-4.31,4.06c-1.09,1.28-1.83,3-2.83,4.37-2.68,3.72-5.49,7.19-9.36,9.41-1.42.81-2.47,2.73-3.41,4.37-1.19,2.05-2.64,3.07-4.77,2.92a4.51,4.51,0,0,0-4.17,1.78,1.77,1.77,0,0,1-2.86.13c-.59-.89-.13-2,.67-3.1a6.08,6.08,0,0,1,5-2.53c2.06-.17,3.25-2.31,4.79-3.63.37-.31.63-.95,1-1.05,3.73-1,5.59-4.68,8.08-7.48a10.14,10.14,0,0,0,2.14-4.24c.32-1.17,1.41-2.07,2.18-3.07a20.55,20.55,0,0,1,7.31-5.95c1.5-.73,2.18-2.13,2.89-3.57a1.68,1.68,0,0,0-.24-1.43c-.49-.38-1.34-.82-1.73-.56-3.39,2.25-7.09,1.29-10.67,1.54a7.54,7.54,0,0,0-5,1.78,3.92,3.92,0,0,1-2.49.73c-2.35.07-4.58.21-6.61,2-.75.66-2.15.56-3.22.43-2.54-.31-4.89-.1-7,1.9a4.88,4.88,0,0,1-2.07.84c-.44.13-1-.05-1.38.17-1.94,1.13-4.07,2-5.7,3.62-2.61,2.54-4.77,5.72-7.32,8.36a77.8,77.8,0,0,1-6.37,5.41,1,1,0,0,1-.51.25c-4.37.62-8.54,2.82-13,2.45-3.09-.25-5.43,1.61-7.47,3.74-2.54,2.65-5.11,4.59-8.67,4.09a11.21,11.21,0,0,0-2.21.23c-.45,0-1,.15-1.34-.11-1.49-1.21-.76-2.94-.59-4.48a1.68,1.68,0,0,1,1.86-1.73c1.26.06,2.51.18,3.77.14a5.74,5.74,0,0,0,4.5-1.82,1.57,1.57,0,0,1,.71-.5c1.87-.53,3.86-.74,5.21-2.66a.65.65,0,0,1,.53-.17,10.18,10.18,0,0,0,7.61-2.5,15.54,15.54,0,0,1,2.24-1.77c2-1.22,4.13-2.39,6.24-3.48,1.29-.66,2.65-1.11,4-1.68a13.67,13.67,0,0,1,2.18-1,3.29,3.29,0,0,0,2.73-2.63,2.7,2.7,0,0,1,2.41-2.32,1.8,1.8,0,0,0,1.16-.47,7.18,7.18,0,0,1,3.84-2.41A2.19,2.19,0,0,0,83,309.48a2.7,2.7,0,0,0-1.31-1.76,4.57,4.57,0,0,0-2.19-.32c-4.56,0-9.12,0-13.68,0a7.3,7.3,0,0,0-4.73,1.65,4.73,4.73,0,0,1-2.62.83,8.62,8.62,0,0,0-4.74,1.58,7.8,7.8,0,0,1-3.73,1,7.7,7.7,0,0,0-4.84,1.75,2.88,2.88,0,0,1-1.84.62q-7.45.18-14.93.22a5.88,5.88,0,0,1-4.54-1.71,3.66,3.66,0,0,0-2.22-.77,17.35,17.35,0,0,0-4.32,0A5.61,5.61,0,0,0,14.51,314c-1.57,1.51-3.38,1.36-5.14,1.23-.87-.06-1.36-1.11-.76-2.1a10.14,10.14,0,0,1,4.44-4.42,5.11,5.11,0,0,0,1.51-.76,6.22,6.22,0,0,1,8.57,0c.15.13.28.34.44.39,3.58,1.08,6.81,3.83,10.8,2.89a28.29,28.29,0,0,1,2.92-.28,2.9,2.9,0,0,0,1.58-.49A6.31,6.31,0,0,1,43.34,309c1.58-.08,3.17-.14,4.74-.32a3,3,0,0,0,1.8-.73,5.59,5.59,0,0,1,4.3-1.54,3.46,3.46,0,0,0,3-1.51,2.29,2.29,0,0,1,1.68-.84c9,.05,18,.25,26.93.23,4.33,0,8.65-.39,13-.64a1.92,1.92,0,0,0,1.19-.4c2.57-2.39,5.64-1.87,8.57-2,3.85-.19,7.75.07,11.56-.46a16.57,16.57,0,0,0,8.75-3.78c2.06-1.77,4.1-3.55,7-3.33,1.15.08,2.35-1,3.55-1.52a9.71,9.71,0,0,1,3-1c1.78-.11,3.4-.08,4.73-2,.83-1.2,2.29-1.78,3.46-2.67,1-.73,1.84-1.58,2.83-2.25a3.78,3.78,0,0,1,1.8-.65,6.53,6.53,0,0,0,4.45-1.89,41,41,0,0,1,6.84-5.47c1.48-.9,3.37-.93,5.1-1.21.86-.14,1.76.13,2.64.05a3.14,3.14,0,0,0,2.77-2.54,20.84,20.84,0,0,1,1.37-2.76,10.06,10.06,0,0,0,.9-2,12.17,12.17,0,0,0,.24-2.57c.06-3.83.18-4.09,3.23-3.06s5.07-.48,6.92-2.76c1.31-1.61,3.08-2.92,3.12-5.54a.67.67,0,0,1,.2-.42c2-1.66,1.68-4.15,1.73-6.51a156.42,156.42,0,0,1-1-21.68V214.35c0-9.82-.91-20-.82-29.78,0-1.07-.22-1.72-.22-2.94,0-2.42,0-4.55-1.2-6.26-2.07-2.93-5.37-3.14-8-4.8a7.83,7.83,0,0,1-1.82-1.37c-1.9-2.26-3.81-4.63-6.8-4.3s-4.78-1.73-6.78-3.46a5.89,5.89,0,0,0-3.68-1.66c-1.67-.06-3.35-.12-5-.26a2.36,2.36,0,0,1-1.53-.56,2.66,2.66,0,0,1-.73-1.77c0-.35.8-.69,1.27-.95a26.71,26.71,0,0,1,3.35-1.75,9.39,9.39,0,0,1,2.91-.61c1.37-.07,2.77.18,4.13,0a2,2,0,0,0,1.72-2.34,1.94,1.94,0,0,0-2-1.85,12.37,12.37,0,0,1-6.5-2c-1.24-.86-3.07-.51-4.62-.81-3.06-.59-6.1-1.28-9.16-1.87-1.28-.24-2.6-.23-3.86-.55a4.34,4.34,0,0,1-2.11-1.23c-1.58-1.73-2.86-3.93-4.62-5.35s-4.08-3.07-6.25-3.33c-4.57-.55-9.2-.29-13.81-.31-2.23,0-4.46.07-6.69.19a8.84,8.84,0,0,0-2.59.52,20.92,20.92,0,0,0-4.76,2.11,32.1,32.1,0,0,0-4,3.92c-1.59,1.59-2.91,3.7-5.4,3.45-1-.1-1.77-.34-1.91-1.63a1.72,1.72,0,0,1,1.63-2.12,2.67,2.67,0,0,0,2.41-3.34c-.15-1-.79-1.94-1.62-1.42-2,1.23-4.11.74-6.16,1s-4.09.32-6.13.43a6.47,6.47,0,0,1-1.81-.12c-.85-.21-1.86-.4-1.72-1.84s.79-2,2-2c2.7,0,5.4,0,8.1,0,.75,0,1.49,0,2.24,0a3.17,3.17,0,0,0,3.38-1.73,1.16,1.16,0,0,1,.63-.59c3.43-.82,6.4-3.82,10.22-2.87a3.84,3.84,0,0,0,2.48-.2,2.68,2.68,0,0,0,1.47-1.78,3.12,3.12,0,0,0-1.15-2.09c-3.11-2.7-7-2.52-10.54-3.66a3.36,3.36,0,0,0-1.64.17c-.83.19-1.33-.09-1.55-1.1s-.3-2.78-.94-3.22A15.28,15.28,0,0,0,88.14,114c-1.38-.31-2.62-.41-3.79-1.58a5.45,5.45,0,0,0-3-1,24.17,24.17,0,0,0-3.07-.08c-2.15-.08-3.06-2.06-1.93-4.16,1.21-2.26,3.9-2.72,5.48-.81a3.7,3.7,0,0,0,3.12,1.43c5.68,0,11.36.14,17-.08a6.34,6.34,0,0,1,5.68,3,4.87,4.87,0,0,1,.6,2.08c.26,1.9.78,2.53,2.42,2.74,3.13.41,4,1.54,4.07,5.24.07,4.43.94,5.38,4.75,4.82a5,5,0,0,0,2.58-1.33c1.68-1.62,2.56-1.52,3.87.46a3,3,0,0,0,2,1.16,16.6,16.6,0,0,0,3.06-.12,4.1,4.1,0,0,1,3.77,1.6c1,1.36,3.45,1.23,4.71-.16.77-.84,1.35-1,2.1,0a2.21,2.21,0,0,0,1,.77c3.5.91,4.82,3.74,5.06,7.59.08,1.32.45,2.46,1.75,2.77a2.88,2.88,0,0,0,3.5-1.61,5.34,5.34,0,0,1,3.27-3.48,6,6,0,0,0,1.46-1.2c.38-.31.72-.81,1.13-.89a5.14,5.14,0,0,0,3.42-2.2,2.07,2.07,0,0,1,2.31-.16c1.06,1.41,2.49,2.58,2.73,4.76.2,1.88,1.18,2.44,3.26,2.32,1.56-.1,2.25-.69,2.33-2.56.1-2.28,1.76-2.9,2.88-4.08.19-.21.84,0,1.15.17a3.41,3.41,0,0,1,1.28,3c0,1.17-.68,1.57-1.34,2.23a11.38,11.38,0,0,0-2.39,3.41,1.82,1.82,0,0,0,1.33,2.53,13.42,13.42,0,0,0,2.75.48,1.82,1.82,0,0,1,1.69,2,18.61,18.61,0,0,1,.08,2.11c-.16,3,1.4,4.53,3.41,5.74,1.06.64,2.11,1.32,3.18,1.94a3.18,3.18,0,0,0,1.56.67c2-.17,3.13,1.38,4.26,2.86a4.5,4.5,0,0,1,.54,1.92c.2,1.16.2,2.39.5,3.51.43,1.62,1.63,1.74,2.71.59a9.73,9.73,0,0,0,2.62-7.83,8.28,8.28,0,0,1,1.34-5.14c.92-1.51,1.32-3.36,2.68-4.61,1.65-1.52,3-3.53,5.27-3.9,1.37-.22,1.91-1.27,1.86-2.94-.07-2.11-.72-3.31-2.1-3.49a6.78,6.78,0,0,1-3.53-1.7,5.44,5.44,0,0,0-3-.87,4.42,4.42,0,0,1-3.39-1.54,4.32,4.32,0,0,0-2-1c-2.43-.78-3.08-3.13-1.33-5.23a1.73,1.73,0,0,1,1.7-.28,2.41,2.41,0,0,1,1.1,1.38,4.38,4.38,0,0,0,4.76,3.11,5.82,5.82,0,0,1,3.86,1.53,71.28,71.28,0,0,0,7.43,5c.54.33,1.47-.09,2.18-.31a22.05,22.05,0,0,1,2.78-1.07,21.87,21.87,0,0,1,3.62,0c1,0,1.6.49,1.64,1.73s-.59,1.67-1.48,1.69a3.68,3.68,0,0,0-3,1.68,2,2,0,0,1-1.47.73c-2.81-.09-4.62,2.14-6.53,3.91-2.51,2.32-3.88,5.66-5.19,9-1.07,2.77-2.52,5.36-3.52,8.17a10.28,10.28,0,0,0-.27,4.4c.07.57,1.08,1.14,1.75,1.42a1.56,1.56,0,0,0,1.43-.42c2.37-2.47,5.27-2,8.08-2.16a3.73,3.73,0,0,0,2.36-.73,5,5,0,0,1,3.73-1.47,3.94,3.94,0,0,0,3.47-1.69,2.61,2.61,0,0,1,1.86-.81c2.78-.16,4.68-2.2,6.55-4.17s3.69-4.22,5.45-6.43c1.43-1.78,3.29-3.2,3.62-6a2.45,2.45,0,0,1,1.29-1.49,5.16,5.16,0,0,0,3-4.86c.07-3.36,0-6.73-.23-10.08a2.36,2.36,0,0,0-2.86-2.47,1.31,1.31,0,0,0-.27.06c-3,1.3-4.43-.35-5.63-3.63a6.38,6.38,0,0,0-2.09-2.64,2,2,0,0,0-2.84.28c-.66.72-1.09.4-1.8-.06a25.65,25.65,0,0,0-6.11-3.23c-1.22-.36-2.81.35-4.07,1-1.6.82-3.46.44-4.12-1.39a2.18,2.18,0,0,1,.4-1.52c1-1.48.72-2.81-.83-3.06a9.17,9.17,0,0,0-3.17.53c-.43.09-.86.24-1.29.36-.06-.7-.4-1.77-.13-2.05,1-1,2-2.29,3.22-2.53,2.26-.47,4.6-.49,6.69,1.31a5.93,5.93,0,0,0,2.92.88c1.4.23,2.79.39,3.74,1.83a1,1,0,0,0,.45.38c4,1,7.69,3.82,12.09,2.91a4.8,4.8,0,0,0,3.73-3.16,13.4,13.4,0,0,1,2.64-3.91,1.89,1.89,0,0,1,2.1.06,2.18,2.18,0,0,1-.19,3c-1.79,1.78-1.74,4.08-1.45,6.42a4.65,4.65,0,0,0,.95,2.08c.87,1.18,1.9,2.21,2.77,3.4a2.71,2.71,0,0,1,.46,1.78,31.63,31.63,0,0,1-1.22,4.76,4.38,4.38,0,0,0,.22,4.15,3.16,3.16,0,0,0,2.45.95,2.17,2.17,0,0,0,1.63-1.37c.36-2.57,2.09-3.82,3.55-5.2,2.67-2.54,5.54-4.79,8.33-7.16.15-.12.31-.29.48-.3,1.75-.15,2.91-1.28,4.06-2.76a12.4,12.4,0,0,0,1.69-3.2,26.89,26.89,0,0,1,2.85-4.7c.39-.59.93-1,1.36-1.6.77-1,2.18-1.3,2.87-.48a2.38,2.38,0,0,1-.21,3.07,20.25,20.25,0,0,1-2.53,2.77,4.37,4.37,0,0,0-1.18,4.76c.47,1.45,1.73,2,2.65.86a4.65,4.65,0,0,1,3.79-1.66,3.84,3.84,0,0,0,3.36-1.61c.34-.47,1-.6,1.59-.85.88-.41,1.75-.83,2.66-1.16a1.5,1.5,0,0,1,1.22,0,10.43,10.43,0,0,1,2,1.81,6.08,6.08,0,0,0,7.57,1,11,11,0,0,1,4.12-1.61c1.82-.33,3.57-.45,4.83-2.38.68-1,2-.73,2.95.33s2,2.09,3.05,3c1.29,1.16,3.59.34,4.55-1.55,1.14-2.22,3.7-2.17,4.9.11.46.86,0,1.24-.64,1.3A28.76,28.76,0,0,1,320,114a2.41,2.41,0,0,0-2.17,1.43,4.37,4.37,0,0,1-2.07,1.64c-2,.81-2.17,1.33-1.23,3.5a16.24,16.24,0,0,1,1.05,4.14,2.06,2.06,0,0,1-.79,1.66,2.14,2.14,0,0,1-1.76-.42,18.52,18.52,0,0,1-2-1.94,3.29,3.29,0,0,1,.22-4.54,5.35,5.35,0,0,0,1.37-2.26,2.66,2.66,0,0,0-1.18-3,4.06,4.06,0,0,0-4.08.65,22.57,22.57,0,0,1-2.6,2c-.31.23-.76.29-1,.6-1.19,1.67-2.8,1.7-4.46,1.69-3.86,0-7.72-.07-11.58.08-.93,0-1.83.78-2.76,1.18a8.81,8.81,0,0,1-2.67,1.06c-3.25.19-6.52.11-9.76.33-.92.06-1.8.85-2.71,1.27a6.4,6.4,0,0,1-2.4,1c-3-.1-4.63,2.25-6.37,4.48-.24.32-.41.73-.66,1-2.23,2.72-4.54,5.36-6.7,8.15-1.39,1.81-1.91,4.28-3.35,6.17a3.23,3.23,0,0,0,.31,4.13,3.11,3.11,0,0,0,4-.34,4.81,4.81,0,0,1,4.1-1.48c2.7,0,5.39-.11,8.09-.22a3.54,3.54,0,0,0,1.89-.43c2.57-1.86,5.46-1.62,8.26-1.85,2-.16,3.73-.16,5.34-2.08.73-.88,2.62-.81,3.92-.61s1.22,2.3.3,3.51c-1.45,1.91-3.1,3.15-5.38,3a2,2,0,0,0-1.54.62,4.36,4.36,0,0,1-3.64,1.67,2.26,2.26,0,0,0-1.54.63,2.47,2.47,0,0,1-3.24.43,2.78,2.78,0,0,0-.93-.35c-3.12-.28-6.24-.64-9.36-.74-1,0-2,.66-3,1a19.12,19.12,0,0,1-4,1.28c-2.45.26-4.93.09-7.39.32a10.4,10.4,0,0,0-2.92,1.21c-.29.14-.53.54-.82.59a10.53,10.53,0,0,0-5.34,2.9c-1.35,1.21-2.83,2.22-4.15,3.46a2.06,2.06,0,0,0,.58,3.21c1.7,1,3.45,1.84,5.17,2.78.5.27,1,.68,1.46.92,1.13.53,2.29,1,3.43,1.5.62.27,1.41.41,1.8.94a4,4,0,0,0,5.94.75c1.51-1.32,3-2.62,4.56-3.88a3.75,3.75,0,0,1,4.84.82,2.88,2.88,0,0,0,2.66,1.44c2.74,0,5.49-.13,8.23,0a6.33,6.33,0,0,1,2.93,1.11,1.6,1.6,0,0,0,2.17-.11c1.62-1.34,2.66-1.33,4.3,0,.7.57,1.36.73,2,0,.94-1,1.77-.7,2.53.27.55.72,1.08,1.49,1.57,2.27.87,1.38,1.71,1.56,2.76.38.6-.67,1-.76,1.64-.07,1,1.11,2.06,2.16,3.13,3.2a1.37,1.37,0,0,1,.14,2.08c-.61.72-1.3,1.77-2.21.71s-2.1-1.1-3.34-1.06c-1.95.06-3.9-.11-5.85-.19-1.12,0-2.23-.11-3.35-.18-2.42-.18-4.11,1.53-5.72,3.23-.45.47-.34,1.62-.6,2.4s-.52,1.6-1,1.79a1.62,1.62,0,0,1-1.58-.79,4.89,4.89,0,0,1,.2-2.33c0-.26.39-.43.61-.64,1.24-1.17,1.11-2.57-.42-3.11a17.88,17.88,0,0,0-4.64-1c-.58-.05-1.21.8-1.82,1.24-.84.62-1.69,1.23-2.52,1.86a21.42,21.42,0,0,0-1.67,1.35c-.43.4-.75,1-1.22,1.3-.75.46-1.63,1.48-2.39,0a3.28,3.28,0,0,1,1-3.4c.54-.31,1.21-.34,1.69-.72a2.63,2.63,0,0,0,1-1.54c0-.46-.54-1-.87-1.5a.59.59,0,0,0-.37-.2c-2.86-.38-5.69-1.89-8.6-.3a7.18,7.18,0,0,0-1.67,1.12c-2,2-3.79,1.82-6,.16-1.61-1.22-3.25-2.46-4.87-3.6-2.42-1.69-5.13-3.3-8.26-2.89-.67.09-1.49-.54-2.12-1.05-1.79-1.43-3.08-1.37-5-.18a5.84,5.84,0,0,1-3.21.56,9.43,9.43,0,0,0-7.1,2.55c-1.82,1.64-3.72,3.35-6.27,3.58-2.32.21-3.85,2.95-3.48,5.63a78.8,78.8,0,0,0-.11,15.88M265,306.13c1.47-.17,2.5-.22,3.5-.44a4.36,4.36,0,0,0,1.26-.78c-.32-.48-.56-1.24-1-1.39a35.88,35.88,0,0,0-3.54-.88,5.56,5.56,0,0,1-2-.67c-1.43-1.06-2.75-2.32-4.16-3.43a1.37,1.37,0,0,0-2.23.69c-.84,2.3.31,4.31,2.45,4.64a15.6,15.6,0,0,1,3.32,1.29l2.32,1M144.51,136c0-2.06-.7-3.42-1.68-3.4-1.3,0-1.39,1.14-1.4,2.27,0,1.77.5,2.79,1.5,2.78a1.57,1.57,0,0,0,1.58-1.65"/><path class="cls-1" d="M143,159.78c-2,0-4,.07-6-.05a3.11,3.11,0,0,1-1.66-1,3.19,3.19,0,0,0-4.68-.14,5.41,5.41,0,0,1-2.92,1.15c-2,.12-3.88.32-5.66,1.8-.91.76-2.39.64-3.62.83-1.89.29-3.93-.54-5.67,1-.14.13-.69,0-.7-.13a3.32,3.32,0,0,1,0-1.66,11,11,0,0,1,1.72-2.11,35,35,0,0,1,2.59-2.44,1.11,1.11,0,0,1,1-.25c1.83,1,3.35-.39,5-.89a2.25,2.25,0,0,0,1.17-1.72,2.55,2.55,0,0,0-1.22-1.67c-1.63-1-3.35-1.77-5-2.72a1.89,1.89,0,0,1-.86-1.15c-.27-1.62.84-2.48,1.74-3.24a1.7,1.7,0,0,1,1.8.19c1.32,1.25,2.49,2.71,3.72,4.08.37.41.69,1,1.12,1.17,2.08.69,4.18,1.28,6.29,1.84,1.45.38,2.93.61,4.37,1a2,2,0,0,1,1.13.87A3.33,3.33,0,0,0,140,156.3c2.51,0,5,0,7.53,0,.37,0,.86-.13,1.09.09a16,16,0,0,1,1.46,1.86c-.47.49-.91,1.34-1.43,1.42-1.89.28-3.8.32-5.7.44v-.31"/><path class="cls-1" d="M336.93,311.61a7.16,7.16,0,0,0,1.39,0c3-.57,5.09,1.63,7.27,3.38,1.13.91,2,2.27,3.09,3.26a3.54,3.54,0,0,0,2.12.95c2.74.07,5.48-.06,8.23-.09a27.63,27.63,0,0,1,4.73.09,22.56,22.56,0,0,1,3.87,1.47,14.53,14.53,0,0,0,3,1c1.66.23,3.37,0,5,.36a8.46,8.46,0,0,1,2.89,1.68,1.49,1.49,0,0,1,.4,1.23,1.43,1.43,0,0,1-1.08.79c-2.92-.17-5.83-.42-8.75-.72a2.42,2.42,0,0,1-1.5-.76,4.71,4.71,0,0,0-4.09-1.61c-2.56,0-5.12,0-7.67.08-2.21.07-2.68.58-3,3.05-.14,1-.33,1.84-1.4,1.82s-1.34-.75-1.65-1.79a11.39,11.39,0,0,0-1.6-3.05c-.91-1.29-1.94-2.47-2.93-3.68-.35-.42-.71-1.08-1.12-1.15-3-.5-5.55-3.15-8.9-2.52-1.93.36-4-.16-6-.33-.32,0-.62-.36-.92-.55.25-.34.45-.83.76-1,2.53-1.13,5-2.83,7.87-1.95"/><path class="cls-1" d="M103.76,64.84a8.22,8.22,0,0,0,1.4-.36,4.84,4.84,0,0,0,1.69-1c1.29-1.4,3-2,4.52-1.08A12.59,12.59,0,0,1,114,64.74c.14.15-.13,1.1-.42,1.45s-.8.17-1.2.32a1.14,1.14,0,0,0-.8,1.68,16.63,16.63,0,0,0,1.19,2.9,4.51,4.51,0,0,0,1.68,1.16,12.25,12.25,0,0,1,2.4,1.35c.46.43,1.32,1.19.38,2.13a2,2,0,0,1-2.94.15,3.45,3.45,0,0,1-.39-.67c-1.27-2.7-3.23-3.09-5.26-1-.25.25-.45.66-.73.74a3.13,3.13,0,0,1-1.93.2,2,2,0,0,1-.64-1.71A2.18,2.18,0,0,1,106.68,72a4.3,4.3,0,0,0,3-2.62c.94-1.93.35-3.41-1.57-3.68-1-.14-2,0-3.07-.08a11.38,11.38,0,0,1-1.28-.21c0-.2,0-.4,0-.6"/><path class="cls-1" d="M133.77,109c-.79.22-1.57.47-2.37.66-.2,0-.45-.11-.67-.18-3.8-1.21-4.75-.71-6.9,3.21A2.75,2.75,0,0,1,122,113.9c-.56.08-1.62-.4-1.71-.83a2.83,2.83,0,0,1,.62-2.26c1.9-1.33,2-3.35,1.88-5.51-.1-1.53.21-2.65,1.56-3.19a2.64,2.64,0,0,1,3.24,1.17c1.59,2.21,3.06,4.47,5.79,4.74.12,0,.22.18.33.27Z"/><path class="cls-1" d="M309,164.54a3,3,0,0,1-1.41,3c-1.9,1.5-3.46,3.34-2.87,6.45a3.73,3.73,0,0,1-.1,2.21,2.36,2.36,0,0,1-1.7,1.14c-.38,0-1.11-.85-1.15-1.38a7.55,7.55,0,0,1,1.13-5.1c1.23-1.88,1.82-4.34,2.89-6.48a3.8,3.8,0,0,0-1.27-4.67c-.51-.39-.65-1.65-.69-2.53,0-.26.93-.81,1.43-.81,1,0,1.27.94,1.49,2a14.78,14.78,0,0,0,1.09,2.86c.47,1.05,1,2.06,1.51,3.08l-.35.21"/><path class="cls-1" d="M52.88,120.82c1.4-.09,2.44-.23,3.47-.19,1.36,0,2.46-.2,3.06-1.89.16-.45.83-.71,1.3-.93.28-.13.64,0,1,0,2.63.14,2.63.14,2.5,3.18v.32c.07,2.45,0,2.37-1.94,2.9a5.16,5.16,0,0,0-2,1.29c-1.18,1.1-1.88,1.08-3-.13-.67-.72-1.51-1.23-2.2-1.94s-1.2-1.47-2.13-2.62"/><path class="cls-1" d="M152.83,73.22c-2.24,0-2.65-.55-2.3-2.47.19-1,.16-2.17-.86-2.35-.47-.08-1.2.73-1.55,1.34s-.72,1.68-1.63,1.36a3.34,3.34,0,0,1-1.86-1.34,2.3,2.3,0,0,1,.71-2.7c.94-.92,1.72-2.08,2.59-3.11,1.36-1.63,2.36,0,3.44.6s.56,1.43.43,2.37a4.59,4.59,0,0,0,.54,2.1c.12.28.53.4.82.59a2,2,0,0,1,.78,2.48c-.23.6-.93,1-1.11,1.13"/><path class="cls-1" d="M91.82,75.77a10,10,0,0,1-2.33-.89,2.1,2.1,0,0,1-.61-1.61c.05-.41.72-1.09,1.05-1,2.57.35,4.23-1.53,6.11-3,1.37-1.09,3.77.39,3.86,2.33,0,.42-.65,1.28-1,1.28A5.21,5.21,0,0,0,94.46,75c-.48.61-1.62.53-2.64.81"/><path class="cls-1" d="M48.48,83.32c.17-1.75,0-3.24.5-4.28a7,7,0,0,1,2.88-3.32c.73-.32,2,1,3,1.76a2.23,2.23,0,0,1-.43,1.46,5.43,5.43,0,0,0-3,5.47,1.57,1.57,0,0,1-.85,1.23,1.62,1.62,0,0,1-1.45-.55,6,6,0,0,1-.63-1.77"/><path class="cls-1" d="M113.34,106.41a1.69,1.69,0,0,1-.55,0,7.18,7.18,0,0,1-2.44-.87c-.33-.25,1.8-2.77,2.62-2.92,2.65-.47,2.6-.48,3.21-3.31a2.21,2.21,0,0,1,1.21-1.47,1.53,1.53,0,0,1,1.5.68,2.77,2.77,0,0,1-.13,2.19,5.49,5.49,0,0,0-2,4.53c0,.4-.74,1-1.22,1.18a8.22,8.22,0,0,1-2.22,0Z"/><path class="cls-1" d="M38.2,127.4c.65.57,1.61,1,2,1.89.58,1.15-.25,1.94-1,2.82A5.27,5.27,0,0,1,35,134.39c-.58,0-1.54-.26-1.65-.65a3.55,3.55,0,0,1,.26-2.39,16.43,16.43,0,0,1,2.61-3.07,6.78,6.78,0,0,1,2-.88"/><path class="cls-1" d="M135.85,171.51c-.06-.5-.15-1-.18-1.49-.11-1.54-.82-2.32-2.14-2.43a11.41,11.41,0,0,1-2.33-.35c-.87-.25-1.65-.85-1.23-2.07s1.45-1.45,2.21-.81c1.36,1.16,2.36,1,3.7-.11s2.93-.35,3,1.39a2.2,2.2,0,0,1-.56,1.64,4,4,0,0,0-1.92,3.66,1.63,1.63,0,0,1-.21.55l-.38,0"/><path class="cls-1" d="M41.46,111.12c-1,.16-1.49-.41-1.62-1.49a1.43,1.43,0,0,1,1.31-1.83c2.42-.39,2.36-.43,3-3.33.13-.62.86-1.52,1.29-1.5a3.57,3.57,0,0,1,2.23,1.12c.21.22-.11,1.45-.44,2a14.68,14.68,0,0,1-2.32,3.37,17.67,17.67,0,0,1-3.23,2l-.18-.39"/><path class="cls-1" d="M277.88,165.21c-.79-.53-2-.83-2.29-1.62-.58-1.44.42-2.35,1.54-2.91a13.48,13.48,0,0,1,3.49-1.6c.63-.1,1.6.76,2,1.5.2.37-.48,1.51-.92,2.16-.9,1.31-1.88,2.62-3.65,1.94-.05.17-.1.35-.16.53"/><path class="cls-1" d="M144,118.55a5.42,5.42,0,0,1-4.59,0c-1.12-.48-2-3.88-1.28-5a1.75,1.75,0,0,1,1-.67,6,6,0,0,1,1.53,0c2.36,0,2.31.05,2.49,2.75a16.4,16.4,0,0,0,.82,2.92"/><path class="cls-1" d="M250.49,39.69c-.45.84-.73,2-1.38,2.46-1,.76-3.17.07-3.83-.94a7.08,7.08,0,0,1-.82-1.68c-.65-1.91-.09-2.93,1.66-3.06a13.29,13.29,0,0,1,1.67,0c2,.11,2.42.64,2.7,3.21"/><path class="cls-1" d="M49,113.07a5.16,5.16,0,0,1,1.48-.39c2.17.08,4.24-.09,6-1.86.32-.32,1.21.08,1.82.25.22.07.39.45.54.72.34.6.64,1.23,1,1.84a13.48,13.48,0,0,0-1.86.61c-.64.32-1.21.87-1.85,1.18-.42.2-1.2.4-1.35.18-1-1.47-2.32-1.38-3.67-1.45a14.63,14.63,0,0,1-2.11-.43v-.65"/><path class="cls-1" d="M161.8,99.51c1.71.33,3.1.51,4.44.87,1,.27,1.32,1.91.6,3a11.91,11.91,0,0,1-1.8,2,.88.88,0,0,1-1,0c-1.21-1.33-2.38-2.71-3.52-4.11a1.13,1.13,0,0,1-.12-.85,12,12,0,0,1,1.36-.89"/><path class="cls-1" d="M126.56,78.47a.66.66,0,0,1-.28,0l-2-.91a13.5,13.5,0,0,1,1.59-2.83,9.17,9.17,0,0,1,2.48-1.41c.87-.46,3.11.69,3.21,1.73,0,.32-.36.77-.64,1A11.24,11.24,0,0,1,129,77.67a19.91,19.91,0,0,1-2.35,1.07l-.09-.27"/><path class="cls-1" d="M345.32,115.64c-.18-3.49.12-3.78,2.94-2.65a3.93,3.93,0,0,1,1.59,1.19,2,2,0,0,1,.28,1.59,14.75,14.75,0,0,1-3.06,3c-.92.6-1.66-.15-1.75-1.47,0-.54,0-1.08,0-1.62"/><path class="cls-1" d="M70.11,127.84s.57.34.54.47c-.1.41-.34.94-.63,1.06a6,6,0,0,1-1.65.21,3.88,3.88,0,0,0-3.67,3.12,2.8,2.8,0,0,1-1.52,1.54c-.34.15-1.31-.45-1.31-.73a5.35,5.35,0,0,1,.55-2.32,10.19,10.19,0,0,1,1.51-2.1,2.17,2.17,0,0,1,1.16-.77c1.56-.22,3.14-.31,5-.48"/><path class="cls-1" d="M353.37,91c-.74,0-1.48,0-2.23,0-.94,0-1.45-.65-1.47-1.74s.5-1.71,1.45-1.72c1.49,0,3,0,4.46,0,.93,0,1.48.56,1.48,1.7s-.62,1.72-1.6,1.72h-2.09Z"/><path class="cls-1" d="M340,106.07c-.25-.25-.9-.62-.93-1a3.17,3.17,0,0,1,.52-2.1,14.75,14.75,0,0,1,2.62-2c1-.7,3.31.52,3.51,1.88a1.28,1.28,0,0,1-.46,1c-1.45.76-2.94,1.44-4.41,2.13a6.3,6.3,0,0,1-.85.18"/><path class="cls-1" d="M330.43,115.25a.65.65,0,0,1,.14,0l2,.87a7.89,7.89,0,0,1-1.73,1,2.37,2.37,0,0,0-1.8,2.33c-.15,1.54-.91,2.12-2.2,2s-2.07-1.15-1.14-2.26c1.33-1.59,2.17-4.21,4.7-3.91"/><path class="cls-1" d="M151,101.29a7.09,7.09,0,0,1-2.32-.35,2.47,2.47,0,0,1-1.21-1.62,1.94,1.94,0,0,1,1.18-1.41,15.36,15.36,0,0,1,4.28-.16c.42,0,1,1,1.11,1.67a1.37,1.37,0,0,1-1.23,1.76c-.6,0-1.2,0-1.8,0a.34.34,0,0,0,0,.1"/><path class="cls-1" d="M314.92,106.12c-1.87.26-3.74.57-5.62.74-.44,0-.92-.39-1.38-.6.37-.32.73-.87,1.12-.92a38.57,38.57,0,0,1,4-.14c1.95,0,3.91.1,5.5-1.66a1.1,1.1,0,0,1,1.23,0,2.5,2.5,0,0,1,.75,1.58,1.5,1.5,0,0,1-1,1c-1.52.13-3,.06-4.57.06l0-.13"/><path class="cls-1" d="M189,36.36c1.63,0,2.32.64,2.33,2.2s-1,3.06-2.2,3c-1,0-2.93-2-3-3,0-1.49.88-2.22,2.82-2.23"/><path class="cls-1" d="M41.67,123.66A9.32,9.32,0,0,1,34,124c-.45-.16-.67-1.18-1-1.81.54-.37,1.13-1.13,1.6-1,1.5.31,3.13.08,4.44,1.5.56.61,1.58.65,2.61,1"/><path class="cls-1" d="M108.31,180.7a14.22,14.22,0,0,1-.31,3,1.86,1.86,0,0,1-1.4,1.11c-.41,0-1.14-.68-1.21-1.16-.32-2.1-.42-4.24,1.17-5.84.31-.31.86-.68,1.14-.55s.48.82.55,1.3a16.34,16.34,0,0,1,0,2.1h0"/><path class="cls-1" d="M146.61,105.7c-1.13,2.17-1.46,2.14-3.08,1.43-1.21-.54-2.62-.46-3.91-.82a2.59,2.59,0,0,1-1.57-1.17,2.09,2.09,0,0,1,.41-1.79c.59-.28,1.69-.36,2,.06,1.34,1.76,3,1.85,4.81,2a9.84,9.84,0,0,1,1.34.31"/><path class="cls-1" d="M143.94,90.93a7.07,7.07,0,0,1-2.07-.19,2.06,2.06,0,0,1-1.12-1.31c-.07-.42.45-1.38.78-1.43a29.84,29.84,0,0,1,5.08-.33c.27,0,.8,1,.72,1.45a2.39,2.39,0,0,1-1.06,1.58,7.45,7.45,0,0,1-2.33.23"/><path class="cls-1" d="M56.27,106.35a6.21,6.21,0,0,1-1.93,0,6.54,6.54,0,0,1-1.57-1.17c.39-.68.65-1.66,1.19-2,1.84-1,4.45,0,5.35,2.12.1.23-.31,1.09-.56,1.13a13.66,13.66,0,0,1-2.48.06Z"/><path class="cls-1" d="M296.7,160.83a15.26,15.26,0,0,1,1.44,1.15c.52.54.95,1.18,1.45,1.72a2,2,0,0,1,.38,2.6c-.58.93-1.29.52-2,0s-1.37-.89-2.06-1.33a2.12,2.12,0,0,1-.68-2.68c.22-.6.91-1,1.44-1.51"/><path class="cls-1" d="M128.62,115.56a9.1,9.1,0,0,1,2.09,0c.46.11,1.16.59,1.19,1a2.34,2.34,0,0,1-.66,1.74,2.6,2.6,0,0,1-1.85.42,11.75,11.75,0,0,1-3.12-.8c-.41-.17-.64-.9-1-1.38.41-.33.78-.84,1.22-1a8.57,8.57,0,0,1,2.09,0Z"/><path class="cls-1" d="M177.49,101.12c-.51,0-1.15.23-1.5-.05a3.35,3.35,0,0,1-1.2-1.81,1.31,1.31,0,0,1,1.35-1.61,23.11,23.11,0,0,1,2.63,0c1,0,1.52.69,1.51,1.87a1.42,1.42,0,0,1-1.55,1.6c-.41,0-.83,0-1.24,0Z"/><path class="cls-1" d="M107.85,93.51a10.49,10.49,0,0,1-.25,6.53,1.65,1.65,0,0,1-1.51.69c-.34-.06-.78-.87-.84-1.4-.37-3.25.07-4.23,2.6-5.82"/><path class="cls-1" d="M68.48,108c1,0,2.37-.61,2.63,1.36.17,1.3-.35,2-1.51,2.17-2.4.31-3.79-.21-3.88-1.57-.07-1.13.3-1.91,1.37-2,.47,0,.93,0,1.39,0"/><path class="cls-1" d="M230,40.06c-2.1,0-2.69-.4-2.68-1.82s.63-1.74,2.62-1.76c.46,0,.93,0,1.39,0,1,.09,1.43.71,1.4,1.82s-.52,1.7-1.48,1.74H230"/><path class="cls-1" d="M289,88.39c-1,0-2.4.49-2.55-1.48,0-.55.29-1.6.52-1.63a17.32,17.32,0,0,1,4.07,0c.26,0,.69,1.11.59,1.58a2.71,2.71,0,0,1-1.13,1.52c-.39.25-1,0-1.5,0"/><path class="cls-1" d="M275.6,98.31c-1.58.92-3.12,1.94-4.75,2.71-.81.39-1.68.09-1.9-1.19a1.64,1.64,0,0,1,1.49-2.16,31.11,31.11,0,0,1,3.6-.25,6.16,6.16,0,0,1,1.57.44c0,.15,0,.3,0,.45"/><path class="cls-1" d="M181.18,113.85a11,11,0,0,1-2.22,0c-.27,0-.68-1-.65-1,.79-.83,1.54-2,2.49-2.28,1.27-.43,2.45.45,3.18,1.77.48.86.13,1.47-.72,1.57a18,18,0,0,1-2.08,0Z"/><path class="cls-1" d="M284.26,69.35c.9.26,2.15-.12,2.42,1.51.19,1.11-.72,1.93-2.32,2.21a3.44,3.44,0,0,1-1.11,0,2,2,0,0,1-1.73-2.3c0-.49,1-1,1.6-1.3.3-.19.73-.11,1.14-.16"/><path class="cls-1" d="M280,91c-.11,0-.68.13-1-.13a3,3,0,0,1-1.11-1.7,2,2,0,0,1,1.1-1.49,6.52,6.52,0,0,1,2.34-.16A1.51,1.51,0,0,1,283,89.29,1.53,1.53,0,0,1,281.32,91c-.32,0-.65,0-1.33,0"/><path class="cls-1" d="M336.42,111.05a3.76,3.76,0,0,1-3.75-.65c-.72-.57-1.52-1-2.24-1.58a4.77,4.77,0,0,1-.78-1.06c.45-.26.93-.79,1.35-.73a7.72,7.72,0,0,1,3,.91,17.76,17.76,0,0,1,2.68,2.48Z"/><path class="cls-1" d="M317.22,176.5a5.94,5.94,0,0,1-2.35-6.29c.09-.35.46-.84.71-.84a2,2,0,0,1,1.35.53c.88,1,1,5.26.29,6.6"/><path class="cls-1" d="M189.16,55.57a5.55,5.55,0,0,1-1.82-.37,2.07,2.07,0,0,1-1-1.39,2.16,2.16,0,0,1,.9-1.57,5.92,5.92,0,0,1,2.3-.43c1.09-.08,1.76.48,1.75,1.87s-.56,2-2.09,1.89"/><path class="cls-1" d="M357.6,102.82a1.74,1.74,0,0,1,2,1.91c.05,1.41-.9,1.38-1.74,1.49a20.2,20.2,0,0,0-2.33.38c-1.14.28-1.32-.42-1.17-1.45.21-1.44,1.49-2.33,3.27-2.33"/><path class="cls-1" d="M289.06,98.65c-.37,0-.79.13-1.1,0-.51-.29-1.35-.81-1.33-1.15a2.46,2.46,0,0,1,1-1.83,5,5,0,0,1,3-.18c.55.17.88,1.3,1.31,2a8.35,8.35,0,0,1-1.47,1.11,3.48,3.48,0,0,1-1.37,0Z"/><path class="cls-1" d="M171.4,34.07c.61,0,.87-.09,1.06,0,.62.33,1.21.72,1.81,1.09-.43.82-.69,1.94-1.32,2.41-1.27,1-3.37-.25-3.61-2a1.81,1.81,0,0,1,.8-1.34,2.59,2.59,0,0,1,1.26-.19"/><path class="cls-1" d="M145.21,79.93c1.75,0,2.36.45,2.42,1.82.05,1-.37,1.59-1.19,1.59a12.12,12.12,0,0,1-3-.3c-.42-.11-1.06-.87-1-1.19a2.75,2.75,0,0,1,1-1.66c.47-.32,1.16-.19,1.76-.26"/><path class="cls-1" d="M173.4,108.65a3.7,3.7,0,0,1-1.62-.5,2.53,2.53,0,0,1-.84-1.78c0-.39.77-.92,1.26-1.09a4.87,4.87,0,0,1,1.79,0c1,.05,1.93.2,1.86,1.73s-1,1.72-2.45,1.68"/><path class="cls-1" d="M134.12,64.5a.57.57,0,0,1,.13,0l2.28.72a14.68,14.68,0,0,1-1.66,2.16,3.25,3.25,0,0,1-1.69.62c-.91.14-1.69-.07-1.78-1.41s.45-2,1.61-2.07h1.11Z"/><path class="cls-1" d="M232.71,89.94a2.42,2.42,0,0,1,1,0,19.39,19.39,0,0,1,1.78,1.1,8.21,8.21,0,0,1-1.65,2.15c-.86.54-3.09-.69-3.47-1.77a1.5,1.5,0,0,1,.46-1.28,6.36,6.36,0,0,1,1.91-.3v.08"/><path class="cls-1" d="M139.46,82.53c-.22,1.58-1.19,3-2.15,3-1.21,0-1.55-1-1.64-2.14-.11-1.49.82-3.07,1.74-2.73s1.38,1.25,2.05,1.92"/><path class="cls-1" d="M75,115.52a1.44,1.44,0,0,1,.55,0c.62.3,1.23.64,1.85,1a8.73,8.73,0,0,1-1.37,2,3.83,3.83,0,0,1-1.86.47c-1,.13-1.61-.37-1.64-1.61s.49-1.78,1.5-1.81c.33,0,.65,0,1,0Z"/><path class="cls-1" d="M246.71,78.28a3.39,3.39,0,0,1-3-2.39A1.12,1.12,0,0,1,244,75c1.27-.85,3.64,0,4.42,1.39.66,1.18.36,1.66-.74,1.76l-1,.13"/><path class="cls-1" d="M292,126.85a7.06,7.06,0,0,1-2.39-.81,2.94,2.94,0,0,1-.75-2c0-.32.9-1,1.34-.9a5.32,5.32,0,0,1,2.53,1,2.45,2.45,0,0,1,.64,1.9c0,.36-.93.57-1.37.82"/><path class="cls-1" d="M36.85,106.34c-1.06-.08-1.8-.1-2.54-.2a1.23,1.23,0,0,1-.77-2.14,3.1,3.1,0,0,1,2.44-.89,3,3,0,0,1,1.93,1.76c.46,1.28-.52,1.46-1.06,1.47"/><path class="cls-1" d="M270.32,47.13c-.14.72-.11,1.27-.33,1.53a5.54,5.54,0,0,1-1.82,1.62c-.33.13-1.15-.5-1.35-1a2.3,2.3,0,0,1,.69-2.71,4.58,4.58,0,0,1,.57-.44c.48-.26,1.19-.83,1.4-.64a4.74,4.74,0,0,1,.84,1.64"/><path class="cls-1" d="M212.1,41.93a6.34,6.34,0,0,1,.1-1.07c.21-.93.74-1.4,1.39-.59A8.35,8.35,0,0,1,215.14,43c.3,1.06-.09,2.06-1.27,2.17s-1.73-.57-1.77-1.9c0-.32,0-.65,0-1.35"/><path class="cls-1" d="M48.25,125.82c.73-2.29-.3-3.41-1.65-4.52-.37-.3-.19-1.49-.26-2.28.61,0,1.37-.26,1.82.06,1.66,1.19,1.75,1.75,1.12,3.94a13.14,13.14,0,0,0-.24,1.42c-.06.43-.13.86-.19,1.29l-.6.09"/><path class="cls-1" d="M130.91,99.92c.34-1.5.85-2.22,1.93-2.19s1.62.69,1.58,2c0,1.53-1.13,3.37-1.84,2.91s-1.13-1.76-1.67-2.69"/><path class="cls-1" d="M128.86,174.05c.17-.48.37-1.06.56-1.63a5.44,5.44,0,0,1,1.35.83,4.9,4.9,0,0,1,1.35,2.09,2.53,2.53,0,0,1-.85,2c-.72.46-1.58.12-1.92-.93a20.86,20.86,0,0,1-.49-2.35"/><path class="cls-1" d="M72.24,123a6.12,6.12,0,0,1,2,.58,2.19,2.19,0,0,1,.81,1.64,1.94,1.94,0,0,1-1.18,1.26c-1.35.45-2.31-.42-3-1.68-.16-.29-.18-1,0-1.15a5.65,5.65,0,0,1,1.37-.65"/><path class="cls-1" d="M326.79,129.14c-.24-.07-.75-.06-1-.35a14,14,0,0,1-1.3-1.94,17.47,17.47,0,0,1,1.67-1.07,2.05,2.05,0,0,1,1-.07c.94,0,1.69.36,1.64,1.65s-.78,1.74-2,1.78"/><path class="cls-1" d="M105.72,165.23c-.49-.33-1.25-.53-1.41-1-.27-.81,1.46-3,2.27-3a1.37,1.37,0,0,1,1.67,1.42c.11,1.17-.22,2-1.3,2.26-.36.07-.73.07-1.1.11,0,.09-.09.17-.13.26"/><path class="cls-1" d="M165.73,110.38c.66,0,1.46.31,1.48,1.69s-.69,1.88-1.79,1.86a2.25,2.25,0,0,1-2.3-2.06c0-.93.9-1.51,2.61-1.49"/><path class="cls-1" d="M164.15,72.18c.19.25.93.76,1,1.42a1.82,1.82,0,0,1-2,2.2c-.93,0-1.82-.23-1.85-1.64,0-1.25.86-2,2.82-2"/><path class="cls-1" d="M300.38,127c-.61-.48-1.56-.83-1.75-1.48-.3-1,1.14-2.4,2.2-2.39s1.68.59,1.67,1.88c0,1.49-.89,1.72-2.12,2"/><path class="cls-1" d="M79.07,82.89a14.37,14.37,0,0,1,2.45,2.52c.51.8-.17,1.22-.92,1.07A19.85,19.85,0,0,1,78.29,86a10,10,0,0,1-1.51-.8c.37-.62.7-1.28,1.12-1.85.15-.2.51-.19,1.17-.41"/><path class="cls-1" d="M194.1,111.91a1.76,1.76,0,0,1-1.56-2c0-1.2.33-2,1.46-2,.95,0,2.67,1.62,2.3,2.44s-1.44,1.07-2.2,1.58"/><path class="cls-1" d="M139.9,72.23c.71.13,1.72.07,1.83,1.5a2.09,2.09,0,0,1-2.31,2c-1,0-1.54-.66-1.49-1.86,0-1.36.81-1.7,2-1.64"/><path class="cls-1" d="M157.7,86.19c-1.31-.38-2.18-.72-2.2-2.22A1.36,1.36,0,0,1,157,82.41c1.18,0,2.51,1.13,2.28,2.22-.14.64-1,1.05-1.62,1.56"/><path class="cls-1" d="M29.12,113.86a20,20,0,0,1,2-3,1.48,1.48,0,0,1,1.6-.17,3.1,3.1,0,0,1,.87,2c0,.36-.64,1.09-1.06,1.16a21.67,21.67,0,0,1-3.4.06"/><path class="cls-1" d="M326,161.52l2.18,2.76c-.68.55-1.4,1.58-2,1.52s-1.32-1.15-2-1.78l1.84-2.5"/><path class="cls-1" d="M254,86.55c1,.42,2.07.79,3,1.27a1.34,1.34,0,0,1,.33.89c-.44.42-1,1.09-1.42,1a14,14,0,0,1-3.27-1.25,1.47,1.47,0,0,1,0-1.17,4.74,4.74,0,0,1,1.37-.74"/><path class="cls-1" d="M292.66,106.63c-1.25-.31-1.9-.84-1.91-2.12,0-1.12.54-1.66,1.48-1.7a2,2,0,0,1,2.08,2.22c-.14.64-1.07,1.07-1.65,1.6"/><path class="cls-1" d="M301.06,97.69c.87,0,1.35.62,1.33,1.75s-1.2,2.43-2.16,2.31-.92-1.19-.94-2c0-1.3.5-2,1.77-2"/><path class="cls-1" d="M64.82,77.11c1.29,0,1.84.66,1.85,2s-.67,1.66-1.62,1.62c-1.12,0-1.72-.8-1.76-2s.77-1.56,1.53-1.59"/><path class="cls-1" d="M155.88,105.08a.88.88,0,0,1,.28,0l1.6.62c-.43.41-.84.86-1.29,1.23a4.32,4.32,0,0,1-1.45.92c-.53.12-1.42.15-1.63-.2a1.58,1.58,0,0,1,.57-2.3,7.1,7.1,0,0,1,1.91-.36s0,0,0,.08"/><path class="cls-1" d="M41.24,85.94c-1,0-1.54-.58-1.53-1.8s.68-2.1,1.72-2,1.47,1,1.47,2.13a1.49,1.49,0,0,1-1.66,1.69"/><path class="cls-1" d="M225.54,84.27c-.77-.74-1.33-1.27-1.88-1.81.65-.68,1.35-1.94,2-1.88s1.4,1.24,2.09,1.94l-2.16,1.75"/><path class="cls-1" d="M299.4,89.07a1.63,1.63,0,0,1,1.82-1.73c1,0,1.35.77,1.31,1.83,0,1.25-.63,1.88-1.68,1.82s-1.44-.81-1.45-1.92"/><path class="cls-1" d="M318.8,91c-1.31,0-1.82-.76-1.88-2s.57-1.66,1.49-1.63,1.74.25,1.74,1.57c0,1.16-.47,2-1.35,2"/><path class="cls-1" d="M94.08,101.55c-1.28-.26-2-.69-2-2.14,0-1,.49-1.61,1.39-1.63a2.27,2.27,0,0,1,2,2.48c-.09.52-.88.87-1.35,1.29"/><path class="cls-1" d="M184.51,105.4a23.9,23.9,0,0,1,3.49.07c.32,0,.85,1.18.73,1.41-.29.53-1,1.25-1.38,1.12a19,19,0,0,1-3.07-1.82Z"/><path class="cls-1" d="M354.84,97c-.07,1.2-.67,1.65-1.6,1.58s-1.61-.8-1.62-2,.73-1.42,1.53-1.42c1,0,1.66.6,1.69,1.84"/><path class="cls-1" d="M309.73,174c1,0,1.5.58,1.52,1.68s-.43,1.85-1.47,1.86-1.65-.64-1.67-1.87.77-1.56,1.62-1.67"/><path class="cls-1" d="M103.29,174c0-1.63-.1-3.27,0-4.89,0-.22.84-.67,1.06-.52.46.29,1.14,1.05,1.06,1.38a39.54,39.54,0,0,1-1.5,4.11l-.59-.08"/><path class="cls-1" d="M213.49,56.86a1.54,1.54,0,0,1,1.69,1.73c0,1.09-.42,1.77-1.39,1.83s-1.58-.55-1.62-1.74.38-1.76,1.32-1.82"/><path class="cls-1" d="M220.1,50.4c-1-.1-1.48-.72-1.43-1.9s.53-1.71,1.49-1.69,1.54.61,1.53,1.8-.54,1.78-1.59,1.79"/><path class="cls-1" d="M149.59,112.06c0,1.24-.6,1.79-1.58,1.78s-1.51-.49-1.46-1.66.39-1.77,1.4-1.76a1.48,1.48,0,0,1,1.64,1.64"/><path class="cls-1" d="M326.39,99.68c.44,0,.6-.05.72,0a7.84,7.84,0,0,1,1.63,1c.11.1-.11,1.13-.31,1.2a3.87,3.87,0,0,1-1.76.07,6.59,6.59,0,0,1-1.72-.53c-.26-.12-.45-.46-.67-.7.21-.24.4-.6.65-.69a8.42,8.42,0,0,1,1.46-.32"/><path class="cls-1" d="M172.24,74.63c1,.06,1.53.64,1.52,1.83s-.54,1.69-1.5,1.7-1.54-.59-1.52-1.8.52-1.68,1.5-1.73"/><path class="cls-1" d="M247.82,53.05c-.44-.53-1.2-1-1.24-1.6a1.67,1.67,0,0,1,1.62-2,1.5,1.5,0,0,1,1.57,1.64c0,1.32-.77,1.57-2,1.93"/><path class="cls-1" d="M72.09,170.92c.28-1.44,1-1.93,1.61-1.25.85.88,1.64,1.71,2.87,1.73.18,0,.35.51.53.78-.3.15-.6.46-.89.44a8.57,8.57,0,0,1-2.57-.4,6.2,6.2,0,0,1-1.55-1.3"/><path class="cls-1" d="M91.9,179.13c.23.37.84.93.93,1.58a1.49,1.49,0,0,1-1.55,1.91c-.91,0-1.36-.57-1.37-1.6,0-1.18.54-1.77,2-1.89"/><path class="cls-1" d="M139.73,54.15a6.27,6.27,0,0,1,1.07,2,1.39,1.39,0,0,1-1.5,1.65c-1,0-1.41-.65-1.41-1.75s.58-1.63,1.84-1.92"/><path class="cls-1" d="M247.18,94.15l2.22,1.51c-.78.55-1.51,1.41-2.33,1.54-.53.09-1.18-.9-1.78-1.4l1.89-1.65"/><path class="cls-1" d="M149.63,176.36c-.41.28-1,.94-1.59,1-1.12.17-1.51-.87-1.58-2s.75-1.32,1.52-1.33c1,0,1.57.53,1.65,2.27"/><path class="cls-1" d="M149.41,31.53a2.87,2.87,0,0,1,.83,0,11.88,11.88,0,0,1,1.34.56c-.36.49-.66,1.27-1.1,1.41a4.62,4.62,0,0,1-2.42,0c-.35-.08-.58-.83-.87-1.28a6.11,6.11,0,0,1,1.11-.71,3.73,3.73,0,0,1,1.11,0"/><path class="cls-1" d="M337.78,124.33a6,6,0,0,1-1-2,1.41,1.41,0,0,1,1.56-1.72,1.37,1.37,0,0,1,1.3,1.81,6.3,6.3,0,0,1-1.13,1.92l-.69,0"/><path class="cls-1" d="M112.65,169.07a22,22,0,0,1,3.15.07c.24,0,.65,1,.54,1.3-.38,1-1.11,1.8-2.07,1.24a9.17,9.17,0,0,1-1.8-2l.18-.62"/><path class="cls-1" d="M350.41,108.11a11,11,0,0,1,2.63.07c.37.1.72.89.85,1.44a1.4,1.4,0,0,1-.45,1.17,1.79,1.79,0,0,1-1.54-.09,12.46,12.46,0,0,1-1.67-2l.18-.56"/><path class="cls-1" d="M126.71,58.62a9.22,9.22,0,0,1,2,.3c.38.15.64.73,1,1.11-.39.25-.77.69-1.17.71a5.24,5.24,0,0,1-2-.29,6,6,0,0,1-1.37-.93c.46-.4.93-.79,1.4-1.18,0,.09.11.18.16.28"/><path class="cls-1" d="M72,90.21c.76-.73,1.44-1.58,1.58-1.47a4.36,4.36,0,0,1,1.55,2c.1.32-.82,1.08-1.28,1.65-.53-.61-1.05-1.22-1.85-2.13"/><path class="cls-1" d="M100.22,93.68c-.52.5-1.2,1.53-1.55,1.4-.7-.26-1.23-1.16-1.83-1.8.41-.41.82-1.17,1.21-1.15a6.73,6.73,0,0,1,2.11.82l.06.73"/><path class="cls-1" d="M81.85,164.49c.25.95.34,1.51.53,2,.3.76.66,1.49,1,2.22.09.18.34.29.37.47a22.17,22.17,0,0,1,.22,2.29,1.31,1.31,0,0,1-.67.25,17.64,17.64,0,0,1-.73-1.79,19.77,19.77,0,0,0-.7-2.05,3.13,3.13,0,0,1,0-3.4"/><path class="cls-1" d="M127.05,68a4.22,4.22,0,0,1-3.56.06,1.36,1.36,0,0,1-.49-1.11c.21-.45.78-1.08,1-1a25.53,25.53,0,0,1,3.13,1.39Z"/><path class="cls-1" d="M244.22,84.1c.7,1,1.32,1.54,1.39,2.13.12,1.11-.49,1.87-1.51,1.83a1.31,1.31,0,0,1-1.28-1.69c.13-.66.71-1.2,1.4-2.27"/><path class="cls-1" d="M97.37,166.12c-.24.23-1,1.06-1.06,1A15,15,0,0,1,94.62,165c.41-.42.77-1.12,1.22-1.21,1.07-.19,1.44.7,1.53,2.31"/><path class="cls-1" d="M63.08,89.84c.36.55,1.1,1.24,1,1.61a2.85,2.85,0,0,1-1.39,1.78c-.86.31-1.43-.57-1.28-1.53a6.26,6.26,0,0,1,1-1.85Z"/><path class="cls-1" d="M61.4,173c.5-.37,1-1,1.49-1.07.93-.11,1.47.64,1.47,1.72S63.74,175.18,63,175c-.58-.15-1.07-.79-1.6-1.21,0-.27,0-.54,0-.81"/><path class="cls-1" d="M202.64,99.81c-.85.71-1.38,1.48-1.9,1.48s-.92-.86-1.39-1.34a10.36,10.36,0,0,1,1.71-1.78c.15-.1.8.81,1.58,1.64"/><path class="cls-1" d="M89.47,175.16c-1.24-.31-1.66-.88-1.62-1.93s.6-1.75,1.41-1.49a2.31,2.31,0,0,1,1.27,1.64c.06.54-.67,1.18-1.06,1.78"/><path class="cls-1" d="M312,94.39c-.7-1-1.33-1.54-1.39-2.13-.1-1,.59-1.81,1.46-1.6a2.15,2.15,0,0,1,1.14,1.58c.05.51-.59,1.11-1.21,2.15"/><path class="cls-1" d="M36.23,115.85a3.72,3.72,0,0,1,3.63-.43,1.07,1.07,0,0,1,.51.81c-.07.34-.44.89-.65.87-1.19-.12-2.36-.38-3.54-.59,0-.22,0-.44,0-.66"/><path class="cls-1" d="M316.11,97.05c.63.82,1.35,1.52,1.27,1.68a12.6,12.6,0,0,1-1.49,2c-.37-.58-1-1.15-1-1.75s.66-1.08,1.25-1.94"/><path class="cls-1" d="M306.42,73.12c1.23,1.38,1.55,2.91.77,3.9a1,1,0,0,1-1.07.15c-.7-.81-.52-3,.3-4"/><path class="cls-1" d="M99.48,173.26c-.46.39-1,1.19-1.34,1.08-.57-.21-1-1-1.49-1.5.42-.43.84-1.19,1.27-1.21s1,.61,1.56,1v.68"/><path class="cls-1" d="M237,45.27c.5.65,1.3,1.24,1.4,2,.06.45-.94,1.1-1.46,1.66a5.42,5.42,0,0,1-.75-1.58,7.52,7.52,0,0,1,.3-2l.51-.08"/><path class="cls-1" d="M288.06,164.94c-1.17-.1-1.85-.58-1.81-1.78,0-.42.39-.83.6-1.24l1.95,2.32-.74.7"/><path class="cls-1" d="M251.25,181.19c.58.74.94,1.18,1.29,1.62-.5.48-.95,1.17-1.51,1.33-.29.09-1.11-.83-1.08-1.25s.69-.95,1.3-1.7"/><path class="cls-1" d="M337.44,95.12c1.1,0,2.2,0,3.29,0a.63.63,0,0,1,.44.49,1.17,1.17,0,0,1-.36.77c-.72.59-2.66.17-3.37-.68v-.61"/><path class="cls-1" d="M329.72,89.4c.55.77,1.14,1.25,1.19,1.79,0,.36-.83,1.24-1.08,1.14-.56-.21-1-.89-1.46-1.38l1.35-1.55"/><path class="cls-1" d="M297.2,105.42a7.12,7.12,0,0,1,1.95-1c.4-.08.89.5,1.33.79-.3.38-.57,1-.91,1.09a10.74,10.74,0,0,1-2.32-.13c0-.25,0-.49-.05-.74"/><path class="cls-1" d="M295,69.28c.53.61,1.24,1.08,1.21,1.47s-.67,1-1,1.44l-1.52-1.63L295,69.28"/><path class="cls-1" d="M315.4,165.33a10.55,10.55,0,0,1-1.22-2.25c-.07-.29.5-.81.78-1.22a17.55,17.55,0,0,1,1.41,2c.07.12-.42.67-1,1.5"/><path class="cls-1" d="M179.23,48.23,177.94,47l1.44-1.73c.35.41,1,.88,1,1.21-.09.56-.63,1-1.13,1.75"/><path class="cls-1" d="M359.47,118.32c-.76.62-1.19,1.19-1.7,1.31-.3.06-.72-.59-1.09-.92a9.31,9.31,0,0,1,1.48-1.41c.16-.11.63.47,1.31,1"/><path class="cls-1" d="M261.47,83.92,260,82.44c.41-.34.86-1,1.23-.94.53.1,1,.7,1.51,1.09l-1.29,1.33"/><path class="cls-1" d="M81.76,117.86l3.89.22a2.34,2.34,0,0,1-3.89-.22"/><path class="cls-1" d="M201.83,55.37c-.4-1-.82-1.57-.77-2a1.74,1.74,0,0,1,1-1.19c.27-.09,1,.66,1,.77a18.41,18.41,0,0,1-1.21,2.46"/><path class="cls-1" d="M266.55,92c.16.48.57,1.14.43,1.4a4.72,4.72,0,0,1-1.45,1.5c-.06.05-.88-.87-.81-1a6.84,6.84,0,0,1,1.09-1.5Z"/><path class="cls-1" d="M269.7,82.27c-.76.48-1.22,1-1.52.91-.46-.16-.81-.75-1.21-1.16.3-.4.7-1.17.89-1.11a8.19,8.19,0,0,1,1.84,1.36"/><path class="cls-1" d="M230.71,57a7.67,7.67,0,0,1-.82-1.38,3.75,3.75,0,0,1,1.33-1.19c.18-.08.59.55.9.86L230.71,57"/><path class="cls-1" d="M107.34,156.39c-.58.38-1,.84-1.16.74a3.13,3.13,0,0,1-1.1-1.34c-.11-.3.31-.85.5-1.29l1.76,1.89"/><path class="cls-1" d="M293.15,159c-.62.37-1.09.81-1.24.7a4.32,4.32,0,0,1-1.17-1.46c-.09-.18.33-.71.52-1.07l1.89,1.83"/><path class="cls-1" d="M122.05,81.76l1.12,1.29c-.45.38-.86.94-1.36,1.07-.28.08-.7-.54-1.06-.85l1.3-1.51"/><path class="cls-1" d="M266,69.28l1,1.29a6.8,6.8,0,0,1-1.37,1.13c-.14.07-.84-.78-.78-1A6.24,6.24,0,0,1,266,69.28"/><path class="cls-1" d="M273.93,72.41a11.27,11.27,0,0,1,1.13,2.06c.06.2-.43.63-.67,1-.36-.39-.86-.71-1-1.18-.12-.32.24-.87.56-1.84"/><path class="cls-1" d="M310.75,100.74c-.72.23-1.2.57-1.37.42a4.91,4.91,0,0,1-1.08-1.54c-.06-.1.38-.53.59-.81l1.86,1.93"/><path class="cls-1" d="M235.44,83.88l-1.09-1.44c.32-.23.7-.71,1-.63a4.52,4.52,0,0,1,1.29,1l-1.15,1.12"/><path class="cls-1" d="M156,118.92c-.33.16-.76.56-1,.44a6.46,6.46,0,0,1-1.25-1.21c.34-.2.71-.62,1-.55a4.75,4.75,0,0,1,1.3.83l-.06.49"/><path class="cls-1" d="M57.32,83.33c.41.42.55.51.54.55-.2.85-.41,1.69-.62,2.54a3.47,3.47,0,0,1-.66-.35c.2-.87.45-1.72.74-2.74"/><path class="cls-1" d="M159.07,76.19l-1.34,1.43c-.19-.37-.6-.86-.52-1.08a3.82,3.82,0,0,1,1-1.25,6.55,6.55,0,0,1,.85.9"/><path class="cls-1" d="M322.21,120.77a5.31,5.31,0,0,1-.08.64c-.69.07-1.38.15-2.08.17a5.6,5.6,0,0,1-.1-.81Z"/><path class="cls-1" d="M160.29,67c-.67.47-1,.9-1.35.9s-.6-.47-.9-.73c.28-.35.52-.92.84-1s.71.38,1.41.81"/><path class="cls-1" d="M69.52,84l-1-1a4.89,4.89,0,0,1,1.24-1c.22-.07.58.45.88.71L69.52,84"/><path class="cls-1" d="M89,165.85l-1,.92a11,11,0,0,1-.81-1.51c0-.14.35-.49.54-.75L89,165.85"/><path class="cls-1" d="M303.4,132.37l-.95-1c.34-.26.69-.69,1-.71s.58.5.87.77l-1,.92"/><path class="cls-1" d="M119.05,54.44c.55,0,1.11,0,1.66,0a3.41,3.41,0,0,1,.05.78c-.55.1-1.12.14-1.68.19l0-1"/><path class="cls-1" d="M90.41,128.61c-.71.32-1.06.63-1.3.54s-.66-.54-1-.84c.27-.21.56-.61.79-.57.39.06.75.41,1.5.87"/><path class="cls-1" d="M293.14,167.33c-.59,0-1.18.1-1.77.09a4.41,4.41,0,0,1-.13-.78l1.82-.23Z"/><path class="cls-1" d="M100.89,161.28c-.2-.54-.41-1.09-.61-1.64a5.11,5.11,0,0,1,.78-.26c.19.53.32,1.09.47,1.64Z"/><path class="cls-1" d="M96.89,101.93l1.47.87c-.08.18-.15.36-.23.53-.74.29-1.25.07-1.47-.86l.23-.54"/><path class="cls-1" d="M265,306.13l-2.32-1a15.6,15.6,0,0,0-3.32-1.29c-2.14-.33-3.29-2.34-2.45-4.64a1.37,1.37,0,0,1,2.23-.69c1.41,1.11,2.73,2.37,4.16,3.43a5.56,5.56,0,0,0,2,.67,35.88,35.88,0,0,1,3.54.88c.4.15.64.91,1,1.39a4.36,4.36,0,0,1-1.26.78c-1,.22-2,.27-3.5.44"/><path class="cls-1" d="M144.51,136a1.57,1.57,0,0,1-1.58,1.65c-1,0-1.53-1-1.5-2.78,0-1.13.1-2.25,1.4-2.27,1,0,1.7,1.34,1.68,3.4"/></svg>